<?xml version="1.0" encoding="UTF-8" standalone="no"?>
<!-- Created with Inkscape (http://www.inkscape.org/) -->

<svg
   xmlns:dc="http://purl.org/dc/elements/1.1/"
   xmlns:cc="http://creativecommons.org/ns#"
   xmlns:rdf="http://www.w3.org/1999/02/22-rdf-syntax-ns#"
   xmlns:svg="http://www.w3.org/2000/svg"
   xmlns="http://www.w3.org/2000/svg"
   xmlns:sodipodi="http://sodipodi.sourceforge.net/DTD/sodipodi-0.dtd"
   xmlns:inkscape="http://www.inkscape.org/namespaces/inkscape"
   width="210mm"
   height="297mm"
   viewBox="0 0 210 297"
   version="1.1"
   id="svg4669"
   inkscape:version="0.92.2 5c3e80d, 2017-08-06"
   sodipodi:docname="hand-spoon.svg">
  <defs
     id="defs4663" />
  <sodipodi:namedview
     id="base"
     pagecolor="#ffffff"
     bordercolor="#666666"
     borderopacity="1.0"
     inkscape:pageopacity="0.0"
     inkscape:pageshadow="2"
     inkscape:zoom="1.0992187"
     inkscape:cx="198.49325"
     inkscape:cy="560"
     inkscape:document-units="mm"
     inkscape:current-layer="layer1"
     showgrid="false"
     inkscape:window-width="1920"
     inkscape:window-height="971"
     inkscape:window-x="0"
     inkscape:window-y="31"
     inkscape:window-maximized="1" />
  <metadata
     id="metadata4666">
    <rdf:RDF>
      <cc:Work
         rdf:about="">
        <dc:format>image/svg+xml</dc:format>
        <dc:type
           rdf:resource="http://purl.org/dc/dcmitype/StillImage" />
        <dc:title></dc:title>
      </cc:Work>
    </rdf:RDF>
  </metadata>
  <g
     inkscape:label="Layer 1"
     inkscape:groupmode="layer"
     id="layer1">
    <path
       d="m 118.15832,159.54481 c -0.38947,0.067 -0.84526,0.50095 -1.15394,0.88195 -0.30868,0.381 -0.43356,1.12536 -0.2794,1.69686 0.15452,0.57503 0.66534,0.79022 0.80116,0.67028 0.25718,-0.22931 0.0737,-0.48684 -0.11747,-1.016 -0.19121,-0.52917 0.066,-0.90311 0.34537,-1.23473 0.2794,-0.32808 0.67627,-0.38805 0.99942,-0.28575 0.32349,0.10231 0.40428,0.16934 0.55139,-0.23283 0.14711,-0.40569 -0.75706,-0.5468 -1.14653,-0.47978 z m 0.40781,6.66398 c -0.11536,-0.0317 -1.51024,-1.6757 -1.92934,-2.41653 -0.41875,-0.73731 -0.72743,-2.16959 -0.22049,-3.3267 0.5073,-1.16064 1.90747,-1.48872 2.66806,-1.37936 0.76059,0.10936 2.29306,0.8255 2.32622,2.31422 0.0328,1.48873 -0.44097,2.08492 -1.11372,2.96687 -0.6724,0.88194 -1.22343,1.97202 -1.73073,1.8415 z m 0.89288,9.78958 c 0,0.87136 -0.0769,0.90311 -0.39687,0.91369 -0.31962,0.0106 -0.2092,-2.24719 -0.23143,-3.21733 -0.0219,-0.97014 0.0441,-3.33022 0.055,-3.75003 0.0113,-0.4198 0.0822,-0.40216 0.14358,-0.45155 0.50694,-0.39864 0.42968,5.63386 0.42968,6.50522 z m -0.36371,-7.60942 c 0.23142,0.0565 0.19861,0.35278 0.055,0.47625 -0.14323,0.11995 -0.27552,0.0423 -0.47378,-0.15522 -0.19861,-0.19756 0.21484,-0.36689 0.41875,-0.32103 z m 2.02847,-3.93347 c 1.13559,-1.86267 1.05833,-4.06753 -0.0219,-5.20347 -1.08056,-1.13595 -3.52778,-0.90311 -4.42101,-0.22225 -0.89288,0.68439 -1.5875,2.24014 -1.1684,3.96875 0.41874,1.73214 2.27083,3.30905 2.4585,3.43958 0.18733,0.13406 0.066,1.8415 0.066,1.8415 -0.19826,0.0353 -0.44097,0.38806 -0.4519,0.91722 -0.0109,0.52917 0,5.53156 -0.0222,6.39234 -0.0219,0.86077 0,0.98072 0.35278,1.48872 0.35278,0.508 1.36701,0.45155 1.76389,0.39511 0.39687,-0.0529 0.38594,-0.74789 0.38594,-1.47461 0,-0.73025 -0.0882,-5.98664 -0.0882,-6.50522 0,-0.51859 -0.14323,-0.93839 -0.25365,-1.0795 -0.11006,-0.14464 -0.18732,-0.17639 -0.17638,-0.37748 0.0113,-0.19755 -0.0769,-1.397 -0.0109,-1.52047 0.0663,-0.11994 0.45191,-0.19755 1.5875,-2.06022"
       style="fill:#231f20;fill-opacity:1;fill-rule:nonzero;stroke:none;stroke-width:0.03527778"
       id="path130"
       inkscape:connector-curvature="0" />
  </g>
</svg>
