<?xml version="1.0" encoding="UTF-8" standalone="no"?>
<!-- Created with Inkscape (http://www.inkscape.org/) -->

<svg
   xmlns:dc="http://purl.org/dc/elements/1.1/"
   xmlns:cc="http://creativecommons.org/ns#"
   xmlns:rdf="http://www.w3.org/1999/02/22-rdf-syntax-ns#"
   xmlns:svg="http://www.w3.org/2000/svg"
   xmlns="http://www.w3.org/2000/svg"
   xmlns:sodipodi="http://sodipodi.sourceforge.net/DTD/sodipodi-0.dtd"
   xmlns:inkscape="http://www.inkscape.org/namespaces/inkscape"
   width="210mm"
   height="297mm"
   viewBox="0 0 210 297"
   version="1.1"
   id="svg5848"
   inkscape:version="0.92.2 5c3e80d, 2017-08-06"
   sodipodi:docname="hand-platecover.svg">
  <defs
     id="defs5842" />
  <sodipodi:namedview
     id="base"
     pagecolor="#ffffff"
     bordercolor="#666666"
     borderopacity="1.0"
     inkscape:pageopacity="0.0"
     inkscape:pageshadow="2"
     inkscape:zoom="1.0992187"
     inkscape:cx="198.49325"
     inkscape:cy="560"
     inkscape:document-units="mm"
     inkscape:current-layer="layer1"
     showgrid="false"
     inkscape:window-width="1920"
     inkscape:window-height="971"
     inkscape:window-x="0"
     inkscape:window-y="31"
     inkscape:window-maximized="1" />
  <metadata
     id="metadata5845">
    <rdf:RDF>
      <cc:Work
         rdf:about="">
        <dc:format>image/svg+xml</dc:format>
        <dc:type
           rdf:resource="http://purl.org/dc/dcmitype/StillImage" />
        <dc:title></dc:title>
      </cc:Work>
    </rdf:RDF>
  </metadata>
  <g
     inkscape:label="Layer 1"
     inkscape:groupmode="layer"
     id="layer1">
    <path
       d="m 99.961205,155.00328 c 0.352785,0.0882 0.440975,-0.22225 0.440975,-0.508 0,-0.28575 0.30868,-1.60867 0.77153,-2.20486 0.4632,-0.5962 1.65382,-1.18886 2.13889,-1.34409 0.48507,-0.15522 0.81562,0.0423 1.05833,-0.19755 0.24236,-0.24342 -0.22048,-0.66322 -1.05833,-0.52917 -0.83785,0.13053 -1.73884,0.63853 -2.40347,1.36525 -0.46285,0.508 -0.77153,0.99131 -0.992025,1.76389 -0.22048,0.77258 -0.30868,1.56633 0.0441,1.65453 z m 13.559725,3.01978 c -0.0441,0.22225 -1.5875,0.17638 -3.96875,0.26458 -2.38125,0.0882 -5.79861,0.067 -7.80521,0.19755 -2.006245,0.13406 -4.696185,0.26459 -5.093055,0.28928 -0.39688,0.0212 -0.28681,-0.46566 -0.26458,-0.86078 0.0219,-0.39863 0.48507,-0.19755 0.70555,-0.19755 0.39688,0 5.622225,-0.39864 8.775355,-0.57503 3.15277,-0.17639 6.98923,-0.21872 7.40833,-0.21872 0.41875,0 0.28646,0.88194 0.24236,1.10067 z m -15.257645,-4.09928 c 0.375,-1.32292 2.050705,-3.41842 2.844455,-4.12397 0.79375,-0.70556 2.16076,-1.43228 3.41736,-1.63337 1.25694,-0.19755 4.23333,-0.17638 5.40208,1.43581 1.1684,1.60867 1.69757,2.73403 1.85209,3.7465 0.15416,1.016 0.0441,2.40242 0.0441,2.69169 0,0.28575 0.066,0.37395 -0.24271,0.41628 -0.30869,0.0459 -4.18924,-0.0882 -6.37188,0.11289 -2.18299,0.19756 -5.313895,0.46214 -5.578475,0.46214 -0.48543,0 -1.1684,-0.067 -1.32292,-0.28575 -0.15416,-0.22225 -0.41875,-1.49931 -0.0441,-2.82222 z m 5.556255,-7.56356 c -0.55104,0.0212 -0.37465,-0.33161 -0.37465,-0.57503 0,-0.23988 0.72743,-0.15169 1.30069,-0.17638 0,0 0.68369,-0.0212 1.10243,-0.0212 0.4191,0 0.5073,0.17639 0.44098,0.508 -0.066,0.33161 -0.17639,0.24342 -0.92605,0.24342 -0.74965,0 -0.99201,0 -1.5434,0.0212 z m 10.27465,10.1212 c 0,-0.35278 -1.21249,-0.15523 -1.43298,-0.15523 -0.22049,0 -0.13229,-2.11666 -0.48507,-3.92641 -0.35278,-1.80622 -2.09479,-3.85586 -3.2191,-4.38503 -1.12465,-0.52917 -2.40347,-0.48683 -2.75625,-0.52917 -0.35278,-0.0459 -0.22048,-0.33161 -0.22048,-0.46566 0,-0.13053 0.39687,-0.17639 0.72778,-0.17639 0.33055,0 0.22048,-1.1677 0.22048,-1.56281 0,-0.39864 -0.3309,-0.44097 -0.66146,-0.44097 -0.3309,0 -2.46944,0.10936 -2.99861,0.15169 -0.52916,0.0459 -0.375,0.97014 -0.375,1.43581 0,0.46214 0.57326,0.55033 0.90417,0.52917 0.33055,-0.0247 0.28645,0.37394 0.28645,0.61736 0,0.23989 -0.48506,0.35278 -0.97013,0.4833 -0.48507,0.13406 -1.3522,0.46214 -2.11667,1.05128 -0.76412,0.58914 -2.586925,2.61761 -3.233565,4.58611 -0.647,1.9685 0.0293,3.43959 0.0293,3.43959 0,0 -1.4037,0.007 -1.77871,0.0282 -0.37465,0.0247 -0.22048,1.61219 -0.17638,2.0073 0.0441,0.39864 3.1309,0.067 7.496525,-0.15522 4.36563,-0.21872 9.54723,-0.19755 10.14236,-0.23989 0.59549,-0.0459 0.61736,-0.48683 0.63959,-0.88194 0.0219,-0.39864 -0.0222,-1.05834 -0.0222,-1.41111"
       style="fill:#231f20;fill-opacity:1;fill-rule:nonzero;stroke:none;stroke-width:0.03527778"
       id="path66"
       inkscape:connector-curvature="0" />
  </g>
</svg>
