<?xml version="1.0" encoding="UTF-8" standalone="no"?>
<!-- Created with Inkscape (http://www.inkscape.org/) -->

<svg
   xmlns:dc="http://purl.org/dc/elements/1.1/"
   xmlns:cc="http://creativecommons.org/ns#"
   xmlns:rdf="http://www.w3.org/1999/02/22-rdf-syntax-ns#"
   xmlns:svg="http://www.w3.org/2000/svg"
   xmlns="http://www.w3.org/2000/svg"
   xmlns:sodipodi="http://sodipodi.sourceforge.net/DTD/sodipodi-0.dtd"
   xmlns:inkscape="http://www.inkscape.org/namespaces/inkscape"
   width="210mm"
   height="297mm"
   viewBox="0 0 210 297"
   version="1.1"
   id="svg7567"
   inkscape:version="0.92.2 5c3e80d, 2017-08-06"
   sodipodi:docname="hand-plate_cover.svg">
  <defs
     id="defs7561" />
  <sodipodi:namedview
     id="base"
     pagecolor="#ffffff"
     bordercolor="#666666"
     borderopacity="1.0"
     inkscape:pageopacity="0.0"
     inkscape:pageshadow="2"
     inkscape:zoom="6.2181202"
     inkscape:cx="445.92536"
     inkscape:cy="508.5375"
     inkscape:document-units="mm"
     inkscape:current-layer="layer1"
     showgrid="false"
     inkscape:snap-bbox="false"
     inkscape:snap-global="false"
     inkscape:window-width="1920"
     inkscape:window-height="971"
     inkscape:window-x="0"
     inkscape:window-y="31"
     inkscape:window-maximized="1" />
  <metadata
     id="metadata7564">
    <rdf:RDF>
      <cc:Work
         rdf:about="">
        <dc:format>image/svg+xml</dc:format>
        <dc:type
           rdf:resource="http://purl.org/dc/dcmitype/StillImage" />
        <dc:title></dc:title>
      </cc:Work>
    </rdf:RDF>
  </metadata>
  <g
     inkscape:label="Layer 1"
     inkscape:groupmode="layer"
     id="layer1">
    <path
       d="m 111.75557,165.35343 c 0.35278,0.0882 0.44097,-0.22225 0.44097,-0.508 0,-0.28575 0.30868,-1.60867 0.77153,-2.20486 0.46319,-0.5962 1.65382,-1.18886 2.13889,-1.34409 0.48507,-0.15522 0.81562,0.0423 1.05833,-0.19755 0.24236,-0.24342 -0.22049,-0.66322 -1.05833,-0.52917 -0.83785,0.13053 -1.73884,0.63853 -2.40348,1.36525 -0.46284,0.508 -0.77152,0.99131 -0.99201,1.76389 -0.22049,0.77258 -0.30868,1.56633 0.0441,1.65453 z m 13.55972,3.01978 c -0.0441,0.22225 -1.5875,0.17639 -3.96875,0.26458 -2.38125,0.0882 -5.79861,0.067 -7.80521,0.19756 -2.00625,0.13405 -4.69618,0.26458 -5.09305,0.28927 -0.39688,0.0212 -0.28681,-0.46566 -0.26459,-0.86077 0.0219,-0.39864 0.48507,-0.19756 0.70556,-0.19756 0.39687,0 5.62222,-0.39864 8.77535,-0.57503 3.15277,-0.17639 6.98923,-0.21872 7.40833,-0.21872 0.41875,0 0.28645,0.88194 0.24236,1.10067 z m -15.25764,-4.09928 c 0.375,-1.32292 2.0507,-3.41842 2.84445,-4.12397 0.79375,-0.70556 2.16076,-1.43228 3.41735,-1.63336 1.25695,-0.19756 4.23334,-0.17639 5.40209,1.4358 1.1684,1.60867 1.69757,2.73403 1.85208,3.7465 0.15417,1.016 0.0441,2.40242 0.0441,2.6917 0,0.28575 0.066,0.37394 -0.24271,0.41627 -0.30868,0.0459 -4.18923,-0.0882 -6.37187,0.11289 -2.18299,0.19756 -5.31389,0.46214 -5.57848,0.46214 -0.48542,0 -1.1684,-0.067 -1.32291,-0.28575 -0.15417,-0.22225 -0.41875,-1.4993 -0.0441,-2.82222 z m 5.55625,-7.56356 c -0.55104,0.0212 -0.37465,-0.33161 -0.37465,-0.57502 0,-0.23989 0.72743,-0.1517 1.30069,-0.17639 0,0 0.68368,-0.0212 1.10243,-0.0212 0.4191,0 0.50729,0.17639 0.44097,0.508 -0.066,0.33161 -0.17639,0.24342 -0.92604,0.24342 -0.74965,0 -0.99201,0 -1.5434,0.0212 z m 10.27465,10.1212 c 0,-0.35278 -1.2125,-0.15522 -1.43298,-0.15522 -0.22049,0 -0.13229,-2.11667 -0.48507,-3.92642 -0.35278,-1.80622 -2.0948,-3.85586 -3.2191,-4.38503 -1.12465,-0.52917 -2.40347,-0.48683 -2.75625,-0.52917 -0.35278,-0.0459 -0.22049,-0.33161 -0.22049,-0.46566 0,-0.13053 0.39688,-0.17639 0.72778,-0.17639 0.33056,0 0.22049,-1.1677 0.22049,-1.56281 0,-0.39864 -0.33091,-0.44097 -0.66146,-0.44097 -0.33091,0 -2.46944,0.10936 -2.99861,0.1517 -0.52917,0.0459 -0.375,0.97013 -0.375,1.4358 0,0.46214 0.57326,0.55033 0.90417,0.52917 0.33055,-0.0247 0.28645,0.37394 0.28645,0.61736 0,0.23989 -0.48507,0.35278 -0.97014,0.4833 -0.48507,0.13406 -1.35219,0.46214 -2.11666,1.05128 -0.76412,0.58914 -2.58692,2.61761 -3.23356,4.58611 -0.647,1.9685 0.0293,3.43959 0.0293,3.43959 0,0 -1.40371,0.007 -1.77871,0.0282 -0.37465,0.0247 -0.22049,1.61219 -0.17639,2.0073 0.0441,0.39864 3.1309,0.067 7.49653,-0.15522 4.36562,-0.21872 9.54722,-0.19755 10.14236,-0.23989 0.59549,-0.0459 0.61736,-0.48683 0.63959,-0.88194 0.0219,-0.39864 -0.0222,-1.05833 -0.0222,-1.41111"
       style="fill:#231f20;fill-opacity:1;fill-rule:nonzero;stroke:none;stroke-width:0.03527778"
       id="path66"
       inkscape:connector-curvature="0" />
    <path
       id="path8152"
       style="fill:#231f20;fill-rule:evenodd;stroke:none;stroke-width:0.26458332px;stroke-linecap:butt;stroke-linejoin:miter;stroke-opacity:1;fill-opacity:1"
       d="m 114.88601,156.71142 0.29785,-1.10631 2.89342,-0.0426 0.29785,1.27651 z m -7.02082,11.10565 0.25531,1.40416 17.4031,-0.46806 0.0851,-1.70201 -11.91411,0.1702 z m 8.72283,-9.44619 c 0,0 -6.93784,0.6108 -7.0006,9.11333 -0.0628,8.50253 0,0 0,0 l 14.48946,-0.68835 c 0,0 0.68081,-8.85048 -6.21235,-8.59518 -6.89316,0.25531 1.19141,0.1702 1.19141,0.1702 z" />
    <path
       style="fill:#ffffff;fill-opacity:1;fill-rule:evenodd;stroke:none;stroke-width:0.26458332px;stroke-linecap:butt;stroke-linejoin:miter;stroke-opacity:1"
       d="m 116.80076,159.39225 c 0,0 -5.76492,-0.14691 -5.70157,5.58228 0.0634,5.72918 0,-0.14691 0,-0.14691 0,0 1.77382,-3.67255 5.70157,-5.43537 z"
       id="path8154"
       inkscape:connector-curvature="0" />
    <path
       style="fill:#ffffff;fill-opacity:1;fill-rule:evenodd;stroke:none;stroke-width:0.26458332px;stroke-linecap:butt;stroke-linejoin:miter;stroke-opacity:1"
       d="m 115.4817,155.58655 c 0,0 2.47127,-0.35182 2.69593,0 0.22466,0.35183 0.14977,1.50783 0.14977,1.50783 0,0 0.22468,-1.60835 -2.8457,-1.50783 z"
       id="path8158"
       inkscape:connector-curvature="0" />
  </g>
</svg>
