<?xml version="1.0" encoding="UTF-8" standalone="no"?>
<!-- Created with Inkscape (http://www.inkscape.org/) -->

<svg
   xmlns:dc="http://purl.org/dc/elements/1.1/"
   xmlns:cc="http://creativecommons.org/ns#"
   xmlns:rdf="http://www.w3.org/1999/02/22-rdf-syntax-ns#"
   xmlns:svg="http://www.w3.org/2000/svg"
   xmlns="http://www.w3.org/2000/svg"
   xmlns:sodipodi="http://sodipodi.sourceforge.net/DTD/sodipodi-0.dtd"
   xmlns:inkscape="http://www.inkscape.org/namespaces/inkscape"
   width="210mm"
   height="297mm"
   viewBox="0 0 210 297"
   version="1.1"
   id="svg8201"
   enable-background="new"
   inkscape:version="0.92.2 5c3e80d, 2017-08-06"
   sodipodi:docname="hand-pot.svg">
  <defs
     id="defs8195">
    <filter
       inkscape:collect="always"
       style="color-interpolation-filters:sRGB"
       id="filter8752">
      <feBlend
         inkscape:collect="always"
         mode="multiply"
         in2="BackgroundImage"
         id="feBlend8754" />
    </filter>
  </defs>
  <sodipodi:namedview
     id="base"
     pagecolor="#ffffff"
     bordercolor="#666666"
     borderopacity="1.0"
     inkscape:pageopacity="0.0"
     inkscape:pageshadow="2"
     inkscape:zoom="8.79375"
     inkscape:cx="546.75865"
     inkscape:cy="549.79893"
     inkscape:document-units="mm"
     inkscape:current-layer="layer1"
     showgrid="false"
     inkscape:snap-global="false"
     inkscape:window-width="1920"
     inkscape:window-height="971"
     inkscape:window-x="0"
     inkscape:window-y="31"
     inkscape:window-maximized="1" />
  <metadata
     id="metadata8198">
    <rdf:RDF>
      <cc:Work
         rdf:about="">
        <dc:format>image/svg+xml</dc:format>
        <dc:type
           rdf:resource="http://purl.org/dc/dcmitype/StillImage" />
        <dc:title></dc:title>
      </cc:Work>
    </rdf:RDF>
  </metadata>
  <g
     inkscape:groupmode="layer"
     id="layer3"
     inkscape:label="Layer 3"
     style="display:none"
     sodipodi:insensitive="true">
    <rect
       style="fill:#3144ff;fill-opacity:1;stroke:none;stroke-width:0.435;stroke-miterlimit:4;stroke-dasharray:none;stroke-opacity:1"
       id="rect8768"
       width="24.891968"
       height="22.977201"
       x="139.90562"
       y="141.98898" />
  </g>
  <g
     inkscape:groupmode="layer"
     id="layer2"
     inkscape:label="Layer 2"
     style="display:inline">
    <g
       id="g8778">
      <path
         inkscape:connector-curvature="0"
         id="path8757"
         d="m 146.20308,147.94604 c 0,0 -0.55316,0.42551 -0.59571,1.44671 -0.0426,1.02121 -0.0426,0.0851 -0.0426,0.0851 l 0.29786,6.29745 c 0,0 0.0425,0.55316 0.89355,0.5106 0.85101,-0.0426 0.85101,-0.0426 0.85101,-0.0426 l 8.42497,-0.12765 c 0,0 0.38296,-0.4255 0.38296,-1.31906 0,-0.89355 0,-0.89355 0,-0.89355 l -0.0851,-5.87196 c 0,0 0,-0.63825 -1.10631,-0.6808 -1.10631,-0.0425 -1.10631,0 -1.10631,0 z"
         style="fill:#231f20;fill-opacity:1;fill-rule:evenodd;stroke:none;stroke-width:0.26458332px;stroke-linecap:butt;stroke-linejoin:miter;stroke-opacity:1" />
      <path
         inkscape:connector-curvature="0"
         id="path8759"
         d="m 145.60737,151.17987 -1.91476,-0.0426 c 0,0 -0.42551,0.0851 -0.42551,0.89356 0,0.80846 0,0.80846 0,0.80846 0,0 -0.2553,-0.0426 0.72336,0.1702 0.97866,0.21275 1.78712,0.0426 1.78712,0.0426 z"
         style="fill:#231f20;fill-opacity:1;fill-rule:evenodd;stroke:none;stroke-width:0.26458332px;stroke-linecap:butt;stroke-linejoin:miter;stroke-opacity:1" />
      <path
         inkscape:connector-curvature="0"
         id="path8761"
         d="m 156.41517,150.92457 c 0,0 1.87221,-0.21275 1.95732,0.21275 0.0851,0.4255 0.2553,1.19141 -0.0426,1.44671 -0.29785,0.25531 -2.12751,0 -2.12751,0 z"
         style="fill:#231f20;fill-opacity:1;fill-rule:evenodd;stroke:none;stroke-width:0.26458332px;stroke-linecap:butt;stroke-linejoin:miter;stroke-opacity:1" />
    </g>
    <path
       style="fill:#231f20;fill-opacity:1;fill-rule:evenodd;stroke:none;stroke-width:0.26458332px;stroke-linecap:butt;stroke-linejoin:miter;stroke-opacity:1"
       d="m 150.03261,147.22269 c 0,0 -0.12765,-0.93611 -0.76591,-1.31906 -0.63825,-0.38296 0.89356,-0.59571 1.36162,-0.59571 0.46805,0 2.17007,0.12765 1.65946,0.46805 -0.5106,0.34041 -0.85101,0.51061 -0.85101,0.51061 l 0.25531,0.93611 z"
       id="path8763"
       inkscape:connector-curvature="0" />
  </g>
  <g
     inkscape:label="Layer 1"
     inkscape:groupmode="layer"
     id="layer1"
     style="display:inline;filter:url(#filter8752)">
    <path
       d="m 147.65687,151.98726 c 0,-0.64911 0.17639,-1.73567 -0.17639,-1.73567 -0.0882,0 -0.0882,0.55739 -0.0882,1.23472 0,0.67734 0.0882,1.82386 0.11754,2.38125 0.0295,0.55739 -0.0587,1.17475 0.14704,1.17475 0.20574,0 0.29394,-0.97014 0.26458,-1.46755 -0.0293,-0.50095 -0.26458,-0.94192 -0.26458,-1.5875 z m 10.49503,0.52916 c -0.20567,0.14464 -0.9405,-0.0318 -1.29328,-0.0318 -0.35278,0 -0.29422,-0.52916 -0.29422,-0.82197 0,-0.2928 0.096,-0.43039 0.20603,-0.46919 0.23495,-0.0882 1.0287,0 1.35219,0.0564 0.3235,0.06 0.23531,1.11831 0.0293,1.26647 z m -2.05775,-2.61761 c -0.0293,0.0882 -0.0882,0.64559 -0.11747,1.38289 -0.0296,0.73378 0.0293,2.79047 0,3.79236 -0.0296,0.99836 -0.4117,0.82197 -0.58808,0.70556 -0.17639,-0.11995 -0.0589,-1.55928 -0.0882,-2.99861 -0.0293,-1.44286 0.11747,-2.06023 -0.11748,-2.14842 -0.2353,-0.0882 -0.41169,0.17639 -0.4706,0.64911 -0.0586,0.4692 -0.0586,2.49767 -0.0586,3.175 0,0.67381 0.0293,1.20297 -0.14711,1.41111 -0.17639,0.20461 -2.17558,0.11642 -3.76298,0.11642 -1.5875,0 -4.05694,-0.23636 -4.40972,-0.32456 -0.35278,-0.0882 -0.17639,-1.35114 -0.23524,-2.32127 -0.0587,-0.97014 -0.30399,-3.0727 -0.17639,-3.14678 0.20588,-0.11642 1.91093,-0.26459 2.23436,-0.23284 0.32328,0.0282 0.26458,0.44098 0.23509,1.02659 -0.0294,0.58914 0.0295,1.47108 0,2.50119 -0.0294,1.02659 -0.0294,1.46756 0.26458,1.46756 0.29408,0 0.26458,-1.20297 0.17639,-2.23309 -0.0882,-1.03011 0.0882,-2.58586 0.11769,-2.794 0.0294,-0.20461 3.88052,-0.35277 4.29221,-0.40922 0.41134,-0.06 0.35278,0.55739 0.41134,1.82034 0.0589,1.26647 0.0589,1.91205 0.20602,2.00025 0.14675,0.0882 0.35278,-0.11642 0.44097,-0.88195 0.0882,-0.76553 0,-2.76225 0.0882,-2.97039 0.0882,-0.20461 1.14653,-0.20461 1.41111,0 0.26459,0.20814 0.32315,0.32456 0.29387,0.41275 z m -9.96594,-1.4993 c 0.38213,-0.11642 2.61635,-0.67734 4.7625,-0.70556 2.14592,-0.0282 4.87994,-0.23636 5.05633,0.23636 0.17286,0.45861 0.0642,1.03011 0.0596,1.05481 0.003,-0.0282 -0.0639,-0.19756 -2.11737,-0.11642 -2.23432,0.0882 -4.29214,0.26458 -5.85029,0.41275 -1.55801,0.14817 -2.20486,0.11642 -2.20486,0.11642 0,0 -0.0882,-0.88195 0.29407,-0.99836 z m 4.58612,-2.8822 v 1.61925 h -0.11769 l -0.0587,-1.64747 z m 0.44097,0.9137 c 0,-0.29634 0.0882,-0.94192 0.0882,-0.94192 0,0 0.1469,0.55739 0.1469,0.88194 0,0.32456 0.0295,0.64559 -0.11755,0.67734 -0.14703,0.0282 -0.11754,-0.32456 -0.11754,-0.61736 z m -5.70329,6.49464 c -0.0588,0.11994 -1.02898,0 -1.61685,-0.0882 -0.58801,-0.0882 -0.29408,-0.73378 -0.29408,-1.11478 0,-0.38452 0.20588,-0.47272 0.58801,-0.47272 0.38213,0 1.23473,0.06 1.23473,0.06 0.17638,-0.0282 0.14703,1.49931 0.0882,1.61573 z m 12.6117,-2.11667 c -0.49953,-0.0564 -1.38148,0.06 -1.44039,-0.0564 -0.0589,-0.11994 0.0882,-1.85208 -0.11748,-2.88219 -0.20602,-1.03011 -1.44074,-0.82197 -2.1463,-0.82197 -0.70555,0 -2.58688,-0.06 -2.58688,-0.06 0,0 -0.11769,-0.41275 -0.0588,-0.61737 0.0588,-0.20461 0.29393,-0.0882 0.58797,-0.2928 0.29386,-0.20814 0.20567,-0.64911 -0.29404,-0.8255 -0.49967,-0.17639 -1.94028,-0.17639 -2.55764,0.06 -0.61736,0.23636 -0.70555,0.79375 -0.20574,0.99836 0.49982,0.20814 0.47032,0.70556 0.44097,0.88195 -0.0293,0.17639 -0.97014,0.17639 -1.52865,0.20814 -0.55866,0.0282 -1.99912,0.32102 -1.99912,0.32102 -0.7644,0.20814 -0.97014,0.76553 -0.88195,1.26648 0.0882,0.49741 0.0588,1.99672 0.0588,1.99672 0,0 -0.58801,0 -1.35241,-0.0564 -0.76425,-0.06 -0.91129,0.762 -0.88194,1.64395 0.0295,0.88194 1.85208,0.64911 2.17551,0.70555 0.32343,0.06 0.17639,1.85209 0.23523,2.413 0.0587,0.55739 0.55852,0.97014 2.05783,0.97014 1.4993,0 7.93739,-0.0882 8.46656,-0.20814 0.52916,-0.11641 0.5588,-1.26294 0.61736,-1.73214 0.0589,-0.47272 -0.0882,-1.82386 0,-1.82386 0.0882,0 1.4993,0 1.79352,-0.0282 0.29386,-0.0318 0.26458,-0.52917 0.29386,-1.2065 0.0293,-0.67733 -0.17638,-0.79375 -0.67627,-0.85372"
       style="fill:#000000;fill-opacity:1;fill-rule:nonzero;stroke:none;stroke-width:0.435;stroke-miterlimit:4;stroke-dasharray:none;stroke-opacity:1"
       id="path34"
       inkscape:connector-curvature="0" />
  </g>
  <g
     inkscape:groupmode="layer"
     id="layer4"
     inkscape:label="Layer 4">
    <path
       style="fill:#f5ffff;fill-rule:evenodd;stroke:none;stroke-width:0.26458332px;stroke-linecap:butt;stroke-linejoin:miter;stroke-opacity:1;fill-opacity:1"
       d="m 146.0154,149.38995 c 0,0 9.89884,-0.90263 9.9891,-0.36105 0.0903,0.54158 -0.0301,0.0602 -0.0301,0.0602 l 0.0903,0.60175 c 0,0 -0.54158,-0.39114 -1.14334,-0.39114 -0.60175,0 -0.0301,0 -0.0301,0 0,0 -0.63184,-0.12035 -0.60176,0.45132 0.0301,0.57166 0.0301,0.33096 0.0301,0.33096 0,0 0.33096,2.76806 -0.39114,3.24946 -0.7221,0.48141 0,0.0301 0,0.0301 0,0 -0.21061,-0.12035 -0.21061,-0.63184 0,-0.51149 0,-1.38403 -0.12035,-2.70789 -0.12035,-1.32385 0,0.18053 0,0.18053 0,0 0.15044,-0.75219 -0.48141,-0.7221 -0.63184,0.0301 -4.122,0.33096 -4.122,0.33096 0,0 -0.0602,0.96281 -0.15044,2.04596 -0.0903,1.08316 -0.0301,1.29377 -0.0301,1.29377 0,0 0.30088,1.35394 -0.0903,1.86543 -0.39114,0.5115 0.0301,-0.15043 0.0301,-0.15043 0,0 -0.33096,0.36105 -0.36105,-0.36106 -0.0301,-0.7221 0.0602,-4.00166 0.0602,-4.00166 0,0 -0.0301,-0.54157 -0.2407,-0.54157 -0.21062,0 -2.31675,0.2407 -2.31675,0.2407 l -0.12035,-0.7221 z"
       id="path8771"
       inkscape:connector-curvature="0" />
    <path
       style="fill:#f5ffff;fill-rule:evenodd;stroke:none;stroke-width:0.26458332px;stroke-linecap:butt;stroke-linejoin:miter;stroke-opacity:1;fill-opacity:1"
       d="m 147.39943,150.41293 c 0,0 -0.0602,1.26368 0.0602,2.9185 0.12035,1.65483 0.0602,1.68491 0.0602,1.68491 0,0 0.30088,0.48141 0.42123,-1.47429 0.12035,-1.9557 -0.0301,0.0903 -0.0301,0.0903 0,0 -0.0301,-0.81237 -0.21061,-1.2035 -0.18053,-0.39114 0.0602,-1.89553 0.0602,-1.89553 0,0 -0.30087,-0.60175 -0.36105,-0.12035 z"
       id="path8773"
       inkscape:connector-curvature="0" />
  </g>
</svg>
