<?xml version="1.0" encoding="UTF-8" standalone="no"?>
<!-- Created with Inkscape (http://www.inkscape.org/) -->

<svg
   xmlns:dc="http://purl.org/dc/elements/1.1/"
   xmlns:cc="http://creativecommons.org/ns#"
   xmlns:rdf="http://www.w3.org/1999/02/22-rdf-syntax-ns#"
   xmlns:svg="http://www.w3.org/2000/svg"
   xmlns="http://www.w3.org/2000/svg"
   xmlns:sodipodi="http://sodipodi.sourceforge.net/DTD/sodipodi-0.dtd"
   xmlns:inkscape="http://www.inkscape.org/namespaces/inkscape"
   width="210mm"
   height="297mm"
   viewBox="0 0 210 297"
   version="1.1"
   id="svg5254"
   inkscape:version="0.92.2 5c3e80d, 2017-08-06"
   sodipodi:docname="hand-spatula.svg">
  <defs
     id="defs5248" />
  <sodipodi:namedview
     id="base"
     pagecolor="#ffffff"
     bordercolor="#666666"
     borderopacity="1.0"
     inkscape:pageopacity="0.0"
     inkscape:pageshadow="2"
     inkscape:zoom="1.0992187"
     inkscape:cx="198.49325"
     inkscape:cy="560"
     inkscape:document-units="mm"
     inkscape:current-layer="layer1"
     showgrid="false"
     inkscape:window-width="1920"
     inkscape:window-height="971"
     inkscape:window-x="0"
     inkscape:window-y="31"
     inkscape:window-maximized="1" />
  <metadata
     id="metadata5251">
    <rdf:RDF>
      <cc:Work
         rdf:about="">
        <dc:format>image/svg+xml</dc:format>
        <dc:type
           rdf:resource="http://purl.org/dc/dcmitype/StillImage" />
        <dc:title></dc:title>
      </cc:Work>
    </rdf:RDF>
  </metadata>
  <g
     inkscape:label="Layer 1"
     inkscape:groupmode="layer"
     id="layer1">
    <path
       d="m 162.7961,175.28631 c -0.0773,0 -0.12135,-0.20814 -0.12135,-0.60678 0,-0.39511 -0.0332,-0.84666 0.0441,-0.86783 0.0529,-0.0176 0.14323,0.68086 0.14323,0.93486 0,0.254 0.0113,0.53975 -0.066,0.53975 z m 0.35278,-1.87325 c -0.0109,-0.35278 -0.4632,-0.20814 -0.68368,-0.17639 -0.22049,0.0317 -0.12101,0.33161 -0.12101,0.53975 0,0 -0.0113,1.18181 -0.0113,1.64395 0,0.46213 0.45226,0.38452 0.67275,0.3175 0.22049,-0.0635 0.17639,-0.32809 0.1651,-0.60325 -0.0109,-0.2787 -0.0109,-1.36878 -0.0219,-1.72156 z m 0.45191,3.429 c -0.35278,0.24342 -1.56528,1.0795 -1.76389,1.30175 -0.19826,0.21872 -0.41875,0.5715 -0.41875,1.14653 0,0.5715 0.19826,1.91558 0.0441,1.91558 -0.15452,0 -0.48507,0.067 -0.48507,-0.0635 0,0 0.15416,-2.11667 -0.0882,-2.5153 -0.24271,-0.39512 -1.76388,-1.5875 -2.02847,-1.87325 -0.26458,-0.28575 -0.375,-0.86078 -0.39687,-1.23473 -0.0222,-0.37394 0.0441,-3.57364 0.39687,-3.81352 0.35278,-0.24342 2.71181,-0.15523 3.59375,-0.13406 0.88195,0.0212 1.38924,-0.0212 1.43334,0.72672 0.0441,0.75142 -0.0222,3.28789 -0.0222,3.66184 0,0.37394 0.0882,0.63852 -0.26458,0.88194 z m -1.74167,11.17953 c -0.0441,1.21003 0.0441,1.45344 -0.13229,1.45344 -0.17639,0 -0.44097,0.0882 -0.46319,-0.59619 -0.0219,-0.68086 0,-4.40972 0,-4.93889 0,-0.52917 -0.0219,-1.98261 0.15451,-2.04964 0.15699,-0.06 0.41875,0.0882 0.39688,0.75142 -0.0222,0.65969 0.0882,4.1663 0.0441,5.37986 z m 2.51355,-15.56809 c -0.0441,-1.30175 -0.59549,-1.41111 -1.25695,-1.47813 -0.66146,-0.0635 -3.19687,-0.1517 -4.01285,-0.0212 -0.81562,0.13405 -0.77152,0.52917 -0.88194,1.32292 -0.11007,0.79375 -0.066,3.72533 -0.0219,4.38855 0.0441,0.6597 0.28646,0.63853 0.61737,0.83608 0.33055,0.20109 1.60937,0.97014 1.65347,1.36878 0.0441,0.39511 0.0441,2.40242 0.0441,2.40242 -0.35278,-0.0212 -0.57326,0.508 -0.61736,1.23472 -0.0441,0.72672 0.0663,5.13645 0.0663,6.45936 0,1.32292 1.14653,1.1042 1.96215,1.14653 0.81598,0.0459 0.59549,-1.80622 0.61736,-3.30553 0.0222,-1.4993 -0.11006,-4.51908 -0.0882,-4.93889 0.0222,-0.4198 -0.48507,-0.61736 -0.48507,-0.61736 0,0 0.0882,-2.04964 0.13229,-2.55764 0.0441,-0.508 0.99237,-0.86077 1.52153,-1.21355 0.52917,-0.35278 0.72743,-0.81492 0.72743,-1.25589 0,-0.44097 0.0663,-2.46945 0.0222,-3.7712 z m -4.28872,3.08681 c -0.0991,-0.0106 -0.27552,-1.06892 -0.26459,-1.31233 0.005,-0.10936 -0.17639,-0.5715 -0.0109,-0.62795 0.16545,-0.0529 0.3309,-0.15522 0.30868,0.12347 -0.0219,0.27517 0,1.18887 0.0109,1.43228 0.0113,0.24342 0.0554,0.39511 -0.0441,0.38453 z m -0.66146,-2.31422 c -0.22049,0.13053 0.0222,1.59808 0.0554,2.18369 0.0328,0.58209 0.387,0.47625 0.51788,0.63853 0.0441,0.0564 0.15452,-0.0106 0.30868,-0.0212 0.15452,-0.0106 0.18768,-0.69497 0.18768,-1.05833 0,-0.36336 0,-1.35819 0.0219,-1.73214 0.0222,-0.37394 -0.87101,-0.14464 -1.09149,-0.0106 z m 2.19392,1.88383 c -0.0332,0.53975 -0.066,0.95956 -0.18732,0.94897 -0.12136,-0.0106 -0.14323,-0.7373 -0.15452,-1.36525 -0.0109,-0.63147 -0.0328,-1.83091 -0.0328,-1.83091 0,-0.14464 -0.0222,-0.19756 0.0991,-0.23284 0.12136,-0.0317 0.28646,-0.0529 0.26459,0.12348 -0.0222,0.17638 0.0441,1.8168 0.0109,2.35655 z m 0.35278,-2.70933 c 0.0109,-0.48684 -0.67239,-0.26459 -0.92604,-0.17639 -0.25365,0.0882 -0.23142,0.65969 -0.19826,1.0795 0.0328,0.4198 -0.0113,2.29305 0.055,2.78694 0.066,0.49742 0.33055,0.3422 0.47413,0.39864 0,0 0.19827,0.0212 0.35278,0.0106 0.15417,-0.0106 0.2533,-1.09009 0.2533,-1.71803 0,-0.63147 -0.0219,-1.89795 -0.0109,-2.38125"
       style="fill:#231f20;fill-opacity:1;fill-rule:nonzero;stroke:none;stroke-width:0.03527778"
       id="path128"
       inkscape:connector-curvature="0" />
  </g>
</svg>
