<?xml version="1.0" encoding="UTF-8" standalone="no"?>
<!-- Created with Inkscape (http://www.inkscape.org/) -->

<svg
   xmlns:dc="http://purl.org/dc/elements/1.1/"
   xmlns:cc="http://creativecommons.org/ns#"
   xmlns:rdf="http://www.w3.org/1999/02/22-rdf-syntax-ns#"
   xmlns:svg="http://www.w3.org/2000/svg"
   xmlns="http://www.w3.org/2000/svg"
   xmlns:sodipodi="http://sodipodi.sourceforge.net/DTD/sodipodi-0.dtd"
   xmlns:inkscape="http://www.inkscape.org/namespaces/inkscape"
   width="210mm"
   height="297mm"
   viewBox="0 0 210 297"
   version="1.1"
   id="svg7360"
   inkscape:version="0.92.2 5c3e80d, 2017-08-06"
   sodipodi:docname="pastaplate.svg">
  <defs
     id="defs7354">
    <inkscape:path-effect
       effect="simplify"
       id="path-effect7955"
       is_visible="true"
       steps="6"
       threshold="0.0039"
       smooth_angles="170"
       helper_size="5"
       simplify_individual_paths="false"
       simplify_just_coalesce="false" />
    <inkscape:path-effect
       effect="simplify"
       id="path-effect7953"
       is_visible="true"
       steps="5"
       threshold="0.0027"
       smooth_angles="0"
       helper_size="5"
       simplify_individual_paths="false"
       simplify_just_coalesce="false" />
  </defs>
  <sodipodi:namedview
     id="base"
     pagecolor="#ffffff"
     bordercolor="#666666"
     borderopacity="1.0"
     inkscape:pageopacity="0.0"
     inkscape:pageshadow="2"
     inkscape:zoom="0.77726503"
     inkscape:cx="230.85855"
     inkscape:cy="418.47813"
     inkscape:document-units="mm"
     inkscape:current-layer="layer5"
     showgrid="false"
     inkscape:window-width="1920"
     inkscape:window-height="971"
     inkscape:window-x="0"
     inkscape:window-y="31"
     inkscape:window-maximized="1" />
  <metadata
     id="metadata7357">
    <rdf:RDF>
      <cc:Work
         rdf:about="">
        <dc:format>image/svg+xml</dc:format>
        <dc:type
           rdf:resource="http://purl.org/dc/dcmitype/StillImage" />
        <dc:title></dc:title>
      </cc:Work>
    </rdf:RDF>
  </metadata>
  <g
     inkscape:groupmode="layer"
     id="layer5"
     inkscape:label="Layer 1"
     style="display:inline">
    <path
       style="fill:#e4ba21;fill-opacity:1;stroke:none;stroke-width:0.26458332;stroke-opacity:1"
       id="path7971"
       d="m 146.33008,158.03255 c -0.73025,0.53378 -1.30291,1.2536 -2.007,1.82239 -0.39997,0.49737 -0.90243,0.86478 -1.38467,1.28099 -0.70942,0.40819 0.0476,-0.0654 -0.51986,0.39813 -0.0842,0.0688 -0.19245,0.10492 -0.27429,0.17649 -0.0698,0.061 -0.10631,0.15395 -0.17489,0.21636 -0.45466,0.41379 -0.0704,-0.0858 -0.39049,0.37479 -0.66219,0.453 0.13668,-0.1378 -0.35722,0.3589 -0.0631,0.0634 -0.15961,0.0865 -0.22238,0.15028 -0.0543,0.0551 -0.0664,0.14322 -0.12081,0.19823 -0.43592,0.44072 -0.0433,-0.14665 -0.33892,0.34305 -0.0734,0.0484 -0.15832,0.0828 -0.2203,0.14522 -0.0537,0.054 -0.0644,0.14156 -0.11815,0.19553 -0.26786,0.26903 -0.6461,0.36462 -0.90882,0.63913 -0.64403,0.37585 0.0693,-0.0831 -0.41439,0.35046 -0.0699,0.0627 -0.16868,0.0879 -0.23678,0.15251 -0.0585,0.0555 -0.0776,0.14431 -0.13538,0.20057 -0.43114,0.41972 -0.0557,-0.12139 -0.34955,0.34972 -0.43942,0.3433 -0.97754,0.55645 -1.32245,0.99914 -0.0788,0.0509 -0.15757,0.1018 -0.23635,0.1527 -0.0968,0.0363 -0.2017,0.0559 -0.29049,0.10887 -0.0682,0.0407 -0.10549,0.12086 -0.17059,0.16637 -0.0746,0.0522 -0.17284,0.0663 -0.24382,0.12332 -0.68648,0.55188 0.50773,-0.2061 -0.35799,0.31551 -0.0936,0.0316 -0.19527,0.0453 -0.28084,0.0947 -0.0648,0.0374 -0.0973,0.11606 -0.15865,0.15891 -0.37774,0.26371 -0.094,-0.0224 -0.52324,0.1999 -0.0659,0.0341 -0.10927,0.10039 -0.16391,0.15058 -0.0791,0.0373 -0.15826,0.0747 -0.2374,0.112 -0.12342,0.28799 -0.395,0.26477 -0.62499,0.39789 -0.0642,0.0371 -0.0957,0.11559 -0.15634,0.15826 -0.16281,0.11456 -0.33288,0.14565 -0.52022,0.20015 -0.16406,0.25013 -0.4517,0.22443 -0.68493,0.34338 -0.0658,0.0336 -0.10224,0.10865 -0.16418,0.14893 -0.16804,0.10929 -0.32909,0.13748 -0.5195,0.19089 -0.43042,0.34702 -1.0012,0.45028 -1.48724,0.71892 -0.66001,0.2117 -1.17595,0.67192 -1.81794,0.91248 -0.59466,0.35665 -1.26819,0.53404 -1.89195,0.82328 -0.45831,0.0762 -0.82855,0.34363 -1.25371,0.49667 -0.45142,0.16249 -0.17991,-0.0119 -0.50598,0.2443 -0.50751,0.29518 -1.14447,0.34529 -1.62763,0.6688 -0.59262,0.2086 -1.1953,0.40979 -1.81162,0.54544 -0.31756,0.28759 -0.75298,0.2643 -1.12611,0.39925 -0.15945,0.0577 -0.29623,0.16707 -0.45353,0.2304 -0.18504,0.0993 -0.40497,0.0572 -0.59661,0.12469 -0.0718,0.0253 -0.12324,0.0904 -0.19102,0.12496 -0.25961,0.13239 -0.54965,0.17074 -0.83294,0.21644 -0.43603,0.38441 -1.06969,0.22693 -1.54525,0.48435 -0.35535,0.20045 -0.78396,0.12996 -1.15948,0.23069 -0.15915,0.0427 -0.29828,0.14157 -0.45376,0.19612 -0.62071,0.0766 -1.2064,0.26365 -1.81818,0.38338 -0.63889,0.0319 -1.1981,0.30584 -1.82664,0.4045 -0.60103,0.004 -1.12398,0.25902 -1.71492,0.34554 -0.10629,0.0104 -0.21567,0.004 -0.31887,0.0312 -0.15867,0.0423 -0.29434,0.1502 -0.45216,0.19558 -0.28853,0.083 -0.55849,0.0997 -0.83762,0.21582 -0.30768,0.14768 -0.66904,0.11821 -0.98701,0.21519 -0.27427,0.0837 -0.49013,0.22004 -0.80572,0.29975 -0.65294,0.0793 -1.26559,0.29147 -1.91821,0.38656 -0.11864,0.0124 -0.24003,0.009 -0.35592,0.037 -0.17793,0.0434 -0.3358,0.1495 -0.51214,0.19894 -0.30562,0.0857 -0.61826,0.11827 -0.93266,0.15111 -0.11033,0.008 -0.22308,-0.002 -0.33101,0.0225 -0.16397,0.0366 -0.30772,0.13854 -0.46998,0.18213 -0.29734,0.0799 -0.60248,0.1079 -0.90767,0.13775 -0.1091,0.007 -0.22059,-0.003 -0.32733,0.021 -0.16281,0.0361 -0.305317,0.13786 -0.466387,0.18109 -0.297157,0.0798 -0.602157,0.10779 -0.907134,0.13771 -0.651427,0.10146 -1.290614,0.26157 -1.954331,0.32823 -0.423587,0.18735 -0.894694,0.19249 -1.336381,0.2993 -0.21649,0.0523 -0.422957,0.14039 -0.637537,0.20007 -0.704957,0.12052 -1.369501,0.36104 -2.077058,0.47551 -0.61284,0.32699 -1.3589,0.2185 -1.97456,0.49437 -0.371611,0.20305 -0.816101,0.13913 -1.207282,0.24441 -0.160515,0.0432 -0.301154,0.14217 -0.457896,0.19752 -0.619458,0.0776 -1.204092,0.26454 -1.814845,0.38415 -0.638527,0.032 -1.197338,0.30575 -1.825554,0.40433 -0.108183,0.0114 -0.21825,0.0109 -0.324549,0.034 -0.196524,0.0427 -0.381148,0.13085 -0.577241,0.17548 -0.337029,0.0767 -0.655587,0.10596 -0.982181,0.22302 -0.691951,0.13654 -1.356934,0.35778 -2.04529,0.50722 -0.121041,0.0196 -0.244229,0.0287 -0.363125,0.0587 -0.104669,0.0264 -0.203144,0.073 -0.304715,0.10956 -0.112972,0.0318 -0.225012,0.0672 -0.338918,0.0956 -0.341873,0.085 -0.65197,0.10226 -0.968499,0.26087 -0.373163,0.21935 -0.82513,0.1606 -1.222653,0.27013 -0.161893,0.0446 -0.303911,0.14433 -0.46219,0.20043 -0.285499,0.12451 -0.618662,0.0661 -0.910519,0.1448 -0.07471,0.0201 -0.13386,0.0784 -0.204843,0.10922 -0.202988,0.0881 -0.312073,0.10191 -0.530037,0.15186 -0.647618,0.1116 -1.307012,0.11774 -1.962301,0.12638 -0.682527,0.005 -1.36508,0.002 -2.047615,1.2e-4 -0.693354,-0.0217 -1.392013,0.0564 -2.07581,-0.0716 -0.59382,-0.17305 -1.216141,-0.17258 -1.811732,-0.32328 -0.672544,-0.15083 -1.346602,-0.24836 -2.016067,-0.41232 -0.639497,-0.15508 -1.297045,-0.18951 -1.95196,-0.21021 -0.592416,-0.14659 -1.186207,-0.26002 -1.794518,-0.30946 -0.529799,-0.034 -1.060911,-0.0362 -1.591572,-0.0392 0,0 5.2036,-10.18613 5.2036,-10.18613 v 0 c 0.564012,0.009 1.128882,0.0188 1.690341,0.0782 0.583803,0.0716 1.153673,0.20749 1.734354,0.29232 0.719357,0.0474 1.436219,0.12966 2.135902,0.31078 0.658228,0.15042 1.330809,0.22576 1.987619,0.38538 0.586578,0.0784 1.171212,0.16094 1.75097,0.28157 0.643162,0.0345 1.288621,0.001 1.932408,0.0146 0.671891,5.3e-4 1.344067,0.003 2.01562,-0.0213 0.583078,-0.0302 1.170929,-0.0717 1.726691,-0.26612 0.529985,-0.17569 1.085258,-0.21846 1.607077,-0.42511 0.55825,-0.15855 1.141825,-0.22681 1.683755,-0.45312 0.68652,-0.12131 1.348211,-0.34331 2.031413,-0.48144 0.672862,-0.18731 1.355976,-0.32636 2.027909,-0.51798 0.652479,-0.12525 1.290149,-0.31063 1.944466,-0.4255 0.597387,-0.16559 1.193967,-0.28697 1.803367,-0.39919 0.58191,-0.15349 1.177767,-0.24026 1.745944,-0.44309 0.561887,-0.15255 1.149661,-0.21072 1.702998,-0.40754 0.691227,-0.0924 1.349864,-0.30128 2.029031,-0.45147 0.671134,-0.16606 1.337891,-0.34547 2.010608,-0.50493 0.693947,-0.18032 1.404387,-0.31449 2.109707,-0.43936 0.64948,-0.11096 1.28626,-0.28411 1.94282,-0.35241 0.56708,-0.1226 1.11723,-0.30789 1.70094,-0.33988 0.56712,-0.12282 1.1173,-0.3083 1.70056,-0.34443 0.58974,-0.13277 1.16138,-0.33227 1.7669,-0.38879 0.60777,-0.1431 1.21661,-0.28443 1.81622,-0.45506 0.58679,-0.20834 1.20118,-0.29907 1.78815,-0.51113 0.57386,-0.12499 1.12243,-0.33899 1.70947,-0.40179 0.56506,-0.15075 1.12742,-0.25156 1.7035,-0.34776 0.59781,-0.16563 1.19482,-0.28701 1.80469,-0.39904 0.5826,-0.15331 1.1794,-0.23942 1.74773,-0.44386 0.53779,-0.14869 1.10062,-0.20361 1.62193,-0.42223 0.55886,-0.0834 1.04582,-0.3349 1.59239,-0.4587 0.49788,-0.18444 0.99466,-0.34486 1.48992,-0.53186 0.5479,-0.21045 1.12169,-0.37329 1.67912,-0.55722 0.56128,-0.19121 1.13057,-0.35345 1.65726,-0.63191 0.55673,-0.16608 1.07573,-0.43481 1.59513,-0.69166 0.61541,-0.18715 1.20558,-0.46042 1.80946,-0.68266 0.63752,-0.24153 1.23398,-0.57276 1.85012,-0.86266 0.58008,-0.35284 1.20217,-0.61262 1.81318,-0.9074 0.52893,-0.22038 1.02218,-0.50161 1.54566,-0.72277 0.42572,-0.26973 0.88133,-0.47937 1.33055,-0.70226 0.20586,-0.15497 0.40559,-0.25288 0.62114,-0.38552 0.21254,-0.1308 0.33927,-0.3689 0.61486,-0.40282 0.40828,-0.26107 0.87137,-0.44655 1.23209,-0.776 0.37773,-0.33392 0.88288,-0.48985 1.20482,-0.89649 0.46229,-0.28183 0.89613,-0.62132 1.2402,-1.04328 0.43673,-0.30361 0.81458,-0.68595 1.25455,-0.98863 0.43375,-0.27425 0.75348,-0.69228 1.09789,-1.06027 0.39679,-0.30063 0.71304,-0.69546 1.09438,-1.01653 0.49367,-0.33752 0.94612,-0.74316 1.40853,-1.12136 0.46692,-0.40794 0.87834,-0.86573 1.35855,-1.25821 0.64412,-0.64017 1.34006,-1.22932 1.96413,-1.88879 0,0 -4.38472,10.58568 -4.38472,10.58568 z"
       inkscape:connector-curvature="0" />
    <path
       style="fill:#e4ba21;fill-opacity:1;stroke:none;stroke-width:0.26458332;stroke-opacity:1"
       id="path7979"
       d="m 45.690456,139.38008 c 0.715238,0.51458 1.526791,0.87046 2.300187,1.2846 0.521369,0.27006 1.06525,0.49687 1.5807,0.77741 0.443614,0.19879 0.89766,0.39017 1.362438,0.53919 0.484846,0.26421 1.011872,0.42189 1.532781,0.59697 0.605499,0.10902 1.190355,0.2781 1.78684,0.42724 0.585441,0.0516 1.139714,0.2087 1.70893,0.34398 0.621689,0.0575 1.218526,0.21696 1.829417,0.33811 0.629467,0.0419 1.216856,0.27105 1.832948,0.38565 0.55576,0.1017 1.079815,0.3013 1.644089,0.37647 0.571366,0.0774 1.11464,0.26916 1.690545,0.34131 0.537189,0.0433 1.037836,0.26137 1.571376,0.33943 0.527087,0.21378 1.08248,0.31082 1.645542,0.36258 0.486944,0.0276 0.974979,0.0297 1.462566,0.0343 0.666356,-0.0242 1.307799,-5.3e-4 1.958076,0.14454 0.572553,0.13662 1.16078,0.16727 1.746633,0.18841 0.70144,-0.0317 1.377649,0.16388 2.067886,0.25901 0.656489,0.0793 1.318487,0.0873 1.978834,0.0941 0.677543,0.004 1.355101,0.002 2.032649,5.3e-4 0.680937,-0.001 1.361874,-0.001 2.04281,-0.001 0.680866,-1.2e-4 1.361731,-1e-4 2.042597,-1e-4 0.680807,1e-5 1.361615,2e-5 2.042422,2e-5 0.680805,0 1.361612,0 2.042417,0 0.680804,0 1.361611,0 2.042416,0 0.680807,0 1.361612,0 2.042419,0 0.680805,0 1.361612,0 2.042417,0 0.680807,0 1.361612,0 2.042419,0 0.680805,0 1.361612,0 2.042417,0 0.680807,0 1.361612,0 2.042419,0 0.446916,-0.0484 0.916861,0.0636 1.361612,0 0.169151,-0.0242 0.324231,-0.10828 0.48836,-0.15582 0.619672,-0.1448 1.259022,-0.16129 1.892312,-0.17838 0.68057,-0.0126 1.3613,-0.01 2.04194,-0.009 0.67066,0.0534 1.30828,-0.1526 1.96871,-0.24003 0.69989,-0.0807 1.40503,-0.0909 2.1087,-0.0984 0.54862,-0.2247 1.13912,-0.27376 1.72422,-0.31174 0.44315,-0.0618 0.90247,0.0231 1.34467,-0.0303 0.20283,-0.0245 0.397,-0.097 0.5969,-0.13919 0.69404,-0.13521 1.40124,-0.16853 2.1062,-0.18993 0.51742,-0.0342 1.03589,-0.0248 1.55387,-0.0338 0.35329,-7e-5 0.70657,0.002 1.05953,-0.0161 0.27883,7.9e-4 0.55745,0.004 0.83619,0.0133 0.0607,-2.6e-4 0.12438,0.018 0.182,-0.001 0.0404,-0.0133 0.0537,-0.0693 0.0914,-0.089 0.30016,-0.15685 0.7366,-0.14454 1.06377,-0.17316 0.67679,-0.0476 1.35565,-0.0496 2.03377,-0.0523 0.11455,-1.3e-4 0.23024,0.0157 0.34366,-5.3e-4 0.17074,-0.0242 0.32599,-0.11438 0.49357,-0.1551 0.29745,-0.0723 0.59917,-0.10241 0.90299,-0.13206 0.66931,-0.0507 1.34106,-0.0512 2.01188,-0.0535 0.63262,0.007 1.26503,-0.009 1.89759,-0.008 0.6213,0.004 1.2426,0.007 1.86391,0.009 0.67599,0.002 1.35198,0.002 2.02796,0.002 0.68143,6e-5 1.36286,1e-5 2.04429,-2e-5 0.68092,-2e-5 1.36184,-2e-5 2.04277,-3e-5 0.6808,0 1.3616,0 2.0424,0 0.68081,0 1.36161,0 2.04242,0 0.6808,0 1.36161,0 2.04241,0 0.11347,0 0.22808,0.0161 0.34041,0 0.16915,-0.0242 0.32246,-0.1149 0.48836,-0.15582 0.2962,-0.073 0.59687,-0.10337 0.89961,-0.13331 0.66902,-0.0514 1.34053,-0.052 2.0111,-0.0544 0.11369,-8e-5 0.22853,0.0159 0.34108,-2.3e-4 0.16957,-0.0242 0.32349,-0.11456 0.48992,-0.15508 0.29695,-0.0723 0.59832,-0.10216 0.90165,-0.13171 0.6693,-0.0506 1.34101,-0.0511 2.01181,-0.0534 0.68217,-5.3e-4 1.36434,0.001 2.0465,0.002 0.45427,5.3e-4 0.22715,2.5e-4 0.68136,5.3e-4 0,0 -5.19304,10.18962 -5.19304,10.18962 v 0 c -0.4544,-5.3e-4 -0.2272,-2.3e-4 -0.68162,-7.9e-4 -0.67816,-8e-4 -1.35637,-0.003 -2.03449,0.006 -0.63126,0.0123 -1.26513,0.027 -1.88946,0.13018 -0.61592,0.11288 -1.2216,0.26495 -1.85475,0.21041 -0.63065,0.0126 -1.26394,0.0276 -1.88751,0.13186 -0.61865,0.11437 -1.2269,0.26692 -1.8631,0.20422 -0.6808,0 -1.36161,0 -2.04241,0 -0.68081,0 -1.36161,10e-6 -2.04241,10e-6 -0.68081,0 -1.36161,0 -2.04241,-10e-6 -0.68091,0 -1.36182,0 -2.04273,-2e-5 -0.68143,-2e-5 -1.36286,-7e-5 -2.04429,0 -0.67673,1.3e-4 -1.35347,2.7e-4 -2.03021,0.002 -0.62451,0.002 -1.24902,0.005 -1.87353,0.007 -0.625,-0.001 -1.24985,-0.02 -1.87489,-0.004 -0.63131,0.0123 -1.2652,0.027 -1.88961,0.13008 -0.61821,0.113 -1.22636,0.26459 -1.86174,0.20987 -0.63784,0.0122 -1.27892,0.0252 -1.90917,0.13397 -0.50125,0.10232 -0.98102,0.29553 -1.50145,0.23022 -0.28399,0.009 -0.56786,0.0126 -0.85194,0.0123 -0.34562,-0.0197 -0.69174,-0.0189 -1.03779,-0.02 -0.4946,-0.008 -0.98953,0.004 -1.48404,0.0131 -0.66497,0.0426 -1.32532,0.12183 -1.97937,0.25185 -0.66937,0.0916 -1.34658,0.0598 -2.01703,0.1473 -0.60155,0.0872 -1.19116,0.27328 -1.80319,0.25837 -0.66136,0.0193 -1.32372,0.0509 -1.97714,0.16229 -0.703677,0.11673 -1.403659,0.21232 -2.119962,0.16623 -0.664785,0.002 -1.330135,0.001 -1.994035,0.0401 -0.590201,0.0444 -1.172821,0.12955 -1.749603,0.26454 -0.676013,0.0834 -1.361138,0.017 -2.041014,0.038 -0.680805,0 -1.361612,0 -2.042416,0 -0.680808,0 -1.361612,0 -2.04242,0 -0.680804,0 -1.361612,0 -2.042416,0 -0.680808,0 -1.361612,0 -2.04242,0 -0.680804,0 -1.361612,0 -2.042416,0 -0.680808,0 -1.361612,0 -2.04242,0 -0.680807,0 -1.361611,0 -2.042419,0 -0.680804,-1e-5 -1.361609,-2e-5 -2.042411,-1e-5 -0.680744,1e-5 -1.361485,1e-5 -2.042226,2.6e-4 -0.680675,2.6e-4 -1.36135,0.001 -2.042025,0.002 -0.684387,5.3e-4 -1.368864,0.003 -2.053154,-0.0111 -0.705487,-0.0194 -1.411957,-0.052 -2.109933,-0.16381 -0.654846,-0.10572 -1.304123,-0.21812 -1.971063,-0.19985 -0.639062,-0.0401 -1.275491,-0.10847 -1.900698,-0.2523 -0.583184,-0.0965 -1.175711,-0.0323 -1.764451,-0.0457 -0.532241,-5.3e-4 -1.06835,0.005 -1.593826,-0.0931 -0.577001,-0.0954 -1.141553,-0.24068 -1.708187,-0.38212 -0.509209,-0.11297 -0.99948,-0.30658 -1.524757,-0.34031 -0.572008,-0.10021 -1.124995,-0.27995 -1.702652,-0.34658 -0.571248,-0.1083 -1.117491,-0.30175 -1.690087,-0.40107 -0.605253,-0.14094 -1.198702,-0.32475 -1.81874,-0.39649 -0.625163,-0.13158 -1.255985,-0.21119 -1.881198,-0.34061 -0.571111,-0.14655 -1.148125,-0.23257 -1.724025,-0.3569 -0.612426,-0.17128 -1.231524,-0.30034 -1.844395,-0.46871 -0.525965,-0.1732 -1.062926,-0.31917 -1.552151,-0.58596 -0.521423,-0.18868 -1.046803,-0.38236 -1.539963,-0.63523 -0.510315,-0.29293 -1.058629,-0.5199 -1.564301,-0.82304 -0.775613,-0.46762 -1.584957,-0.88242 -2.389402,-1.29802 0,0 5.791552,-9.88371 5.791552,-9.88371 z"
       inkscape:connector-curvature="0" />
  </g>
  <g
     inkscape:groupmode="layer"
     id="layer6"
     inkscape:label="Layer 2"
     style="display:inline"
     sodipodi:insensitive="true">
    <path
       style="fill:#cc7421;fill-opacity:1;stroke-width:0.99999994"
       d="m 71.454497,195.00367 c -3.972688,-1.08458 -6.437977,-4.35138 -8.778165,-7.49069 -2.998717,-4.02271 -4.738741,-8.84753 -7.638296,-12.90928 -2.619824,-3.6699 -6.337444,-6.29294 -10.250291,-8.47128 -3.224198,-1.79496 -5.533707,-4.73955 -8.346619,-7.04055 -4.290106,-3.50936 -9.95704,-5.25567 -13.690228,-9.35055 -2.562292,-2.81054 0.197457,-5.01275 3.580384,-6.34068 3.793999,-1.48929 7.559783,-3.01568 11.458937,-4.25078 8.009588,-2.53712 16.4955,-1.88175 24.764835,-2.68577 7.117696,-0.69205 14.223372,0.18584 21.312535,0.95749 6.545474,0.71247 14.376248,-2.97243 19.706841,0.87799 3.4673,2.50452 -2.85232,3.32385 -4.671969,2.75387 -4.907092,0.50045 -9.880019,0.88902 -14.780605,0.26453 -4.853432,0.60654 -9.643191,1.63834 -14.594008,1.49299 -4.804976,-0.14107 -9.833282,2.33813 -14.342568,0.67689 -1.977967,-0.72869 -7.339344,2.98653 -2.988857,2.72181 3.800485,-0.23125 7.367837,0.56338 11.141646,1.02383 8.444598,1.03035 16.827134,-1.00758 25.323509,-0.42997 5.560546,0.37802 11.109985,-0.33106 16.687642,-0.42791 11.48608,-0.19945 23.52378,3.0515 34.46647,-0.4604 4.00189,-1.28435 -1.44482,-1.42733 -2.92683,-1.63572 -5.4484,-0.76612 -10.78998,-2.6374 -16.37565,-2.03472 -2.56142,0.27637 -8.29395,1.42765 -7.46187,-1.68963 0.96387,-3.61103 6.94378,-2.48464 10.00153,-2.3193 12.65745,0.68443 25.35565,-0.10245 38.0283,0.556 6.30259,0.32747 12.32753,2.39043 18.57358,3.38638 3.07897,0.49095 3.35646,3.91284 2.01907,6.23374 -2.52288,4.3782 -7.57512,5.97618 -11.21543,9.21494 -4.04695,3.60054 -7.00787,8.13799 -10.62873,12.21551 -4.1191,4.6386 -7.15657,10.15926 -11.35883,14.74717 -2.53014,2.76234 -6.01756,4.48447 -9.34818,6.07189 -3.86103,1.84022 -8.05999,0.45255 -12.11151,1.04239 -5.63482,0.82034 -11.24199,2.47818 -16.983,1.86937 -7.38614,0.63459 -14.834891,2.3492 -22.242589,0.9952 -4.466691,0.0221 -8.852747,1.30672 -13.335001,0.94288 -1.016104,0.0175 -2.062667,-0.0742 -2.996053,-0.50764 z m 35.916513,-6.34213 c 6.71974,0.1355 13.46782,0.79476 20.15109,-0.27681 5.10564,-0.81862 11.54828,0.85563 15.25552,-2.80142 4.12226,-4.06645 11.56087,-7.28421 11.33644,-13.21569 -0.16153,-4.26918 3.45196,-6.97811 5.99128,-9.84335 2.5476,-2.87458 8.29908,-5.16219 7.32487,-8.90568 -0.92604,-3.55838 -5.37144,-2.75408 -7.80043,-1.44713 -5.29876,2.85107 -10.90527,5.20477 -16.83681,6.36059 -4.07207,-0.45513 -7.06908,3.23882 -10.90519,4.18648 -4.85372,1.19905 -9.20116,3.80816 -13.8809,5.50264 -3.28204,1.18839 -6.68268,1.81905 -9.73224,3.91994 -3.17972,2.19056 -6.71267,3.56922 -10.520882,4.32262 -3.570851,0.70644 -6.920218,1.41572 -10.44387,2.7395 -3.403067,1.27848 -6.551186,2.46379 -10.073841,3.82885 -2.988129,1.15793 -2.916893,3.30588 0.368337,3.91242 3.607189,0.66598 7.273518,1.06439 10.928713,1.294 6.27005,0.39386 12.556263,0.56724 18.837913,0.42304 z"
       id="path7339"
       inkscape:connector-curvature="0"
       inkscape:path-effect="#path-effect7955"
       inkscape:original-d="m 71.454497,195.00367 c -0.7636,-0.28085 -2.03408,-0.96186 -2.82326,-1.51336 l -1.43487,-1.00271 -0.14256,-0.71275 c -0.13735,-0.68681 -1.37124,-2.077 -1.84346,-2.077 -0.12631,0 -1.22826,-1.04181 -2.44879,-2.31511 l -2.21918,-2.31511 -0.27492,-1.05833 c -0.48308,-1.85958 -1.17031,-2.92429 -2.96884,-4.5995 l -0.72761,-0.67771 v -0.87113 -0.87114 l -0.85144,-1.51734 c -0.46828,-0.83454 -1.45055,-2.08191 -2.18281,-2.77195 -0.73226,-0.69002 -2.15739,-2.0408 -3.16697,-3.00171 l -1.83558,-1.74713 -2.206146,-1.01924 c -2.78722,-1.2877 -4.10403,-2.28885 -8.00225,-6.08396 l -3.1354,-3.05248 -2.20814,-1.13727 c -1.21447,-0.62549 -2.56532,-1.47664 -3.00189,-1.89143 -1.12517,-1.06906 -3.89153,-2.90351 -4.37964,-2.90425 -0.60533,-9.3e-4 -2.63181,-1.56852 -2.63181,-2.03585 0,-0.36518 -0.63546,-1.30486 -1.71013,-2.52885 l -0.40654,-0.46302 h 0.34698 c 0.97119,0 1.81799,-1.44396 0.97594,-1.66416 -0.29105,-0.0761 -0.52917,-0.33289 -0.52917,-0.57063 v -0.43224 l 1.12448,0.0328 c 0.61846,0.018 1.70267,-0.095 2.40934,-0.25124 l 1.28487,-0.28403 0.90715,-0.7965 0.90716,-0.79649 h 1.60445 1.60445 l 0.96603,-0.44047 c 0.53132,-0.24225 1.20415,-0.64246 1.49519,-0.88934 0.5969,-0.50633 3.9513,-1.7157 5.55625,-2.00322 0.58209,-0.10427 1.41553,-0.33661 1.85209,-0.5163 1.07022,-0.4405 6.575936,-0.94389 10.389826,-0.94994 1.70716,-0.003 5.18751,-0.23504 7.73413,-0.51628 5.52355,-0.61002 11.14857,-0.80057 14.4198,-0.48849 3.55899,0.33954 9.31365,1.01294 11.1125,1.30036 0.87312,0.1395 4.80219,0.31965 8.73125,0.40032 8.479493,0.1741 9.618403,0.26304 10.842443,0.84674 l 0.93152,0.44421 v 0.58415 c 0,0.78081 -0.429,0.90508 -3.13051,0.90682 -1.26139,8.2e-4 -2.724753,0.12128 -3.251913,0.2677 -0.52715,0.14643 -3.13548,0.36351 -5.79631,0.4824 l -4.83788,0.21617 -1.93642,-0.30377 -1.9364,-0.30378 -2.05685,0.34939 c -1.13128,0.19217 -2.41404,0.48042 -2.8506,0.64057 -1.07636,0.39484 -8.25617,0.85282 -12.23016,0.78013 l -3.23432,-0.0592 -0.94587,0.31216 -0.94584,0.31216 -2.96358,-0.002 c -1.62996,-0.001 -3.91606,0.10253 -5.08023,0.2309 l -2.11668,0.23339 -1.51013,0.73648 c -0.83058,0.40506 -1.51519,0.86808 -1.52136,1.02894 l -0.0112,0.29247 1.71364,0.16002 c 0.94251,0.088 2.85542,0.0972 4.25092,0.0205 l 2.5373,-0.13956 0.31313,0.25458 c 0.17222,0.14002 1.22319,0.32373 2.33548,0.40825 1.11229,0.0845 2.60058,0.3501 3.30729,0.59019 l 1.28496,0.43652 2.9104,-0.18855 c 1.60074,-0.1037 3.98199,-0.21702 5.29168,-0.25182 1.30969,-0.0348 3.39327,-0.21504 4.6302,-0.40054 l 2.24897,-0.33727 5.15937,0.16039 c 2.83765,0.0882 7.24297,0.23462 9.78958,0.32535 l 4.6302,0.16495 2.645833,-0.45682 2.64585,-0.45682 6.0854,0.0818 c 5.99099,0.0805 15.23777,0.0285 23.54792,-0.1324 l 4.23333,-0.082 0.74483,-0.3047 c 0.40966,-0.16758 1.27286,-0.3047 1.91823,-0.3047 0.64537,0 1.1734,-0.11346 1.1734,-0.25214 0,-0.36068 -1.77096,-0.80298 -3.222,-0.80471 -1.65511,-0.002 -5.0657,-0.46622 -6.69987,-0.91198 -0.72761,-0.19848 -2.73376,-0.62593 -4.45812,-0.94991 l -3.1352,-0.58905 -2.68563,0.20893 c -1.4771,0.11492 -3.70125,0.20152 -4.94258,0.19246 l -2.25697,-0.0165 -1.08462,-0.56534 c -1.34175,-0.69936 -2.01625,-1.41985 -1.89903,-2.02852 l 0.0894,-0.46445 1.71969,-0.3524 c 0.94583,-0.19382 2.315,-0.47999 3.0426,-0.63594 l 1.32292,-0.28353 6.87916,0.28477 c 3.78355,0.15662 7.29589,0.34866 7.80521,0.42675 0.50933,0.0781 6.16479,0.19192 12.56771,0.25294 l 11.64167,0.11094 1.1817,-0.2647 1.1817,-0.2647 4.37455,0.42085 c 6.81815,0.65594 8.78156,0.90169 9.10352,1.13944 0.16396,0.12108 0.95296,0.37726 1.75332,0.56929 0.80036,0.19203 2.16958,0.61452 3.04271,0.93888 0.87312,0.32435 2.16403,0.72789 2.86868,0.89676 2.31335,0.55438 2.5518,1.50988 1.20947,4.8466 l -0.81949,2.03705 -1.24668,1.13795 c -2.30765,2.10637 -4.87839,3.97827 -5.97806,4.35296 -1.14065,0.38866 -1.90774,1.01215 -3.75315,3.05057 -0.60755,0.6711 -1.94335,1.89782 -2.96844,2.72606 -1.02508,0.82823 -2.28657,2.06096 -2.8033,2.7394 -0.51673,0.67845 -1.53242,1.99521 -2.25708,2.92616 -0.72467,0.93093 -1.31758,1.8919 -1.31758,2.13547 0,0.24358 -0.50601,0.97268 -1.12448,1.62024 -0.61846,0.64756 -1.32966,1.49327 -1.58045,1.87935 -0.25078,0.38609 -0.69654,0.77833 -0.99057,0.87165 -0.29403,0.0933 -1.07988,1.0126 -1.74635,2.04285 -0.66646,1.03024 -1.38976,2.05119 -1.60734,2.26876 -0.21757,0.21758 -0.59146,0.70631 -0.83085,1.08608 -0.23939,0.37976 -1.15392,1.56988 -2.0323,2.64472 -0.87837,1.07483 -1.89469,2.56311 -2.25849,3.30729 l -0.66146,1.35305 -0.79375,0.37101 c -0.43656,0.20405 -1.13031,0.65054 -1.54165,0.99219 -0.41135,0.34165 -0.91702,0.62117 -1.12372,0.62117 -0.2067,0 -0.84816,0.42674 -1.42547,0.94831 l -1.04966,0.94831 -1.79538,0.6651 c -0.98745,0.36581 -2.41646,0.89166 -3.17556,1.16854 l -1.3802,0.50344 -1.67933,-0.23783 c -0.92363,-0.1308 -2.20754,-0.18666 -2.85314,-0.12414 -0.64559,0.0625 -2.24537,0.15378 -3.55505,0.20279 -1.30969,0.049 -2.8575,0.23062 -3.43959,0.40357 -4.05151,1.20383 -10.69437,1.92307 -13.65087,1.47802 l -1.21545,-0.18296 -1.0335,0.30143 c -0.56843,0.16579 -2.81945,0.48361 -5.00226,0.70626 -2.18281,0.22265 -4.921253,0.50371 -6.085423,0.62456 -2.23845,0.23236 -2.95645,0.2065 -7.80521,-0.28113 l -3.04271,-0.306 -2.51354,0.45779 -2.51354,0.45779 -4.23333,0.0996 -4.23333,0.0996 z m 35.916513,-6.34213 c 0.9459,0.007 2.01746,0.022 2.38125,0.0342 0.36381,0.0122 2.50693,-0.12204 4.7625,-0.29834 4.65541,-0.36386 10.20398,-0.44231 11.77396,-0.16647 l 1.05833,0.18595 2.24896,-0.41312 c 1.23693,-0.22722 3.14193,-0.66425 4.23333,-0.97118 2.02223,-0.5687 6.23094,-1.30617 7.97987,-1.39827 l 0.96841,-0.051 1.67742,-1.62436 c 0.92259,-0.89339 2.09415,-1.99555 2.60347,-2.44922 2.5544,-2.27532 5.72459,-6.19997 6.63663,-8.21607 l 0.41892,-0.92604 -0.1054,-0.92605 -0.10541,-0.92604 1.31454,-1.62321 c 0.72299,-0.89277 1.46276,-1.9048 1.64394,-2.24896 0.50656,-0.96227 1.51636,-2.19061 3.75668,-4.56973 1.12778,-1.19765 2.05052,-2.27242 2.05052,-2.38836 0,-0.11594 0.9525,-1.21705 2.11666,-2.44691 1.16417,-1.22987 2.11667,-2.39715 2.11667,-2.59397 0,-0.19682 0.20344,-0.71232 0.45208,-1.14556 l 0.45208,-0.7877 -0.316,-0.38076 c -0.1738,-0.20943 -0.82372,-0.54015 -1.44427,-0.73496 -0.62055,-0.1948 -1.24137,-0.45254 -1.37962,-0.57276 -0.44671,-0.38846 -1.3116,-0.23098 -2.39448,0.43598 l -1.05833,0.65184 -0.97657,0.008 c -0.53712,0.005 -1.0405,0.11168 -1.11862,0.23809 -0.0781,0.12641 -0.60101,0.30322 -1.16197,0.39292 l -1.01993,0.1631 -0.30318,0.66541 c -0.16675,0.36597 -0.45456,0.68354 -0.63958,0.70571 -0.18502,0.0222 -0.45546,0.0564 -0.60098,0.076 -0.14553,0.0196 -0.56987,0.23881 -0.943,0.48706 -0.75211,0.50039 -3.78808,1.55533 -4.29197,1.49138 -0.93215,-0.11831 -1.55492,0.0914 -2.13762,0.71981 l -0.64712,0.69789 -1.4141,0.11286 c -0.77776,0.0621 -2.40831,0.36452 -3.62345,0.6721 l -2.20933,0.55925 -0.49219,-0.30737 -0.49218,-0.30738 -0.47348,0.17935 c -0.26042,0.0986 -0.63486,0.33887 -0.83209,0.53385 l -0.35861,0.35452 -0.47902,-0.15204 c -0.26346,-0.0836 -0.5556,-0.0281 -0.64919,0.12331 -0.26365,0.42659 -0.74366,0.32468 -0.57243,-0.12153 0.0838,-0.21828 0.0497,-0.39687 -0.0757,-0.39687 -0.28229,0 -0.59603,0.76846 -0.42603,1.04352 0.0687,0.11111 -0.16907,0.33594 -0.52831,0.49962 -0.35924,0.16368 -0.65316,0.48482 -0.65316,0.71365 v 0.41604 l -0.99219,0.39168 c -0.5457,0.21543 -1.33502,0.58238 -1.75405,0.81545 -1.04688,0.58229 -4.36128,1.409 -4.86853,1.21435 l -0.4146,-0.1591 0.16667,0.43434 c 0.21361,0.55665 -0.074,0.72321 -1.31855,0.76371 l -1.00521,0.0327 -1.05833,0.70567 c -1.4092,0.93963 -3.43842,1.85961 -4.10174,1.85961 -0.29462,0 -0.74239,0.10029 -0.99507,0.22286 -0.25269,0.12257 -1.05475,0.48874 -1.78236,0.8137 -0.72761,0.32497 -1.77212,0.82512 -2.32115,1.11145 l -0.99824,0.52059 -0.72156,-0.42418 -0.72155,-0.42418 -0.99219,0.41635 c -1.08097,0.4536 -1.20246,0.6991 -0.59531,1.20299 0.62332,0.5173 0.46654,0.79446 -0.3563,0.62989 l -0.75319,-0.15064 -0.74067,0.68642 c -0.40735,0.37753 -0.91036,0.68642 -1.11778,0.68642 -0.20743,0 -0.55574,0.17859 -0.77402,0.39687 -0.21828,0.21828 -0.69194,0.39688 -1.05257,0.39688 -0.36064,0 -1.02347,0.19018 -1.47296,0.42262 l -0.81725,0.42262 -0.76991,-0.15399 -0.76992,-0.15398 -1.722793,1.33701 -1.72277,1.33701 -0.71309,0.0203 c -0.81652,0.0232 -1.97019,-0.29507 -2.16676,-0.59778 -0.0733,-0.11291 -0.66212,-0.1086 -1.30844,0.01 l -1.17514,0.21489 -0.67592,0.78858 c -0.37176,0.43374 -0.97359,0.87143 -1.3374,0.97267 -1.6788,0.46716 -2.88085,0.71253 -4.10103,0.83713 l -1.32291,0.13508 -0.46623,0.61783 -0.46622,0.61782 -2.03953,0.008 -2.03953,0.008 -0.72975,0.87779 c -0.40137,0.48279 -0.79449,1.06928 -0.87362,1.3033 -0.15237,0.45073 -1.34377,1.02931 -3.307,1.606 l -1.19063,0.34975 v 0.37093 c 0,0.20402 0.43598,0.59719 0.96884,0.87372 l 0.96882,0.50277 3.3968,0.52286 c 1.86823,0.28757 3.76654,0.64209 4.21845,0.78783 0.45193,0.14574 3.01178,0.32798 5.68855,0.40498 2.67678,0.077 6.17656,0.23258 7.77729,0.34575 1.60072,0.11316 4.279643,0.16792 5.953133,0.12168 1.67349,-0.0462 3.81661,-0.0786 4.7625,-0.072 z" />
  </g>
  <g
     inkscape:groupmode="layer"
     id="layer7"
     inkscape:label="Layer 3"
     style="display:inline"
     sodipodi:insensitive="true">
    <path
       style="fill:#cc4021;fill-opacity:1;stroke-width:0.99999994"
       d="m 71.916846,194.79955 c -2.779599,-0.34928 -4.565384,-2.77163 -6.035695,-4.89894 -2.115027,-1.87391 -4.890533,-3.53468 -5.428154,-6.54733 -1.197171,-2.52104 -3.344007,-4.51686 -4.152004,-7.23654 -1.994263,-3.78625 -5.468507,-6.5442 -8.976675,-8.86042 -2.468926,-1.33203 -5.100353,-2.50379 -7.003624,-4.64404 -2.833954,-2.75322 -5.69861,-5.58054 -9.269508,-7.36616 -2.365874,-1.63274 -4.748543,-3.25956 -7.277994,-4.6208 -2.1423,-1.5629 -1.749019,-4.88952 0.787604,-5.76414 2.185589,-1.47447 4.769925,-2.50953 7.441082,-2.43504 2.270166,-0.77002 3.869897,-2.91885 6.399103,-3.09755 7.92189,-2.08965 16.204523,-1.29629 24.260776,-2.42138 5.802318,-0.60884 11.671434,-0.40853 17.421887,0.57258 4.374039,0.69834 8.801363,0.93766 13.224241,0.75407 2.40085,-0.0272 4.823594,-0.0752 7.194915,0.364 1.59514,2.02135 -2.826716,1.97356 -4.147744,2.21994 -2.76407,0.217 -5.557485,0.50656 -8.321237,0.41635 -2.573923,-0.45807 -5.281146,-0.68507 -7.793474,0.19239 -7.443804,1.29391 -15.038755,0.89243 -22.535782,1.64455 -7.452368,0.40266 -15.010872,0.43993 -22.280307,2.33178 -0.547959,2.28979 3.523147,0.99255 4.96171,1.50047 6.664206,0.13962 13.352864,-0.23075 19.987658,0.59526 2.650016,0.32491 5.291749,0.89421 7.966837,0.47894 9.608025,-0.85792 19.273892,-0.8685 28.9002,-0.32483 3.734579,-0.26869 7.423629,-1.24333 11.190639,-0.91816 10.75029,-0.0165 21.53583,0.92414 32.25527,-0.28427 4.544,-0.4586 9.11339,-0.76824 13.65514,-1.15077 1.10674,-0.69207 -2.2056,-0.58138 -2.85711,-0.6967 -5.5093,-0.40925 -11.12087,0.19218 -16.5553,-0.95654 -3.02155,-1.22875 -5.98599,-2.91898 -9.35241,-2.86333 -3.97572,-0.27555 -7.89337,0.7249 -11.84352,0.85987 -2.24405,-0.5007 -0.61747,-3.55822 1.2544,-2.56747 4.9226,-0.20343 9.87495,-0.78097 14.79363,-0.34428 5.19582,0.88931 10.48265,0.63329 15.72958,0.70689 8.2297,0.0359 16.51851,-0.40799 24.69678,0.71916 2.72206,0.35456 5.2807,1.36204 7.85472,2.24151 2.49422,0.0209 4.74201,2.0956 3.14608,4.60644 -1.10411,2.58807 -3.08145,4.69858 -5.5656,6.00835 -2.07888,1.24415 -4.39179,2.23482 -5.93416,4.17829 -2.34944,2.43765 -5.0935,4.47369 -7.15096,7.1843 -1.67583,1.85695 -3.13448,3.90192 -4.35116,6.07989 -1.53917,2.09825 -5.27309,-0.29204 -2.80435,-2.193 1.71325,-2.15105 4.14084,-3.68819 5.48488,-6.13885 2.10025,-2.72001 4.55151,-5.17605 6.54907,-7.96415 0.432,-1.55808 1.31457,-4.05688 3.35514,-2.69283 2.84787,-0.10215 0.56051,-3.76858 -1.3721,-3.35139 -2.84829,0.40665 -5.26299,2.29613 -8.14662,2.64609 -3.06233,0.31046 -5.98376,1.3584 -8.86676,2.34953 -2.8683,0.33986 -6.29517,-0.48876 -8.56429,1.79053 -3.19852,2.54048 -7.54323,2.33875 -11.26095,3.63178 -1.76336,0.60701 -3.79399,0.0903 -5.53338,1.1015 -1.68404,0.80769 -3.53116,0.94875 -5.3536,0.7949 -2.8389,0.15566 -2.68988,3.47787 -3.79805,4.95332 -2.49768,1.45856 -5.63372,-0.57954 -8.05724,1.15733 -2.17877,1.59689 -4.68749,0.9161 -6.60561,-0.4218 -2.795,-0.0685 -4.716094,3.14843 -7.666638,2.16893 -1.393509,-0.26913 -3.720823,1.7162 -1.252431,2.10963 2.089404,0.37584 0.151598,2.64869 0.692917,3.64369 -2.155661,0.37428 -5.139238,-0.51179 -6.530723,1.68809 -2.620799,1.54965 -5.76398,1.91851 -8.330753,3.589 -2.759021,1.41581 -5.463653,3.11602 -7.434704,5.5544 0.408547,2.94262 4.057158,1.94462 6.082858,2.6731 3.687032,0.93661 7.486656,1.47672 11.293861,1.28366 8.249637,0.34125 16.584343,1.37027 24.783903,-0.11138 5.49059,-0.43301 11.10101,0.78312 16.508,-0.57009 2.81518,-0.85657 5.67149,-1.91667 8.66392,-1.70923 3.07554,0.4078 4.36817,-3.33054 6.85295,-3.62524 1.31628,2.23917 -1.40551,3.66823 -3.10174,4.47454 -1.84367,1.23643 -3.75988,2.43227 -5.87998,3.09243 -2.56403,1.51574 -5.6268,0.55225 -8.41884,0.82964 -3.17066,-0.26983 -6.25643,0.59756 -9.30852,1.29532 -3.42317,0.68177 -6.92726,1.11268 -10.4119,0.71532 -3.98842,0.0777 -7.86252,1.29101 -11.864163,1.26024 -3.269513,0.21384 -6.640583,0.64193 -9.83386,-0.3068 -3.235056,-0.52252 -6.329561,0.90941 -9.55336,0.91941 -2.182055,0.0658 -4.491707,0.35019 -6.606771,-0.29396 z"
       id="path7341"
       inkscape:connector-curvature="0"
       inkscape:path-effect="#path-effect7953"
       inkscape:original-d="m 71.916846,194.79955 c -0.94589,-0.25023 -2.20946,-0.76912 -2.80795,-1.15308 l -1.08815,-0.69811 -0.82786,-1.46688 -0.82785,-1.46687 -0.83864,-0.43368 c -0.958299,-0.49556 -1.474888,-0.96937 -3.33792,-3.06153 l -1.331229,-1.49495 -0.445958,-1.53406 -0.445971,-1.53407 -1.153761,-1.28327 -1.153769,-1.28326 -0.560411,-1.50856 c -0.308229,-0.8297 -1.042911,-2.25257 -1.63263,-3.16193 l -1.0722,-1.65338 -2.90731,-2.62914 c -1.59901,-1.44603 -3.34128,-2.83098 -3.8717,-3.07768 -3.02833,-1.40848 -4.12594,-2.05874 -5.89217,-3.49073 -1.07649,-0.87276 -2.49059,-2.16681 -3.14245,-2.87564 -1.98461,-2.15808 -3.89319,-3.69732 -5.87734,-4.73996 -1.03973,-0.54636 -2.58239,-1.55098 -3.42813,-2.23249 -0.84575,-0.68151 -2.2233,-1.58113 -3.06122,-1.99916 -2.28129,-1.1381 -2.94963,-1.70743 -3.65654,-3.11487 l -0.64262,-1.27941 0.69198,-0.90724 c 0.68558,-0.89884 2.64747,-2.4938 3.06751,-2.4938 0.11998,0 0.66207,-0.28951 1.20465,-0.64337 l 0.98651,-0.64337 2.64584,-0.34477 2.64583,-0.34476 1.08355,-0.9922 1.08354,-0.99221 1.69458,-0.51978 c 4.49951,-1.38014 6.80254,-1.67176 16.908119,-2.14102 2.98318,-0.13853 5.964802,-0.36568 6.625821,-0.50479 0.661011,-0.1391 3.161331,-0.33422 5.556249,-0.43359 l 4.35439,-0.18068 3.43958,0.30839 c 5.07209,0.45477 5.58673,0.51408 8.33438,0.96059 l 2.51354,0.40847 7.01146,0.12319 c 14.123274,-0.67053 12.252244,2.48777 -0.31263,2.87092 l -4.41366,0.13804 -1.31749,-0.34175 -1.31749,-0.34175 -1.94176,0.34009 c -1.06797,0.18705 -2.53707,0.47249 -3.26468,0.63432 -1.93926,0.43133 -7.0392,0.8092 -12.21047,0.90472 -2.495658,0.0461 -4.673038,0.16755 -4.838628,0.26989 -0.165592,0.10234 -1.467871,0.17665 -2.893951,0.16513 -4.091199,0.42658 -21.750329,0.58479 -24.892728,3.16422 1.498414,1.35526 16.328182,0.68812 18.051669,0.82739 2.798548,0.25241 5.898211,0.46449 6.888131,0.4713 0.98992,0.007 2.640737,0.20364 3.668487,0.43739 l 1.86863,0.42502 1.88776,-0.14761 c 11.49992,-0.89918 16.66265,-1.0207 26.22943,-0.61743 l 5.02709,0.21191 2.778114,-0.46203 2.77813,-0.46202 4.89478,-0.0171 c 3.70502,-0.013 17.05054,0.24214 20.63751,0.39452 2.22002,0.0943 13.80714,-0.74567 15.1474,-1.09807 0.55263,-0.16843 11.45957,-0.45725 11.45957,-1.06333 -6.89518,-0.99813 -15.19151,-0.035 -21.51653,-1.43727 -6.09539,-3.75596 -10.50795,-3.04188 -19.85098,-1.81683 l -1.39908,-0.46931 -0.42619,-0.65046 -0.4262,-0.65045 0.23777,-0.22069 c 0.13078,-0.12137 1.4284,-0.46849 2.88361,-0.77137 19.17499,-0.68913 11.41992,-0.60145 15.61042,-0.0442 2.41173,0.37231 8.86411,0.54678 18.38854,0.49722 13.21696,-0.0688 13.61823,-0.0602 17.99167,0.38281 l 4.10104,0.41544 2.27437,0.64734 c 1.25091,0.35604 2.82105,0.88916 3.4892,1.18472 0.66816,0.29555 1.86796,0.67296 2.66623,0.83868 1.59989,0.33214 1.88332,0.56374 2.09026,1.70797 l 0.14003,0.77427 -0.32494,0.32494 c -0.17872,0.17872 -0.53311,0.98678 -0.78755,1.79569 l -0.46261,1.47075 -0.97062,1.07886 c -1.22863,1.36565 -3.32629,2.8704 -5.86541,4.20755 l -1.98438,1.04501 -2.73986,2.79714 c -1.50692,1.53843 -2.90505,2.79714 -3.10696,2.79714 -0.2019,0 -1.01224,0.87236 -1.80075,1.93858 -0.7885,1.06622 -1.72231,2.12772 -2.07512,2.35889 -0.52056,0.34108 -2.65157,3.49586 -3.08431,4.56604 -5.81734,4.70712 -5.3361,-1.2305 -0.52249,-4.10101 0.14279,0 0.42551,-0.39701 0.62825,-0.88226 0.20275,-0.48524 1.14917,-1.70216 2.10317,-2.70426 0.95399,-1.00211 1.73453,-1.95463 1.73453,-2.11671 0,-0.16208 0.90562,-1.23627 2.01249,-2.38708 1.10686,-1.15081 2.29522,-2.65035 2.6408,-3.33231 0.34557,-0.68196 0.75008,-1.31518 0.8989,-1.40716 0.14882,-0.092 0.20297,-0.43666 0.12032,-0.76596 l -0.15027,-0.59873 0.41388,-0.34349 0.41388,-0.3435 0.37632,0.31232 0.37632,0.31232 1.27733,-0.0815 1.27732,-0.0815 v -0.79375 -0.79375 l -0.46302,0.0367 -0.46302,0.0368 v -0.46737 c 0,-0.25706 -0.17955,-0.61639 -0.39901,-0.79853 l -0.39901,-0.33115 -1.12234,0.16226 c -0.61729,0.0892 -1.69108,0.26482 -2.38621,0.39017 l -1.26386,0.22792 -0.32364,0.43895 -0.32364,0.43894 -2.64583,0.65713 c -1.45521,0.36142 -3.06255,0.66116 -3.57187,0.66607 -0.50933,0.005 -1.4154,0.23117 -2.0135,0.50279 -0.5981,0.27161 -1.58273,0.57752 -2.18806,0.67979 -0.60533,0.10227 -1.24743,0.33277 -1.4269,0.51224 l -0.32629,0.3263 -2.77732,0.0508 c -1.52752,0.028 -3.35196,0.19275 -4.05431,0.36622 l -1.27701,0.31541 -0.25366,0.47396 c -0.13951,0.26068 -0.48485,0.47396 -0.76741,0.47396 -0.28257,0 -0.70296,0.28875 -0.93419,0.64166 -0.45268,0.69088 -1.63041,1.21042 -2.74384,1.21042 -0.38052,0 -1.28549,0.21657 -2.01104,0.48126 -0.72555,0.26469 -2.27168,0.63706 -3.43585,0.82749 -1.16417,0.19043 -2.37204,0.50419 -2.68417,0.69725 l -0.5675,0.35101 -0.90577,-0.14699 -0.90577,-0.14698 -1.29836,0.4408 c -0.71411,0.24245 -1.42036,0.53939 -1.56945,0.65989 -0.25951,0.20973 -1.36199,0.39031 -4.23982,0.69446 -0.72761,0.0769 -1.50151,0.21519 -1.71979,0.30732 -0.21828,0.0921 -0.61575,0.17484 -0.88325,0.18381 l -0.48638,0.0163 -0.36954,1.05833 c -0.20324,0.58208 -0.37132,1.57237 -0.37352,2.20064 l -0.004,1.14231 -0.50284,-0.15959 -0.50284,-0.1596 -1.01852,0.51303 c -0.56018,0.28217 -1.60054,0.59385 -2.31192,0.69264 -3.60014,-2.43973 -3.05134,1.09572 -8.1934,1.19928 l -0.75557,0.0122 -0.65326,-0.70487 -0.65325,-0.70487 -1.50159,0.14436 c -0.82588,0.0794 -1.88855,0.34198 -2.36149,0.5835 l -0.859884,0.43914 v 0.53847 0.53847 l -0.615747,-0.15454 c -0.33866,-0.085 -1.320933,-0.0289 -2.182823,0.12471 -1.30637,0.2328 -2.56727,0.40234 -3.61462,0.48602 -0.10751,0.009 -0.17048,0.31761 -0.13993,0.68671 l 0.0555,0.6711 0.64833,0.16272 c 0.35657,0.0895 0.95532,0.17446 1.33055,0.1888 0.37523,0.0143 0.65247,0.11537 0.61609,0.22451 -0.0364,0.10914 -0.0661,0.42806 -0.0661,0.70871 0,0.28065 -0.1786,0.68886 -0.39688,0.90714 -0.21828,0.21828 -0.39687,0.58397 -0.39687,0.81265 v 0.41577 h 0.52916 c 0.61641,0 0.70694,0.40434 0.13929,0.62216 l -0.38988,0.14961 -0.24988,-0.44652 -0.24989,-0.44652 -0.48471,0.41046 -0.48472,0.41047 -2.03087,-0.0557 -2.03087,-0.0557 0.14701,0.38309 0.147,0.38309 -0.53128,0.13893 c -0.2922,0.0764 -0.65513,0.41076 -0.8065,0.74299 -0.15138,0.33224 -0.55284,0.66993 -0.89215,0.75043 -3.327394,-0.13131 -17.045822,7.41758 -14.62767,9.61318 l 0.67363,0.44137 4.15502,0.7463 c 2.28526,0.41047 4.75034,0.88763 5.47794,1.06036 l 1.32292,0.31406 4.89479,0.0623 c 2.69214,0.0343 5.96635,0.20096 7.27604,0.37043 1.30969,0.16947 4.643434,0.29952 7.408324,0.289 l 5.02708,-0.0191 2.98518,-0.40765 2.98519,-0.40766 6.8044,0.0695 6.80441,0.0695 2.38125,-0.558 c 1.30969,-0.30691 2.82884,-0.74981 3.37588,-0.98423 l 0.99463,-0.42621 3.4315,-0.35818 3.43151,-0.35818 0.73324,-0.46689 c 0.40329,-0.25679 1.24849,-1.04605 1.87824,-1.75391 l 1.145,-1.28704 h 0.64094 0.64094 v 0.94344 c 0,1.08982 -0.39654,1.96698 -0.88923,1.96698 -0.1878,0 -0.63009,0.31201 -0.98288,0.69335 -0.35279,0.38134 -1.12754,0.90435 -1.72167,1.16226 -0.59413,0.2579 -1.40881,0.77342 -1.8104,1.14559 -0.40158,0.37218 -1.34422,0.86937 -2.09475,1.10487 -0.75054,0.2355 -1.84086,0.6866 -2.42295,1.00245 l -1.05833,0.57428 -5.55625,0.0363 -5.55626,0.0363 -1.52453,0.41592 c -0.83849,0.22875 -1.62419,0.47751 -1.746,0.55279 -0.12182,0.0753 -2.11469,0.39048 -4.4286,0.70045 l -4.20713,0.56358 -2.77944,-0.17573 -2.77943,-0.17574 -0.74989,0.28511 c -1.05884,0.40257 -8.107031,1.12868 -12.344344,1.27172 l -3.57188,0.12059 -2.53137,-0.45916 -2.53138,-0.45917 -2.628,0.54109 -2.628,0.54109 -3.57187,0.13786 -3.57188,0.13786 z"
       sodipodi:nodetypes="ccccccsccccccccccccccccccsccccccsccccccccccccscsccccccccsccccccccccccccccccsccscsccccccsccccccscccccccccccccccsccccccccccsccccccscssscccccccccccsccccccccccccccccccccccssscscccccccccccccccccccsccccccccccccccccsssccccccccccccccccccccccc" />
  </g>
</svg>
