<?xml version="1.0" encoding="UTF-8" standalone="no"?>
<!-- Created with Inkscape (http://www.inkscape.org/) -->

<svg
   xmlns:dc="http://purl.org/dc/elements/1.1/"
   xmlns:cc="http://creativecommons.org/ns#"
   xmlns:rdf="http://www.w3.org/1999/02/22-rdf-syntax-ns#"
   xmlns:svg="http://www.w3.org/2000/svg"
   xmlns="http://www.w3.org/2000/svg"
   xmlns:sodipodi="http://sodipodi.sourceforge.net/DTD/sodipodi-0.dtd"
   xmlns:inkscape="http://www.inkscape.org/namespaces/inkscape"
   width="210mm"
   height="297mm"
   viewBox="0 0 210 297"
   version="1.1"
   id="svg5400"
   inkscape:version="0.92.2 5c3e80d, 2017-08-06"
   sodipodi:docname="plate.svg">
  <defs
     id="defs5394">
    <inkscape:path-effect
       effect="simplify"
       id="path-effect5376"
       is_visible="true"
       steps="16"
       threshold="0.0016"
       smooth_angles="80"
       helper_size="95"
       simplify_individual_paths="false"
       simplify_just_coalesce="false" />
    <inkscape:path-effect
       effect="simplify"
       id="path-effect5378"
       is_visible="true"
       steps="15"
       threshold="0.0046"
       smooth_angles="100"
       helper_size="5"
       simplify_individual_paths="false"
       simplify_just_coalesce="false" />
  </defs>
  <sodipodi:namedview
     id="base"
     pagecolor="#ffffff"
     bordercolor="#666666"
     borderopacity="1.0"
     inkscape:pageopacity="0.0"
     inkscape:pageshadow="2"
     inkscape:zoom="1.0992187"
     inkscape:cx="214.41365"
     inkscape:cy="560"
     inkscape:document-units="mm"
     inkscape:current-layer="layer1"
     showgrid="false"
     inkscape:window-width="1920"
     inkscape:window-height="971"
     inkscape:window-x="0"
     inkscape:window-y="31"
     inkscape:window-maximized="1" />
  <metadata
     id="metadata5397">
    <rdf:RDF>
      <cc:Work
         rdf:about="">
        <dc:format>image/svg+xml</dc:format>
        <dc:type
           rdf:resource="http://purl.org/dc/dcmitype/StillImage" />
        <dc:title></dc:title>
      </cc:Work>
    </rdf:RDF>
  </metadata>
  <g
     inkscape:label="Layer 1"
     inkscape:groupmode="layer"
     id="layer1">
    <g
       id="g5370"
       transform="translate(15.527498,119.81308)"
       inkscape:path-effect="#path-effect5378">
      <path
         style="fill:#be8f75;stroke-width:1"
         d="M 75.892393,56.151091 C 69.128071,55.576509 62.594618,52.77492 57.708627,47.407397 53.050455,42.290146 45.982153,40.78073 40.108588,37.558989 36.101165,35.360856 27.947438,36.386616 27.514955,31.247217 c -0.384985,-4.574956 4.30752,-6.8953 7.975645,-8.301885 8.733113,-3.348814 18.23788,-4.730837 27.530346,-3.5404 3.409691,0.436808 7.292037,-1.136669 10.149373,0.562461 3.150231,1.873302 -3.526548,1.546759 -4.73395,1.674616 -4.271292,0.452304 -9.804105,-1.469274 -12.620116,1.702174 -2.629107,2.960953 3.921445,2.214219 5.696415,2.423939 4.563239,0.539165 9.046739,1.732312 13.718089,1.028738 4.467465,-0.672866 8.963895,-0.726248 13.496346,-0.236784 7.463858,0.80603 14.918757,-0.306071 22.359737,-0.914966 4.15203,-0.33976 11.78818,4.023756 12.48967,-0.08876 0.76812,-4.503164 -5.30463,-3.252059 -8.0754,-3.446583 -6.81758,-0.478635 -22.611031,4.619709 -20.467724,-2.058811 1.614159,-5.029701 7.717734,-2.956101 11.642104,-3.231703 13.83957,-0.971928 27.71141,-0.712358 41.57077,-0.419481 8.60002,0.181736 17.39222,-0.318936 25.73213,1.748355 4.50649,1.117065 9.96352,1.094723 13.33185,4.322391 2.58376,2.475859 0.13245,6.25101 -2.33268,7.706949 -3.55337,2.098666 -7.25798,3.87785 -10.76157,6.112611 -5.91666,3.773936 -10.56275,9.390031 -16.67312,12.780713 -6.2247,3.454124 -13.4936,3.463183 -20.36353,4.398354 -17.00425,2.314708 -34.19759,2.212722 -51.309318,3.033329 -3.325288,0.159467 -6.687254,0.247148 -9.977629,-0.351378 z m 51.325237,-5.862788 c 0.0509,-3.536383 -5.5179,1.441156 -1.20922,0.198895 0,0 0.6084,-0.07646 0.6084,-0.07646 0,0 0.60082,-0.122433 0.60082,-0.122433 z M 96.133019,49.552774 c 4.673071,-0.436847 9.044721,-1.747872 14.033551,-1.837373 11.88416,-0.213204 23.8061,-0.41113 35.61054,-1.753387 4.05581,-0.461177 9.03928,0.52509 12.12128,-2.252964 3.4405,-3.101196 5.88446,-7.980732 10.70552,-8.736413 2.47571,-0.388057 9.06337,-5.118969 4.50903,-5.803244 -4.80426,-0.721825 -9.60471,0.942791 -14.416,0.28606 -15.04644,0.367892 -30.42216,-0.294615 -45.00109,4.40095 -8.10139,2.609287 -16.398208,4.5345 -24.561362,6.924671 -4.186733,1.225875 -10.911513,0.533139 -12.200415,4.711445 -1.64275,5.325396 6.061652,3.351541 9.070342,3.551531 3.370033,0.224009 6.745638,1.036932 10.128604,0.508724 z"
         id="path5374"
         inkscape:connector-curvature="0"
         inkscape:original-d="m 75.892393,56.151091 -1.058334,-0.512998 -1.589246,-0.009 c -0.874085,-0.0049 -2.005179,-0.130569 -2.513542,-0.279181 -0.508362,-0.148611 -1.667354,-0.377602 -2.575536,-0.50887 l -1.651241,-0.23867 -2.009307,-1.252347 c -1.10512,-0.68879 -2.148001,-1.38688 -2.317512,-1.551308 -0.16951,-0.164431 -1.166458,-0.98035 -2.215438,-1.813158 -1.048981,-0.832808 -2.275092,-2.048851 -2.72469,-2.702319 -0.449599,-0.653476 -0.930794,-1.188133 -1.069324,-1.188133 -0.138531,0 -0.255636,-0.148828 -0.260234,-0.330729 -0.03017,-1.193207 -1.999911,-2.326997 -7.003098,-4.030996 l -2.910417,-0.991238 -1.068348,-1.027686 c -0.587592,-0.565226 -1.242435,-1.031471 -1.455209,-1.036099 -0.212772,-0.0046 -0.602641,-0.17201 -0.866375,-0.371959 -0.529704,-0.401594 -2.672073,-0.984225 -5.796685,-1.576446 L 34.76499,36.342792 33.765148,35.540918 c -1.125751,-0.902855 -2.931085,-1.616614 -4.088954,-1.616614 -1.024484,0 -2.114243,-0.587481 -2.964788,-1.598297 -0.967064,-1.14929 -0.900223,-1.382613 0.894525,-3.122516 0.873126,-0.846444 1.587501,-1.742255 1.587501,-1.990692 0,-1.452708 3.487537,-4.000573 5.820833,-4.252484 2.423443,-0.261643 5.408868,-1.104088 6.561281,-1.851502 l 0.979345,-0.635168 2.116667,-0.409249 c 3.602513,-0.696532 7.042407,-0.956759 12.647248,-0.956759 h 5.392063 l 2.01559,0.515501 2.015588,0.515501 5.699652,-0.09839 5.699652,-0.09839 v 0.244351 c 0,0.134392 -0.305482,0.24435 -0.678852,0.24435 -0.373369,0 -0.896175,0.116307 -1.161791,0.25846 -0.744773,0.398591 -4.770599,0.8309 -8.977204,0.964009 -2.093516,0.06624 -4.020453,0.235008 -4.282086,0.37503 -0.261633,0.140021 -0.938059,0.254584 -1.503172,0.254584 -0.56511,0 -1.91239,0.235323 -2.993956,0.52294 -1.081564,0.287616 -2.288302,0.525741 -2.681637,0.529166 -0.393335,0.0034 -0.988648,0.115757 -1.322917,0.249626 -0.334269,0.133868 -1.351902,0.388262 -2.261407,0.56532 -3.183505,0.619747 -0.263187,1.184399 7.304987,1.412441 l 4.063844,0.12245 0.47575,0.51066 0.475753,0.510661 3.265615,0.209258 c 1.796087,0.115092 4.158583,0.218876 5.24999,0.230631 l 1.984375,0.02137 1.190625,-0.49148 1.190625,-0.49148 3.439583,-0.04946 3.439584,-0.04946 4.7625,0.4757 c 2.619375,0.261636 5.927183,0.477602 7.350687,0.479926 l 2.588186,0.0042 0.939967,-0.392745 0.93998,-0.392745 4.27705,-0.169285 c 2.35238,-0.09311 4.93189,-0.196796 5.73226,-0.230421 0.80036,-0.03362 2.03967,-0.256961 2.75403,-0.496303 1.45553,-0.487672 3.21481,-0.573255 3.46493,-0.168555 l 0.16477,0.266612 3.75345,-0.13734 c 2.06439,-0.07554 4.38529,-0.204926 5.15754,-0.28753 l 1.4041,-0.150189 -0.29895,-0.360213 c -1.43073,-1.723925 -9.47009,-2.783951 -20.10404,-2.650809 l -4.63021,0.05797 -1.40197,-0.354641 c -0.77108,-0.195053 -1.664053,-0.356077 -1.984376,-0.357832 -0.901784,-0.0049 -5.158576,-1.503398 -5.877663,-2.069033 l -0.642567,-0.505442 0.497099,-0.449866 0.497096,-0.449867 4.313323,-0.377775 c 2.372328,-0.207777 4.496678,-0.434662 4.720778,-0.504189 0.42379,-0.131483 14.54376,-0.497214 19.85432,-0.51426 1.67349,-0.0054 5.66209,0.09083 8.86355,0.213789 l 5.82083,0.223555 2.64583,-0.323423 c 2.26792,-0.277227 3.94765,-0.346422 6.33781,-0.261082 0.28434,0.01015 0.64729,0.126616 0.80658,0.258807 l 0.2896,0.24035 4.08822,-0.0086 c 2.24851,-0.0048 4.68625,-0.131377 5.41719,-0.281386 l 1.32897,-0.272742 1.01844,0.425531 c 0.56015,0.234041 1.33728,0.42553 1.72696,0.42553 0.38969,0 0.82553,0.116999 0.96852,0.259998 0.39404,0.394035 4.2543,0.733448 5.71522,0.502509 0.70917,-0.112105 1.85156,-0.148412 2.53866,-0.08068 0.68709,0.06773 2.25126,0.177641 3.47594,0.244248 l 2.22668,0.121102 0.95489,0.661738 c 0.52519,0.363956 1.36865,0.733883 1.87436,0.822061 0.5057,0.08818 1.47732,0.388219 2.15914,0.666758 0.68182,0.27854 1.52381,0.506435 1.8711,0.506435 0.34728,0 1.18042,0.187062 1.85141,0.415693 l 1.21999,0.415692 0.57917,-0.309961 0.57917,-0.309962 0.44623,0.489581 c 2.05755,2.257456 1.9493,6.080831 -0.18736,6.617098 -0.38493,0.09661 -1.48569,0.913697 -2.44615,1.81575 l -1.74628,1.640097 -1.04202,0.343366 c -0.57311,0.188852 -1.60116,0.711501 -2.28456,1.161444 -2.49911,1.645389 -3.74555,2.421683 -5.07347,3.159812 -0.7463,0.414829 -1.83315,1.105487 -2.41524,1.534797 -0.58208,0.42931 -2.24896,1.601087 -3.70416,2.603948 -2.26667,1.562082 -5.04878,3.938421 -7.78176,6.646794 -0.38398,0.380521 -1.23094,0.962337 -1.88215,1.292926 -0.65121,0.330592 -1.52733,0.888151 -1.94695,1.239023 -0.41961,0.350869 -1.21388,0.868003 -1.76504,1.149183 l -1.0021,0.511236 -1.80684,-0.02138 c -0.99376,-0.01175 -2.51646,0.169212 -3.38378,0.402159 -0.86731,0.232944 -1.87934,0.424481 -2.24895,0.425635 -0.36961,0.0011 -2.06738,0.292436 -3.77283,0.647295 -1.70544,0.354857 -4.30626,0.777841 -5.77959,0.939962 -1.47334,0.162123 -2.94739,0.396885 -3.27567,0.521697 -0.92144,0.350332 -18.11795,1.278028 -27.26685,1.470959 -3.20146,0.06751 -6.57327,0.256725 -7.492909,0.420473 -0.919644,0.163748 -2.198272,0.2256 -2.841398,0.137451 l -1.169318,-0.160274 -0.730478,0.285867 -0.73048,0.285864 -8.334375,0.09836 -8.334376,0.09836 z m 51.325237,-5.862788 c 0.0818,-0.08177 0.0763,-0.337386 -0.0122,-0.568032 l -0.16092,-0.419354 -3.02142,0.06428 -3.02143,0.06428 -0.0144,0.251064 c -0.0352,0.611359 5.67033,1.167918 6.23048,0.607769 z m -31.084611,-0.735529 3.042708,-0.209608 0.251355,0.228071 c 0.368636,0.334483 1.477778,0.279646 3.410718,-0.16863 l 1.71053,-0.3967 1.62961,0.222864 1.62961,0.222864 0.84346,-0.421479 0.84347,-0.421476 0.0816,-0.705213 c 0.1053,-0.9105 0.49664,-1.040558 1.78301,-0.592571 1.54774,0.539007 9.85311,0.500216 10.74367,-0.05018 0.35443,-0.219054 8.91058,-0.740484 10.5428,-0.642501 2.65103,0.159144 6.69138,0.04704 8.2809,-0.229764 0.98882,-0.172196 3.01272,-0.373319 4.49755,-0.446937 1.48482,-0.07362 3.1164,-0.237323 3.62572,-0.363786 1.38742,-0.34449 4.47283,-0.646607 5.82083,-0.569963 l 1.19063,0.06769 1.05833,-0.778484 c 0.58208,-0.428167 1.53458,-1.267216 2.11667,-1.864553 0.58208,-0.597339 1.71317,-1.73782 2.51354,-2.534408 l 1.45521,-1.44834 -0.31888,-0.520329 -0.31888,-0.52033 0.37928,-0.314778 c 0.42565,-0.353258 1.30591,-0.410058 2.13324,-0.13765 l 0.55185,0.181703 0.80926,-0.680951 c 0.4451,-0.374522 0.97331,-0.68095 1.17381,-0.68095 0.2005,0 0.77862,-0.340328 1.28472,-0.756283 0.5061,-0.415956 1.39643,-1.014625 1.97852,-1.330375 0.58208,-0.315749 1.41552,-0.800157 1.85208,-1.076462 0.43656,-0.276304 0.93222,-0.511073 1.10147,-0.521709 0.16924,-0.01064 1.03244,-0.34105 1.91823,-0.734254 l 1.61051,-0.714915 v -0.46961 c 0,-0.258286 -0.2955,-0.66323 -0.65667,-0.899875 l -0.65667,-0.430266 -4.43656,0.186089 c -2.44011,0.102349 -6.11673,0.217351 -8.17026,0.25556 -2.05354,0.03821 -4.16563,0.150502 -4.69355,0.249539 l -0.95984,0.180068 -0.995,-0.296983 -0.995,-0.296983 -4.10104,0.301033 c -2.25557,0.165569 -7.13713,0.350019 -10.84791,0.409889 -13.48541,0.217577 -17.77037,0.785901 -24.07709,3.193402 -0.50932,0.194427 -1.87854,0.609024 -3.04271,0.921328 -4.6829,1.256253 -6.91113,1.914003 -7.54062,2.225906 -1.03669,0.513667 -6.232045,1.89433 -8.9234,2.371389 -1.342607,0.237986 -2.949951,0.656308 -3.571875,0.929605 -0.621925,0.273297 -2.083271,0.673591 -3.247438,0.889541 -3.38922,0.628692 -4.410864,0.950714 -5.677043,1.789398 -0.65527,0.434031 -1.491467,0.854007 -1.858219,0.933281 -0.66116,0.142909 -1.697416,0.483674 -4.50328,1.480881 -0.800365,0.284448 -1.65443,0.695616 -1.897923,0.913707 l -0.442714,0.396525 0.146603,0.903412 0.146603,0.903412 h -0.510868 c -0.280977,0 -0.623978,0.107506 -0.762222,0.238903 -0.138245,0.131395 -0.48948,0.285433 -0.780521,0.342302 l -0.529167,0.103402 0.58832,0.32472 0.588319,0.324724 2.983556,-0.03715 c 4.64199,-0.05779 6.061771,-0.02638 7.38713,0.163438 l 1.228574,0.175956 0.575106,-0.307787 0.575107,-0.307787 0.601345,0.394015 c 1.044681,0.684501 2.920399,0.793596 7.829836,0.455395 z" />
      <path
         style="fill:#b14a3e;stroke-width:1"
         d="M 75.960248,55.443741 C 68.524104,55.497906 62.929591,50.036186 57.068792,45.312885 52.266397,41.442567 46.318917,39.47791 40.781584,36.965163 36.915581,35.210837 29.381903,35.946733 28.771282,31.310004 c -0.571115,-4.336745 4.105531,-6.631072 7.848217,-7.533117 5.890839,-1.419783 11.645938,-5.04283 17.777279,-3.767338 1.79952,0.374351 7.910224,-0.504166 4.418826,1.892676 -2.128221,1.461022 -11.258248,1.01793 -7.594693,3.450054 3.494437,2.319852 7.783161,0.170461 11.611108,2.417091 4.147188,2.433993 8.889721,1.887401 13.575934,1.577435 7.928558,-0.524429 15.825239,-0.174835 23.804567,-0.75548 6.52736,-0.474987 12.9667,-2.763662 19.47756,-2.398835 2.74287,0.153693 9.09422,1.409899 8.02972,-2.902599 -0.60123,-2.435695 -0.68705,-6.389112 -4.36433,-4.753605 -2.17146,-1.813339 3.34062,-1.150218 4.61819,-1.106686 17.77411,0.605638 35.53153,6.232044 53.25445,3.74454 4.70311,-0.660106 7.18329,7.300928 2.81642,8.975718 -8.80122,3.375456 -18.56395,7.31728 -23.42367,15.448056 -1.24966,2.090799 -7.91477,3.652985 -4.2408,0.384082 2.83407,-2.521606 5.65865,-5.072781 8.69571,-7.36338 3.35866,-2.533152 8.43241,-2.781516 10.9929,-6.134041 3.65548,-4.786222 -3.88449,-5.948035 -8.10911,-5.458795 -15.04926,1.742808 -30.52918,0.02047 -45.29653,3.650852 -11.59104,2.849524 -23.008432,6.326577 -34.464766,9.694307 -4.671188,1.373153 -11.107712,0.68709 -13.813249,4.737723 -2.455991,3.677022 2.61431,6.355113 5.737384,5.685587 4.400667,-0.943417 8.939753,-0.328958 13.411459,-0.03193 5.821875,0.386712 11.694372,1.315604 17.517852,0.209228 4.32702,-0.82207 8.80109,-0.713208 13.00406,0.410001 4.37672,1.169643 8.56343,-1.810321 12.76827,-0.955042 -2.01799,1.631275 -4.9522,2.688324 -7.62054,3.265137 -4.64774,1.004697 -9.37515,0.299836 -14.09372,0.498845 -13.0424,0.550072 -26.08372,2.160006 -39.149532,1.253253 z m 75.206112,-31.01204 c -2.42965,-3.253536 -10.56269,-7.883801 -11.07155,-3.79736 -0.64014,5.140657 5.97586,3.196456 9.24753,3.502477 0.61361,0.05739 1.22463,0.150292 1.82402,0.294883 z m -45.90522,-3.505319 c -2.38251,3.023219 -7.935204,-3.493196 -2.84281,-3.170481 4.32327,0.273974 13.26027,-3.812168 13.0124,0.726531 -0.252,4.614318 -6.00303,2.199642 -8.92379,2.279546 0,0 -0.66934,0.03796 -0.66934,0.03796 0,0 -0.57646,0.126442 -0.57646,0.126442 z"
         id="path5372"
         inkscape:connector-curvature="0"
         inkscape:original-d="M 75.960248,55.443741 C 75.486366,55.27186 74.459491,55.122172 73.678304,55.111101 67.48359,55.02331 61.842644,51.852138 57.371558,45.943939 l -1.5875,-2.097759 -1.719792,-0.848254 C 52.234448,42.0954 50.748288,41.531938 48.695627,40.962462 47.998448,40.769041 47.165011,40.374346 46.843544,40.085363 44.52316,37.999457 42.147002,37.012099 37.745614,36.304927 l -1.89886,-0.30509 -1.220745,-0.774174 c -2.091627,-1.32647 -3.66312,-2.012813 -5.016365,-2.190874 -1.484307,-0.195307 -2.268296,-0.767334 -2.268296,-1.655032 v -0.61045 l 1.451833,-1.663647 c 0.798508,-0.915006 1.579027,-1.78271 1.734486,-1.928231 0.15546,-0.145521 0.948434,-0.949193 1.762166,-1.785937 l 1.479511,-1.521355 h 0.667988 c 0.367393,0 1.689297,-0.191432 2.937564,-0.425406 l 2.269578,-0.425406 1.408345,0.1654 1.408345,0.165401 -0.173434,-0.546441 -0.173433,-0.546441 0.308605,-0.371847 c 0.910888,-1.097553 5.419353,-1.780793 12.54448,-1.901067 l 6.062491,-0.102337 0.27722,0.27722 0.27722,0.27722 -0.518877,0.493233 -0.518878,0.493233 -2.248958,0.55507 c -1.236927,0.305289 -3.320521,0.73456 -4.630209,0.953935 -1.309687,0.219375 -3.03495,0.552519 -3.833918,0.740319 l -1.452668,0.341455 -0.09053,0.470106 c -0.04979,0.258559 0.05294,0.642982 0.228294,0.854272 l 0.318828,0.384165 h 1.490704 c 0.819888,0 1.905996,0.119104 2.413575,0.264676 0.50758,0.145572 2.352263,0.278653 4.099296,0.295736 l 3.176424,0.03106 1.322917,0.514075 c 0.727604,0.282742 1.739635,0.715208 2.248958,0.961036 l 0.926042,0.44696 0.08642,0.609567 0.08642,0.609568 0.676256,0.257112 0.676254,0.257112 3.206081,-0.146861 c 1.763342,-0.08077 5.468266,-0.257024 8.233162,-0.391666 2.764896,-0.134642 6.470994,-0.250201 8.235773,-0.256797 l 3.208692,-0.01199 1.904733,0.430143 1.904733,0.430144 0.653714,-0.297852 c 0.359542,-0.163818 0.927476,-0.297851 1.262073,-0.297851 0.334595,0 1.013603,-0.205338 1.508903,-0.456307 l 0.900547,-0.456306 5.075936,-0.0406 5.07594,-0.0406 0.93121,-0.575521 0.93122,-0.575521 1.26889,0.04319 c 0.69788,0.02376 1.92373,-0.09522 2.72409,-0.264392 1.42115,-0.300386 7.8548,-0.743469 15.15129,-1.043464 l 0.73149,-0.03008 0.51441,-0.84588 0.51441,-0.84588 -0.28611,-0.344745 c -0.15736,-0.18961 -0.43555,-0.344745 -0.61819,-0.344745 -0.18265,0 -0.4847,-0.183887 -0.67123,-0.408638 l -0.33913,-0.408638 -0.70944,0.155818 -0.70943,0.155817 -0.33455,-0.403111 -0.33455,-0.40311 0.2879,-0.825859 0.28789,-0.825859 -0.41625,0.159732 c -0.22894,0.08785 -0.51334,0.09973 -0.63199,0.0264 -0.35389,-0.218716 0.35346,-1.417701 0.92448,-1.567026 l 0.52889,-0.138306 1.0007,0.521597 c 1.21904,0.635396 1.24941,0.636822 1.24733,0.05858 l -0.002,-0.463021 -0.81352,-0.463021 c -0.44744,-0.254661 -1.04982,-0.463021 -1.33864,-0.463021 -0.28881,0 -0.74668,-0.118576 -1.01748,-0.263502 l -0.49235,-0.263502 -1.17184,0.502309 c -0.64452,0.27627 -1.24672,0.697431 -1.33823,0.935913 l -0.16639,0.433605 -0.85686,-0.606265 c -0.47136,-0.333446 -1.01749,-0.755093 -1.21371,-0.936994 -0.19622,-0.181901 -0.49114,-0.33073 -0.65537,-0.33073 h -0.2986 l 0.30824,-0.30824 0.30824,-0.308239 2.58894,-0.0084 c 1.42393,-0.0046 5.44645,0.129741 8.93895,0.298618 3.4925,0.168877 10.39813,0.368565 15.34584,0.443749 l 8.99583,0.136699 6.35,0.530727 c 8.11901,0.678579 8.88009,0.76067 11.1125,1.198612 2.0902,0.410043 4.47349,0.855413 7.02358,1.312511 l 1.7319,0.310442 1.40071,1.107194 c 0.77039,0.608957 1.61495,1.107194 1.8768,1.107194 0.26185,0 0.7345,0.209243 1.05033,0.464985 l 0.57423,0.464984 -0.2448,1.089514 -0.24479,1.089514 -2.03857,1.951231 c -2.65094,2.537373 -3.23546,2.840296 -6.82991,3.539556 -0.40018,0.07785 -0.73637,0.288108 -0.74708,0.467236 -0.0107,0.179129 -0.6041,0.826086 -1.31862,1.437684 l -1.29914,1.111995 -1.79868,0.535671 -1.79869,0.535672 -0.91759,0.952078 c -0.50468,0.523643 -1.6915,1.493522 -2.63739,2.155287 -1.72067,1.203824 -3.50304,2.803863 -5.77373,5.183102 -0.66509,0.696878 -1.83252,1.623653 -2.59429,2.059496 -0.76178,0.435845 -1.93862,1.315339 -2.6152,1.954432 l -1.23016,1.161989 -1.02735,0.173569 c -1.45744,0.246235 -2.3017,-0.412332 -0.98062,-0.764939 0.32742,-0.08739 1.13109,-0.773391 1.78594,-1.524445 0.65484,-0.751051 1.89561,-2.03191 2.75726,-2.84635 0.86166,-0.814441 2.35881,-2.265942 3.32701,-3.22556 l 1.76036,-1.744758 1.51635,-0.717348 c 0.834,-0.394541 1.71809,-0.896833 1.96466,-1.116203 1.92314,-1.710991 6.93806,-5.008685 8.22102,-5.405963 2.3389,-0.724249 4.00125,-1.78945 4.00125,-2.563911 0,-0.56416 -1.30007,-2.142275 -1.92937,-2.342009 -0.30772,-0.09766 -0.72459,-0.342676 -0.92638,-0.544468 l -0.3669,-0.366896 -1.76211,0.158666 c -0.96916,0.08727 -2.09111,0.262433 -2.49322,0.38926 l -0.7311,0.230594 -3.65495,-0.413032 -3.65495,-0.413033 -1.1702,0.622049 -1.17019,0.622048 -5.68854,0.03396 c -3.1287,0.01868 -6.9387,0.158306 -8.46667,0.310289 -1.52797,0.151983 -3.79016,0.269684 -5.02708,0.261557 -1.23693,-0.0081 -2.73372,0.06836 -3.32619,0.16997 -0.59248,0.101609 -2.7356,0.292089 -4.7625,0.423287 -5.27905,0.341707 -9.0408,0.768483 -10.56444,1.198551 -1.50635,0.425187 -4.74366,1.430652 -7.27604,2.259843 -2.36038,0.772868 -6.55663,1.828766 -7.26771,1.828766 -0.3219,0 -1.2889,0.345192 -2.14889,0.767093 -1.72283,0.845204 -4.85066,1.767535 -9.104235,2.684652 -1.527968,0.329447 -3.309109,0.825143 -3.958087,1.101547 -0.648981,0.276404 -2.137262,0.620297 -3.307292,0.764207 -2.277938,0.28018 -4.610799,1.026903 -5.573186,1.783915 -0.325943,0.256387 -1.112716,0.614516 -1.748383,0.795841 -0.635669,0.181327 -1.691542,0.513654 -2.346386,0.738505 -0.654844,0.224851 -1.762318,0.571309 -2.461056,0.769908 -0.698739,0.198599 -1.71785,0.715452 -2.264694,1.148559 -0.546846,0.43311 -1.314876,0.867939 -1.706737,0.96629 l -0.712473,0.178819 -0.793146,1.001429 c -1.660346,2.096358 0.651174,3.017414 7.276648,2.899482 1.018646,-0.01812 3.638021,0.10024 5.820833,0.263049 2.182813,0.162808 5.933282,0.401404 8.334376,0.530214 2.401094,0.128807 4.960938,0.311486 5.688542,0.405953 0.727606,0.09446 2.275416,0.211037 3.439576,0.259048 1.16417,0.04801 3.10014,0.165579 4.30215,0.261266 l 2.18548,0.173974 1.59275,-0.809374 1.59274,-0.809376 h 1.40421 c 0.77231,0 2.58445,0.208359 4.02698,0.463021 l 2.62278,0.46302 h 5.06855 c 2.7877,0 5.15902,0.0893 5.26961,0.198438 0.11059,0.109141 0.34868,0.198437 0.52908,0.198437 h 0.32801 l -0.12968,-0.495884 -0.12967,-0.495885 0.88205,-0.174215 c 2.93026,-0.57876 4.01045,-0.703908 5.90759,-0.68444 1.16331,0.01193 2.21406,0.120647 2.33499,0.24158 l 0.21988,0.219877 -1.20974,0.181412 c -0.66536,0.09978 -1.3122,0.118089 -1.43743,0.04069 -0.12523,-0.0774 -0.6316,-0.01469 -1.12526,0.13935 -0.49366,0.154041 -1.59156,0.318731 -2.43979,0.36598 -1.88441,0.104968 -2.04235,0.234968 -1.144,0.941615 0.88965,0.699794 0.88412,0.986078 -0.0257,1.334778 l -0.72761,0.27885 -9.39271,0.410554 c -5.16599,0.225806 -10.46427,0.447151 -11.77395,0.491881 -9.454,0.322871 -11.688894,0.425993 -12.038544,0.555482 -1.060519,0.392753 -7.537956,0.714648 -14.748812,0.732939 l -8.001935,0.02029 -0.861608,-0.31251 z m 75.206112,-31.01204 c 0,-0.273224 0.17859,-0.64499 0.39687,-0.826147 0.51836,-0.430198 0.50326,-1.031406 -0.041,-1.632812 l -0.43788,-0.483855 -1.08347,0.01161 c -0.59591,0.0064 -1.52268,0.168448 -2.05948,0.360135 -0.53681,0.191688 -1.07259,0.254488 -1.19063,0.139557 -0.11804,-0.114931 -0.79991,-0.0983 -1.51527,0.03695 -1.53325,0.289887 -1.67209,0.215929 -1.10758,-0.590015 0.57176,-0.816306 0.53356,-1.281154 -0.1053,-1.281154 -0.29105,0 -0.52917,-0.119063 -0.52917,-0.264584 0,-0.145521 0.17859,-0.264583 0.39687,-0.264583 0.21828,0 0.39688,-0.168019 0.39688,-0.373375 v -0.373374 l -1.61427,-0.08965 c -1.79205,-0.09952 -2.24459,0.05163 -2.00715,0.670403 l 0.15986,0.41658 -0.42676,0.238828 -0.42677,0.238828 0.17774,0.463164 0.17773,0.463163 -0.30155,0.363339 c -0.16585,0.199837 -0.51658,0.36334 -0.77941,0.36334 -0.57653,0 -1.37403,0.739749 -1.16395,1.079664 0.0827,0.133789 0.38563,0.243253 0.6732,0.243253 0.28757,0 0.80904,0.187508 1.15881,0.416685 l 0.63594,0.416686 4.18339,-0.13029 4.1834,-0.13029 0.92604,0.478717 c 1.21041,0.625719 1.32292,0.629054 1.32292,0.03922 z m -45.90522,-3.505319 c -3.85125,-0.203802 -4.84461,-0.375037 -7.269174,-1.253066 -2.008884,-0.727495 -1.929048,-0.967016 0.447101,-1.341383 1.132768,-0.178469 2.595363,-0.430838 3.250203,-0.560819 0.65484,-0.129981 3.97511,-0.21484 7.37837,-0.188575 l 6.18774,0.04775 0.36069,0.360695 c 0.73386,0.733857 0.24931,1.223391 -1.22647,1.239087 l -0.92637,0.0099 v 0.396875 0.396875 l 0.89354,0.08542 c 0.49144,0.04698 1.00474,-0.02578 1.14065,-0.161698 l 0.24712,-0.247117 0.91837,0.315718 c 0.5051,0.173646 1.05741,0.454769 1.22736,0.624719 l 0.309,0.309001 -3.42635,0.01253 c -1.8845,0.0069 -3.96214,0.04349 -4.61698,0.08134 -0.65485,0.03785 -2.8575,-0.01939 -4.8948,-0.127204 z" />
    </g>
    <path
       style="fill:#cc4021;fill-opacity:0;stroke-width:1"
       d="m 91.487754,175.2568 c -3.551945,-0.56496 -7.24148,-0.70525 -10.541851,-2.44906 -3.810715,-2.01346 -5.992177,-6.00646 -9.289124,-8.73655 -3.168474,-2.62371 -7.426765,-2.96311 -10.808191,-5.37105 -2.760331,-1.96565 -6.773998,-0.99639 -9.474325,-2.88725 -2.275987,-1.59372 -5.332154,-1.66007 -7.614543,-3.293 -1.435226,-1.02683 -0.41401,-2.97718 0.752673,-3.92899 1.711118,-1.39597 2.66993,-3.7359 4.710275,-4.62789 1.519544,-0.66431 3.145956,-0.96246 4.792923,-0.99564 1.494719,-0.0301 2.996339,0.14567 4.276954,-1.31368 1.182621,-1.34768 3.108115,-1.22737 4.731574,-1.41472 4.492587,-0.51844 9.020068,-0.44843 13.533263,-0.54392 0.248046,1.65121 -1.779902,2.02154 -3.016683,2.23716 -3.223881,0.56206 -9.311096,-1.36243 -9.632386,1.89452 -0.161265,1.63476 1.870714,1.87484 3.136253,1.94357 2.704139,0.14685 5.441073,1.7e-4 8.114667,0.42529 1.934334,0.30757 3.74677,1.20289 5.139915,2.6891 1.202556,1.28289 3.094662,0.88189 4.661873,0.78671 6.351012,-0.3857 12.712978,-0.646 19.077679,-0.65083 1.68625,-0.001 3.23915,0.82235 4.97396,0.51546 1.9966,-0.3532 3.84987,-1.21707 5.95811,-1.22705 2.5893,-0.0123 5.81063,1.63213 7.76768,-0.0633 1.90252,-1.64821 4.54213,-1.23453 6.85353,-1.50042 4.9424,-0.56854 10.43063,1.26243 14.88467,-0.94537 1.54923,-0.76793 0.44446,-3.13887 -1.2874,-2.91898 -1.61455,0.205 -1.21862,-2.25714 -2.6634,-2.49904 -4.13018,-0.69153 -8.25153,-1.45779 -12.39943,-2.07467 -2.40673,-0.35793 -4.80963,-0.75228 -7.18769,-1.27037 5.20238,-0.21885 10.4119,-0.17106 15.61547,-0.0677 11.16472,0.22182 22.32871,0.48762 33.4877,0.91153 8.65372,0.32874 17.12457,2.97305 25.79723,2.93389 1.77841,-0.008 2.90067,2.04795 4.59204,2.18784 1.33164,0.11014 3.04093,1.53201 2.29126,2.85812 -1.14568,2.02662 -3.10076,3.40738 -4.92002,4.78618 -1.32923,1.00741 -3.19638,0.74261 -4.49981,1.63704 -1.52786,1.04844 -2.58698,2.71459 -4.57756,3.18258 -1.6663,0.39175 -2.95423,1.56298 -4.26032,2.63509 -2.56083,2.10207 -4.91495,4.4253 -7.44428,6.59365 -2.09728,1.79796 -3.8408,4.25654 -6.46496,5.17855 -1.61049,0.56585 -1.28396,-1.10231 -0.20213,-2.15696 2.61406,-2.54838 5.0084,-5.34377 7.8468,-7.64659 1.47993,-1.20068 3.24353,-1.92541 4.78108,-3.05137 2.86113,-2.09522 5.60584,-4.91533 9.17142,-5.38589 1.55767,-0.20557 2.29966,-2.00506 1.31289,-3.27332 -1.33236,-1.71244 -3.77768,-1.98576 -5.7447,-1.41504 -2.85525,0.82843 -5.78443,-0.24181 -8.66582,-0.32854 -1.56425,0.42083 -3.0027,1.25481 -4.70864,1.22697 -2.60585,-0.0425 -5.20806,-0.0101 -7.81432,0.0876 -8.72736,0.32717 -17.5547,0.23679 -26.12952,1.90056 -5.71981,1.10981 -11.2598,2.86747 -16.80805,4.64539 -2.89835,0.92877 -5.74387,1.98858 -8.71297,2.73376 -4.10855,1.03116 -8.24416,1.95151 -12.34822,3.00177 -2.18794,0.55991 -4.029678,1.92293 -6.208662,2.53481 -2.048989,0.57538 -3.93325,1.53579 -5.88466,2.44248 -1.219709,0.56672 -3.218776,1.2334 -2.973113,2.74151 0.278327,1.70864 2.369649,1.74687 3.735903,1.80035 5.79899,0.22698 11.594152,0.48739 17.386782,0.89246 5.41811,0.37888 11.35637,3.45402 16.25613,1.11055 1.78953,-0.8559 3.66124,-1.79945 5.79856,-1.50322 3.69552,0.5122 7.40445,0.82405 11.16199,0.83647 1.6335,0.005 3.90201,1.51377 4.89531,0.21514 1.1882,-1.55345 3.31626,-1.52096 5.07025,-1.59451 1.39324,-0.0584 2.86148,-0.27415 4.19716,0.22692 -1.3244,0.89374 -3.02897,0.0591 -4.41231,0.76406 -1.19144,-0.66748 -2.29532,0.56912 -2.56659,1.59738 -0.47193,1.78886 -2.59189,1.05272 -3.93862,1.15541 -7.14296,0.54466 -14.31049,0.68337 -21.46858,0.95409 -5.34904,0.2023 -10.67243,0.8444 -16.01973,1.04085 -5.21075,0.19143 -10.583029,1.24032 -15.643132,-0.002 -0.150478,-0.0369 -0.297373,-0.0912 -0.432234,-0.16805 z m 29.300896,-34.51736 c -2.74553,-0.0454 -8.32468,1.26432 -8.0707,-1.47537 0.15312,-1.65173 2.17282,-1.16669 3.30673,-1.45661 3.42898,-0.87674 7.00084,-0.77003 10.52696,-0.5855 1.41042,0.0738 3.25505,-0.79924 4.23125,0.22143 1.77064,1.85129 4.53745,1.51632 6.88147,1.69829 1.60939,0.12494 3.2724,0.65137 4.41426,1.84253 -7.09466,-0.2195 -14.19429,-0.0873 -21.28997,-0.24477 z"
       id="path5368"
       inkscape:connector-curvature="0"
       sodipodi:nodetypes="ccsccccscccsccsccsccccccsccccccsccccccssccccccccccssccccscccccccccccccscccccccccccccccsssccscccccccccccccccccccscscsscsccccccccccscccsscscccscccscccccssccccccsscssscccccsccccsccccccsccccccscccccscc"
       inkscape:path-effect="#path-effect5376"
       inkscape:original-d="m 91.487754,175.2568 c -0.47388,-0.17189 -1.500752,-0.32157 -2.281942,-0.33264 -6.194708,-0.0878 -11.835659,-3.25897 -16.30675,-9.16717 l -1.5875,-2.09776 -1.719789,-0.84825 c -1.82982,-0.90253 -3.31598,-1.46599 -5.36864,-2.03546 -0.69718,-0.19342 -1.53061,-0.58812 -1.85208,-0.8771 -2.32038,-2.08591 -4.69654,-3.07327 -9.09793,-3.78044 l -1.89886,-0.30509 -1.22075,-0.77417 c -2.09162,-1.32647 -3.66312,-2.01282 -5.01636,-2.19088 -1.48431,-0.1953 -2.2683,-0.76733 -2.2683,-1.65503 v -0.61045 l 1.45184,-1.66365 c 0.7985,-0.915 1.57902,-1.78271 1.73448,-1.92823 0.15546,-0.14552 0.94844,-0.94919 1.76217,-1.78593 l 1.47951,-1.52136 h 0.66799 c 0.36739,0 1.68929,-0.19143 2.93756,-0.4254 l 2.26958,-0.42541 1.40834,0.1654 1.40835,0.1654 -0.17343,-0.54644 -0.17344,-0.54644 0.30861,-0.37185 c 0.91089,-1.09755 5.41935,-1.78079 12.544481,-1.90107 l 6.062488,-0.10233 0.27722,0.27722 0.277222,0.27722 -0.518882,0.49323 -0.518879,0.49323 -2.248951,0.55507 c -1.23693,0.30529 -3.320529,0.73456 -4.630209,0.95394 -1.30969,0.21937 -3.03495,0.55252 -3.83392,0.74032 l -1.45267,0.34145 -0.0905,0.47011 c -0.0498,0.25856 0.0529,0.64298 0.22829,0.85427 l 0.31883,0.38417 h 1.49071 c 0.81988,0 1.90599,0.1191 2.41357,0.26467 0.50758,0.14557 2.352261,0.27865 4.099299,0.29574 l 3.176421,0.0311 1.322919,0.51407 c 0.727602,0.28274 1.73963,0.71521 2.248961,0.96104 l 0.926039,0.44696 0.0864,0.60957 0.0864,0.60956 0.676249,0.25712 0.676262,0.25711 3.206077,-0.14686 c 1.763343,-0.0808 5.468271,-0.25703 8.233162,-0.39167 2.764898,-0.13464 6.470999,-0.2502 8.235768,-0.2568 l 3.2087,-0.012 1.90473,0.43015 1.90473,0.43014 0.65372,-0.29785 c 0.35954,-0.16382 0.92747,-0.29785 1.26207,-0.29785 0.33459,0 1.0136,-0.20534 1.5089,-0.45631 l 0.90055,-0.45631 5.07594,-0.0406 5.07594,-0.0406 0.93121,-0.57552 0.93122,-0.57552 1.26889,0.0432 c 0.69788,0.0238 1.92373,-0.0952 2.72409,-0.26439 1.42115,-0.30039 7.8548,-0.74347 15.1513,-1.04346 l 0.73149,-0.0301 0.51441,-0.84588 0.51441,-0.84588 -0.28611,-0.34475 c -0.15736,-0.18961 -0.43555,-0.34474 -0.61819,-0.34474 -0.18265,0 -0.4847,-0.18389 -0.67123,-0.40864 l -0.33913,-0.40864 -0.70945,0.15582 -0.70943,0.15582 -0.33455,-0.40312 -0.33455,-0.40311 0.2879,-0.82585 0.28789,-0.82586 -0.41625,0.15973 c -0.22894,0.0879 -0.51334,0.0997 -0.63199,0.0264 -3.09742,-1.17651 -20.73778,-3.26366 -20.26376,-3.72195 l 17.80559,0.0541 c 1.42393,-0.005 5.44646,0.12974 8.93896,0.29861 3.4925,0.16888 10.39813,0.36857 15.34584,0.44375 l 8.99583,0.1367 6.35,0.53073 c 8.11901,0.67858 8.88009,0.76067 11.1125,1.19861 2.0902,0.41004 4.47349,0.85541 7.02358,1.31251 l 1.7319,0.31044 1.40071,1.1072 c 0.77039,0.60895 1.61495,1.10719 1.8768,1.10719 0.26185,0 0.7345,0.20924 1.05033,0.46499 l 0.57423,0.46498 -0.2448,1.08951 -0.24479,1.08952 -2.03857,1.95123 c -2.65094,2.53737 -3.23546,2.8403 -6.82991,3.53956 -0.40018,0.0779 -0.73637,0.2881 -0.74708,0.46723 -0.0107,0.17913 -0.6041,0.82609 -1.31862,1.43769 l -1.29914,1.11199 -1.79868,0.53567 -1.79869,0.53567 -0.91759,0.95208 c -0.50468,0.52364 -1.6915,1.49352 -2.63739,2.15529 -1.72067,1.20382 -3.50304,2.80386 -5.77373,5.1831 -0.66509,0.69688 -1.83252,1.62365 -2.59429,2.0595 -0.76178,0.43584 -1.93862,1.31534 -2.6152,1.95443 l -1.23016,1.16199 -1.02735,0.17357 c -1.45744,0.24623 -2.3017,-0.41234 -0.98062,-0.76494 0.32742,-0.0874 1.13109,-0.77339 1.78594,-1.52445 0.65484,-0.75105 1.89561,-2.03191 2.75726,-2.84635 0.86166,-0.81444 2.35881,-2.26594 3.32701,-3.22556 l 1.76036,-1.74476 1.51635,-0.71734 c 0.834,-0.39454 1.71809,-0.89684 1.96466,-1.11621 1.92314,-1.71099 6.93806,-5.00868 8.22102,-5.40596 2.3389,-0.72425 4.00125,-1.78945 4.00125,-2.56391 0,-0.56416 -1.30007,-2.14228 -1.92937,-2.34201 -0.30772,-0.0977 -0.72459,-0.34268 -0.92638,-0.54447 l -0.3669,-0.36689 -1.76211,0.15866 c -0.96916,0.0873 -2.09111,0.26244 -2.49322,0.38926 l -0.7311,0.2306 -3.65495,-0.41304 -3.65495,-0.41303 -1.1702,0.62205 -1.17019,0.62205 -5.68854,0.034 c -3.1287,0.0187 -6.9387,0.1583 -8.46667,0.31029 -1.52797,0.15198 -3.79016,0.26968 -5.02708,0.26155 -1.23693,-0.008 -2.73372,0.0684 -3.32619,0.16997 -0.59248,0.10161 -2.7356,0.29209 -4.7625,0.42329 -5.27905,0.34171 -9.04081,0.76848 -10.56445,1.19855 -1.50635,0.42519 -4.74366,1.43065 -7.27604,2.25985 -2.36038,0.77286 -6.55663,1.82876 -7.26771,1.82876 -0.3219,0 -1.2889,0.34519 -2.14889,0.76709 -1.72283,0.84521 -4.85066,1.76754 -9.10424,2.68466 -1.52797,0.32944 -3.30911,0.82514 -3.95809,1.10154 -0.64898,0.27641 -2.13726,0.6203 -3.30729,0.76421 -2.27794,0.28018 -4.6108,1.0269 -5.573178,1.78392 -0.325948,0.25638 -1.112718,0.61451 -1.748387,0.79584 -0.635673,0.18132 -1.691543,0.51365 -2.346381,0.7385 -0.654852,0.22485 -1.762321,0.57131 -2.461062,0.76991 -0.698738,0.1986 -1.717849,0.71545 -2.264687,1.14856 -0.546852,0.43311 -1.314882,0.86794 -1.706743,0.96629 l -0.71247,0.17882 -0.793149,1.00143 c -1.660351,2.09635 0.651171,3.01741 7.27665,2.89948 1.018641,-0.0181 3.638021,0.10024 5.820827,0.26305 2.18281,0.16281 5.93328,0.4014 8.33438,0.53021 2.40109,0.12881 4.96094,0.31149 5.68854,0.40595 0.72761,0.0945 2.27542,0.21104 3.43958,0.25905 1.16417,0.048 3.10014,0.16558 4.30215,0.26127 l 2.18548,0.17397 1.59275,-0.80937 1.59274,-0.80938 h 1.40421 c 0.77231,0 2.58445,0.20836 4.02698,0.46302 l 2.62278,0.46302 h 5.06855 c 2.78771,0 5.15903,0.0893 5.26962,0.19844 0.11059,0.10914 0.34868,0.19844 0.52908,0.19844 h 0.32801 l -0.12968,-0.49589 -0.12967,-0.49588 0.88205,-0.17422 c 2.93026,-0.57876 4.01045,-0.7039 5.90759,-0.68444 1.16331,0.0119 2.21406,0.12065 2.33499,0.24158 l 0.21988,0.21988 -1.20974,0.18141 c -0.66536,0.0998 -1.3122,0.11809 -1.43743,0.0407 -0.12523,-0.0774 -0.6316,-0.0147 -1.12526,0.13935 -0.49366,0.15404 -1.59156,0.31873 -2.43979,0.36598 -1.88441,0.10497 -2.04235,0.23497 -1.144,0.94162 0.88965,0.69979 0.88412,0.98608 -0.0257,1.33478 l -0.72761,0.27885 -9.39272,0.41055 c -5.16599,0.22581 -10.46427,0.44715 -11.77395,0.49188 -9.454,0.32287 -11.6889,0.42599 -12.03855,0.55548 -1.06052,0.39276 -7.53795,0.71465 -14.74881,0.73294 l -8.001935,0.0203 -0.8616,-0.31251 z m 29.300896,-34.51736 c -3.85125,-0.20381 -4.84461,-0.37504 -7.26918,-1.25307 -2.00888,-0.72749 -1.92905,-0.96702 0.4471,-1.34138 1.13277,-0.17847 2.59537,-0.43084 3.25021,-0.56082 0.65484,-0.12998 3.54984,-0.66495 3.54984,-0.66495 l 10.01627,0.52417 0.36069,0.3607 c 2.81185,2.6075 7.53681,-0.21811 10.93504,3.18012 l -11.77819,-0.19876 c -1.8845,0.007 -3.96214,0.0435 -4.61698,0.0813 -0.65485,0.0378 -2.8575,-0.0194 -4.8948,-0.12721 z" />
  </g>
</svg>
