<?xml version="1.0" encoding="utf-8"?>
<!-- Generator: Adobe Illustrator 22.1.0, SVG Export Plug-In . SVG Version: 6.00 Build 0)  -->
<svg version="1.1" id="Layer_1" xmlns="http://www.w3.org/2000/svg" xmlns:xlink="http://www.w3.org/1999/xlink" x="0px" y="0px"
	 viewBox="0 0 200 29" style="enable-background:new 0 0 200 29;" xml:space="preserve">
<style type="text/css">
	.st0{fill:#FFFFFF;}
	.st1{clip-path:url(#SVGID_2_);}
</style>
<path class="st0" d="M22,27h58c0.6,0,1,0.4,1,1l0,0c0,0.6-0.4,1-1,1H22c-0.6,0-1-0.4-1-1l0,0C21,27.4,21.4,27,22,27z"/>
<g>
	<defs>
		<rect id="SVGID_1_" width="100.5" height="24"/>
	</defs>
	<clipPath id="SVGID_2_">
		<use xlink:href="#SVGID_1_"  style="overflow:visible;"/>
	</clipPath>
	<g class="st1">
		<path class="st0" d="M97.5,1.5c0-0.4,0.2-0.8,0.4-1.1C98.2,0.1,98.6,0,99,0s0.8,0.2,1.1,0.4c0.3,0.3,0.4,0.7,0.4,1.1
			C100.5,8.9,85.4,24,78,24H22C14.6,24,0,9.4,0,2c0-0.4,0.2-0.8,0.4-1.1c0.3-0.3,0.7-0.4,1.1-0.4s0.8,0.2,1.1,0.4C2.9,1.2,3,1.6,3,2
			"/>
	</g>
</g>
</svg>
