<?xml version="1.0" encoding="utf-8"?>
<!-- Generator: Adobe Illustrator 22.1.0, SVG Export Plug-In . SVG Version: 6.00 Build 0)  -->
<svg version="1.1" id="Layer_1" xmlns="http://www.w3.org/2000/svg" xmlns:xlink="http://www.w3.org/1999/xlink" x="0px" y="0px"
	 viewBox="0 0 200 29" style="enable-background:new 0 0 200 29;" xml:space="preserve">
<style type="text/css">
	.st0{fill:#FFFFFF;}
	.st1{clip-path:url(#SVGID_2_);}
</style>
<path class="st0" d="M26.9,27h45c0.6,0,1,0.4,1,1l0,0c0,0.6-0.4,1-1,1h-45c-0.6,0-1-0.4-1-1l0,0C25.9,27.4,26.3,27,26.9,27z"/>
<g>
	<defs>
		<rect id="SVGID_1_" x="-0.1" width="100.1" height="24"/>
	</defs>
	<clipPath id="SVGID_2_">
		<use xlink:href="#SVGID_1_"  style="overflow:visible;"/>
	</clipPath>
	<g class="st1">
		<path class="st0" d="M91.5,2.5c-0.3-0.2-0.8-1.8-0.6-2.1C91.2,0.1,91.6,0,92,0s0.8,0.2,1.1,0.4c0.3,0.3,0.5,0.7,0.4,1.1
			C93.1,3.3,123.1,21.6,58.1,24H41.9c-65-2.4-35-20.8-35.4-22.5C6.4,1.1,6.7,0.7,6.9,0.4C7.2,0.1,7.6,0,8,0c0.4,0,0.8,0.2,1.1,0.4
			c0.3,0.3-0.2,1.8-0.6,2.1"/>
	</g>
</g>
</svg>
