<?xml version="1.0" encoding="utf-8"?>
<!-- Generator: Adobe Illustrator 22.1.0, SVG Export Plug-In . SVG Version: 6.00 Build 0)  -->
<svg version="1.1" id="Layer_1" xmlns="http://www.w3.org/2000/svg" xmlns:xlink="http://www.w3.org/1999/xlink" x="0px" y="0px"
	 viewBox="0 0 200 29" style="enable-background:new 0 0 200 29;" xml:space="preserve">
<style type="text/css">
	.st0{clip-path:url(#SVGID_2_);}
	.st1{fill:#FFFFFF;}
</style>
<g>
	<defs>
		<rect id="SVGID_1_" width="100.7" height="24"/>
	</defs>
	<clipPath id="SVGID_2_">
		<use xlink:href="#SVGID_1_"  style="overflow:visible;"/>
	</clipPath>
	<g class="st0">
		<path class="st1" d="M95.6,2.5C96,2.4,97.8,0.7,98,0.4C98.3,0.1,98.7,0,99.1,0s0.8,0.2,1.1,0.4c0.3,0.3,0.8,0.9,0.4,1.1
			C90.1,7.6,81.6,21,73.3,24H27.4C19.1,21,10.6,7.6,0.1,1.5c-0.3-0.2,0.2-0.8,0.4-1.1C0.8,0.1,1.2,0,1.6,0s0.8,0.2,1.1,0.4
			c0.3,0.3,2,2,2.4,2.1"/>
	</g>
</g>
<path class="st1" d="M28,27h44c0.6,0,1,0.4,1,1l0,0c0,0.6-0.4,1-1,1H28c-0.6,0-1-0.4-1-1l0,0C27,27.4,27.4,27,28,27z"/>
</svg>
