<svg width="190" height="190" viewBox="0 0 190 190" fill="none" xmlns="http://www.w3.org/2000/svg">
<rect width="190" height="190" fill="black" fill-opacity="0"/>
<rect width="190" height="30" fill="black" fill-opacity="0" transform="translate(190 30) rotate(-180)"/>
<rect x="190" y="30" width="190" height="2" transform="rotate(-180 190 30)" fill="#B64025"/>
<rect x="190" y="26" width="190" height="2" transform="rotate(-180 190 26)" fill="#B64025"/>
<rect x="190" y="22" width="190" height="2" transform="rotate(-180 190 22)" fill="#B64025"/>
<rect x="190" y="18" width="190" height="2" transform="rotate(-180 190 18)" fill="#B64025"/>
<rect x="190" y="14" width="190" height="2" transform="rotate(-180 190 14)" fill="#B64025"/>
<rect x="190" y="10" width="190" height="2" transform="rotate(-180 190 10)" fill="#B64025"/>
<rect x="190" y="6" width="190" height="2" transform="rotate(-180 190 6)" fill="#B64025"/>
<rect x="190" y="2" width="190" height="2" transform="rotate(-180 190 2)" fill="#B64025"/>
<rect width="190" height="30" fill="black" fill-opacity="0" transform="translate(0 190) rotate(-90)"/>
<rect y="190" width="190" height="2" transform="rotate(-90 0 190)" fill="#B64025"/>
<rect x="4" y="190" width="190" height="2" transform="rotate(-90 4 190)" fill="#B64025"/>
<rect x="8" y="190" width="190" height="2" transform="rotate(-90 8 190)" fill="#B64025"/>
<rect x="12" y="190" width="190" height="2" transform="rotate(-90 12 190)" fill="#B64025"/>
<rect x="16" y="190" width="190" height="2" transform="rotate(-90 16 190)" fill="#B64025"/>
<rect x="20" y="190" width="190" height="2" transform="rotate(-90 20 190)" fill="#B64025"/>
<rect x="24" y="190" width="190" height="2" transform="rotate(-90 24 190)" fill="#B64025"/>
<rect x="28" y="190" width="190" height="2" transform="rotate(-90 28 190)" fill="#B64025"/>
<rect width="188.989" height="30" fill="black" fill-opacity="0" transform="translate(125 190) rotate(-90)"/>
<rect x="125" y="190" width="188.989" height="2" transform="rotate(-90 125 190)" fill="#B64025"/>
<rect x="129" y="190" width="188.989" height="2" transform="rotate(-90 129 190)" fill="#B64025"/>
<rect x="133" y="190" width="188.989" height="2" transform="rotate(-90 133 190)" fill="#B64025"/>
<rect x="137" y="190" width="188.989" height="2" transform="rotate(-90 137 190)" fill="#B64025"/>
<rect x="141" y="190" width="188.989" height="2" transform="rotate(-90 141 190)" fill="#B64025"/>
<rect x="145" y="190" width="188.989" height="2" transform="rotate(-90 145 190)" fill="#B64025"/>
<rect x="149" y="190" width="188.989" height="2" transform="rotate(-90 149 190)" fill="#B64025"/>
<rect x="153" y="190" width="188.989" height="2" transform="rotate(-90 153 190)" fill="#B64025"/>
<rect width="187.979" height="30" fill="black" fill-opacity="0" transform="translate(64 190) rotate(-90)"/>
<rect x="64" y="190" width="187.979" height="2" transform="rotate(-90 64 190)" fill="#B64025"/>
<rect x="68" y="190" width="187.979" height="2" transform="rotate(-90 68 190)" fill="#B64025"/>
<rect x="72" y="190" width="187.979" height="2" transform="rotate(-90 72 190)" fill="#B64025"/>
<rect x="76" y="190" width="187.979" height="2" transform="rotate(-90 76 190)" fill="#B64025"/>
<rect x="80" y="190" width="187.979" height="2" transform="rotate(-90 80 190)" fill="#B64025"/>
<rect x="84" y="190" width="187.979" height="2" transform="rotate(-90 84 190)" fill="#B64025"/>
<rect x="88" y="190" width="187.979" height="2" transform="rotate(-90 88 190)" fill="#B64025"/>
<rect x="92" y="190" width="187.979" height="2" transform="rotate(-90 92 190)" fill="#B64025"/>
<rect width="190" height="30" fill="black" fill-opacity="0" transform="translate(190 94) rotate(-180)"/>
<rect x="190" y="94" width="190" height="2" transform="rotate(-180 190 94)" fill="#B64025"/>
<rect x="190" y="90" width="190" height="2" transform="rotate(-180 190 90)" fill="#B64025"/>
<rect x="190" y="86" width="190" height="2" transform="rotate(-180 190 86)" fill="#B64025"/>
<rect x="190" y="82" width="190" height="2" transform="rotate(-180 190 82)" fill="#B64025"/>
<rect x="190" y="78" width="190" height="2" transform="rotate(-180 190 78)" fill="#B64025"/>
<rect x="190" y="74" width="190" height="2" transform="rotate(-180 190 74)" fill="#B64025"/>
<rect x="190" y="70" width="190" height="2" transform="rotate(-180 190 70)" fill="#B64025"/>
<rect x="190" y="66" width="190" height="2" transform="rotate(-180 190 66)" fill="#B64025"/>
<rect width="190" height="30" fill="black" fill-opacity="0" transform="translate(190 158) rotate(-180)"/>
<rect x="190" y="158" width="190" height="2" transform="rotate(-180 190 158)" fill="#B64025"/>
<rect x="190" y="154" width="190" height="2" transform="rotate(-180 190 154)" fill="#B64025"/>
<rect x="190" y="150" width="190" height="2" transform="rotate(-180 190 150)" fill="#B64025"/>
<rect x="190" y="146" width="190" height="2" transform="rotate(-180 190 146)" fill="#B64025"/>
<rect x="190" y="142" width="190" height="2" transform="rotate(-180 190 142)" fill="#B64025"/>
<rect x="190" y="138" width="190" height="2" transform="rotate(-180 190 138)" fill="#B64025"/>
<rect x="190" y="134" width="190" height="2" transform="rotate(-180 190 134)" fill="#B64025"/>
<rect x="190" y="130" width="190" height="2" transform="rotate(-180 190 130)" fill="#B64025"/>
</svg>
