<svg width="190" height="190" viewBox="0 0 190 190" fill="none" xmlns="http://www.w3.org/2000/svg">
<rect width="190" height="190" fill="black" fill-opacity="0"/>
<rect width="190" height="30" fill="black" fill-opacity="0" transform="translate(190) scale(-1 1)"/>
<mask id="mask0" mask-type="alpha" maskUnits="userSpaceOnUse" x="0" y="0" width="190" height="30">
<rect x="190" width="190" height="30" transform="scale(-1 1)" fill="#B64025"/>
</mask>
<g mask="url(#mask0)">
<rect width="237.436" height="75.3275" fill="black" fill-opacity="0" transform="translate(223.791 -23.226) scale(-1 1)"/>
<rect width="28.4573" height="29.438" fill="black" fill-opacity="0" transform="translate(7.45361 36.5026) scale(1.0136 -0.986209) rotate(45)"/>
<rect width="28.457" height="1.96255" transform="translate(7.45361 36.5026) scale(1.0136 -0.986209) rotate(45)" fill="#B64025"/>
<rect width="28.457" height="1.96255" transform="translate(4.64014 33.7654) scale(1.0136 -0.986209) rotate(45)" fill="#B64025"/>
<rect width="28.457" height="1.96255" transform="translate(1.82764 31.0282) scale(1.0136 -0.986209) rotate(45)" fill="#B64025"/>
<rect width="28.457" height="1.96255" transform="translate(-0.98584 28.291) scale(1.0136 -0.986209) rotate(45)" fill="#B64025"/>
<rect width="28.457" height="1.96255" transform="translate(-3.79883 25.5538) scale(1.0136 -0.986209) rotate(45)" fill="#B64025"/>
<rect width="28.457" height="1.96255" transform="translate(-6.6123 22.8167) scale(1.0136 -0.986209) rotate(45)" fill="#B64025"/>
<rect width="28.457" height="1.96255" transform="translate(-9.42578 20.0795) scale(1.0136 -0.986209) rotate(45)" fill="#B64025"/>
<rect width="28.457" height="1.96255" transform="translate(-12.2388 17.3423) scale(1.0136 -0.986209) rotate(45)" fill="#B64025"/>
<rect width="28.4573" height="29.4381" fill="black" fill-opacity="0" transform="translate(27.3462 17.1478) scale(1.0136 -0.986209) rotate(45)"/>
<rect width="28.457" height="1.96255" transform="translate(27.3462 17.1477) scale(1.0136 -0.986209) rotate(45)" fill="#B64025"/>
<rect width="28.457" height="1.96255" transform="translate(24.5327 14.4105) scale(1.0136 -0.986209) rotate(45)" fill="#B64025"/>
<rect width="28.457" height="1.96255" transform="translate(21.7202 11.6733) scale(1.0136 -0.986209) rotate(45)" fill="#B64025"/>
<rect width="28.457" height="1.96255" transform="translate(18.9067 8.9361) scale(1.0136 -0.986209) rotate(45)" fill="#B64025"/>
<rect width="28.457" height="1.96255" transform="translate(16.0938 6.19891) scale(1.0136 -0.986209) rotate(45)" fill="#B64025"/>
<rect width="28.457" height="1.96255" transform="translate(13.2803 3.46173) scale(1.0136 -0.986209) rotate(45)" fill="#B64025"/>
<rect width="28.457" height="1.96255" transform="translate(10.4668 0.724548) scale(1.0136 -0.986209) rotate(45)" fill="#B64025"/>
<rect width="237.436" height="75.3275" fill="black" fill-opacity="0" transform="translate(223.791 -23.226) scale(-1 1)"/>
<rect width="28.8215" height="29.4381" fill="black" fill-opacity="0" transform="translate(37.0312 51.2726) scale(1.0136 -0.986209) rotate(45)"/>
<rect width="28.8212" height="1.96255" transform="translate(37.0312 51.2725) scale(1.0136 -0.986209) rotate(45)" fill="#B64025"/>
<rect width="28.8212" height="1.96255" transform="translate(34.2178 48.5354) scale(1.0136 -0.986209) rotate(45)" fill="#B64025"/>
<rect width="28.8212" height="1.96255" transform="translate(31.4048 45.7982) scale(1.0136 -0.986209) rotate(45)" fill="#B64025"/>
<rect width="28.8212" height="1.96255" transform="translate(28.5913 43.061) scale(1.0136 -0.986209) rotate(45)" fill="#B64025"/>
<rect width="28.8212" height="1.96255" transform="translate(25.7788 40.3238) scale(1.0136 -0.986209) rotate(45)" fill="#B64025"/>
<rect width="28.8212" height="1.96255" transform="translate(22.9653 37.5866) scale(1.0136 -0.986209) rotate(45)" fill="#B64025"/>
<rect width="28.8212" height="1.96255" transform="translate(20.1519 34.8494) scale(1.0136 -0.986209) rotate(45)" fill="#B64025"/>
<rect width="28.8212" height="1.96255" transform="translate(17.3389 32.1122) scale(1.0136 -0.986209) rotate(45)" fill="#B64025"/>
<rect width="46.2986" height="29.4381" fill="black" fill-opacity="0" transform="translate(57.1846 31.6638) scale(1.0136 -0.986209) rotate(45)"/>
<rect width="46.2983" height="1.96255" transform="translate(57.1846 31.6636) scale(1.0136 -0.986209) rotate(45)" fill="#B64025"/>
<rect width="46.2983" height="1.96255" transform="translate(54.3711 28.9265) scale(1.0136 -0.986209) rotate(45)" fill="#B64025"/>
<rect width="46.2983" height="1.96255" transform="translate(51.5581 26.1893) scale(1.0136 -0.986209) rotate(45)" fill="#B64025"/>
<rect width="46.2983" height="1.96255" transform="translate(48.7451 23.4521) scale(1.0136 -0.986209) rotate(45)" fill="#B64025"/>
<rect width="46.2983" height="1.96255" transform="translate(45.9321 20.7149) scale(1.0136 -0.986209) rotate(45)" fill="#B64025"/>
<rect width="46.2983" height="1.96255" transform="translate(43.1187 17.9777) scale(1.0136 -0.986209) rotate(45)" fill="#B64025"/>
<rect width="46.2983" height="1.96255" transform="translate(40.3052 15.2405) scale(1.0136 -0.986209) rotate(45)" fill="#B64025"/>
<rect width="46.2983" height="1.96255" transform="translate(37.4922 12.5034) scale(1.0136 -0.986209) rotate(45)" fill="#B64025"/>
<rect width="28.8215" height="29.4382" fill="black" fill-opacity="0" transform="translate(80.937 52.1014) scale(1.0136 -0.986209) rotate(45)"/>
<rect width="28.8212" height="1.96255" transform="translate(78.1235 49.3641) scale(1.0136 -0.986209) rotate(45)" fill="#B64025"/>
<rect width="28.8212" height="1.96255" transform="translate(75.3105 46.6269) scale(1.0136 -0.986209) rotate(45)" fill="#B64025"/>
<rect width="28.8212" height="1.96255" transform="translate(72.4971 43.8897) scale(1.0136 -0.986209) rotate(45)" fill="#B64025"/>
<rect width="28.8212" height="1.96255" transform="translate(69.6846 41.1525) scale(1.0136 -0.986209) rotate(45)" fill="#B64025"/>
<rect width="28.8212" height="1.96255" transform="translate(66.8711 38.4153) scale(1.0136 -0.986209) rotate(45)" fill="#B64025"/>
<rect width="28.8212" height="1.96255" transform="translate(64.0576 35.6782) scale(1.0136 -0.986209) rotate(45)" fill="#B64025"/>
<rect width="28.8212" height="1.96255" transform="translate(61.2446 32.941) scale(1.0136 -0.986209) rotate(45)" fill="#B64025"/>
<rect width="46.2986" height="29.4382" fill="black" fill-opacity="0" transform="translate(101.091 32.4926) scale(1.0136 -0.986209) rotate(45)"/>
<rect width="46.2983" height="1.96255" transform="translate(101.091 32.4925) scale(1.0136 -0.986209) rotate(45)" fill="#B64025"/>
<rect width="46.2983" height="1.96255" transform="translate(98.2773 29.7552) scale(1.0136 -0.986209) rotate(45)" fill="#B64025"/>
<rect width="46.2983" height="1.96255" transform="translate(95.4644 27.0181) scale(1.0136 -0.986209) rotate(45)" fill="#B64025"/>
<rect width="46.2983" height="1.96255" transform="translate(92.6509 24.2809) scale(1.0136 -0.986209) rotate(45)" fill="#B64025"/>
<rect width="46.2983" height="1.96255" transform="translate(89.8379 21.5437) scale(1.0136 -0.986209) rotate(45)" fill="#B64025"/>
<rect width="46.2983" height="1.96255" transform="translate(87.0249 18.8065) scale(1.0136 -0.986209) rotate(45)" fill="#B64025"/>
<rect width="46.2983" height="1.96255" transform="translate(84.2114 16.0693) scale(1.0136 -0.986209) rotate(45)" fill="#B64025"/>
<rect width="46.2983" height="1.96255" transform="translate(81.3984 13.3322) scale(1.0136 -0.986209) rotate(45)" fill="#B64025"/>
<rect width="28.8215" height="29.4384" fill="black" fill-opacity="0" transform="translate(125.695 52.1015) scale(1.0136 -0.986209) rotate(45)"/>
<rect width="28.8212" height="1.96255" transform="translate(122.882 49.3641) scale(1.0136 -0.986209) rotate(45)" fill="#B64025"/>
<rect width="28.8212" height="1.96255" transform="translate(120.069 46.6269) scale(1.0136 -0.986209) rotate(45)" fill="#B64025"/>
<rect width="28.8212" height="1.96255" transform="translate(117.255 43.8897) scale(1.0136 -0.986209) rotate(45)" fill="#B64025"/>
<rect width="28.8212" height="1.96255" transform="translate(114.442 41.1525) scale(1.0136 -0.986209) rotate(45)" fill="#B64025"/>
<rect width="28.8212" height="1.96255" transform="translate(111.629 38.4153) scale(1.0136 -0.986209) rotate(45)" fill="#B64025"/>
<rect width="28.8212" height="1.96255" transform="translate(108.816 35.6782) scale(1.0136 -0.986209) rotate(45)" fill="#B64025"/>
<rect width="28.8212" height="1.96255" transform="translate(106.003 32.941) scale(1.0136 -0.986209) rotate(45)" fill="#B64025"/>
<rect width="46.2986" height="29.4381" fill="black" fill-opacity="0" transform="translate(145.849 32.4926) scale(1.0136 -0.986209) rotate(45)"/>
<rect width="46.2983" height="1.96255" transform="translate(145.849 32.4925) scale(1.0136 -0.986209) rotate(45)" fill="#B64025"/>
<rect width="46.2983" height="1.96255" transform="translate(143.036 29.7552) scale(1.0136 -0.986209) rotate(45)" fill="#B64025"/>
<rect width="46.2983" height="1.96255" transform="translate(140.223 27.0181) scale(1.0136 -0.986209) rotate(45)" fill="#B64025"/>
<rect width="46.2983" height="1.96255" transform="translate(137.41 24.2809) scale(1.0136 -0.986209) rotate(45)" fill="#B64025"/>
<rect width="46.2983" height="1.96255" transform="translate(134.597 21.5437) scale(1.0136 -0.986209) rotate(45)" fill="#B64025"/>
<rect width="46.2983" height="1.96255" transform="translate(131.783 18.8065) scale(1.0136 -0.986209) rotate(45)" fill="#B64025"/>
<rect width="46.2983" height="1.96255" transform="translate(128.97 16.0693) scale(1.0136 -0.986209) rotate(45)" fill="#B64025"/>
<rect width="46.2983" height="1.96255" transform="translate(126.157 13.3322) scale(1.0136 -0.986209) rotate(45)" fill="#B64025"/>
<rect width="28.8215" height="29.4382" fill="black" fill-opacity="0" transform="translate(170.454 52.1014) scale(1.0136 -0.986209) rotate(45)"/>
<rect width="28.8212" height="1.96255" transform="translate(167.64 49.3641) scale(1.0136 -0.986209) rotate(45)" fill="#B64025"/>
<rect width="28.8212" height="1.96255" transform="translate(164.827 46.6269) scale(1.0136 -0.986209) rotate(45)" fill="#B64025"/>
<rect width="28.8212" height="1.96255" transform="translate(162.014 43.8897) scale(1.0136 -0.986209) rotate(45)" fill="#B64025"/>
<rect width="28.8212" height="1.96255" transform="translate(159.201 41.1525) scale(1.0136 -0.986209) rotate(45)" fill="#B64025"/>
<rect width="28.8212" height="1.96255" transform="translate(156.388 38.4153) scale(1.0136 -0.986209) rotate(45)" fill="#B64025"/>
<rect width="28.8212" height="1.96255" transform="translate(153.574 35.6782) scale(1.0136 -0.986209) rotate(45)" fill="#B64025"/>
<rect width="28.8212" height="1.96255" transform="translate(150.761 32.941) scale(1.0136 -0.986209) rotate(45)" fill="#B64025"/>
<rect width="46.2986" height="29.4382" fill="black" fill-opacity="0" transform="translate(190.607 32.4926) scale(1.0136 -0.986209) rotate(45)"/>
<rect width="46.2983" height="1.96255" transform="translate(190.607 32.4925) scale(1.0136 -0.986209) rotate(45)" fill="#B64025"/>
<rect width="46.2983" height="1.96255" transform="translate(187.793 29.7552) scale(1.0136 -0.986209) rotate(45)" fill="#B64025"/>
<rect width="46.2983" height="1.96255" transform="translate(184.98 27.0181) scale(1.0136 -0.986209) rotate(45)" fill="#B64025"/>
<rect width="46.2983" height="1.96255" transform="translate(182.167 24.2809) scale(1.0136 -0.986209) rotate(45)" fill="#B64025"/>
<rect width="46.2983" height="1.96255" transform="translate(179.354 21.5437) scale(1.0136 -0.986209) rotate(45)" fill="#B64025"/>
<rect width="46.2983" height="1.96255" transform="translate(176.541 18.8065) scale(1.0136 -0.986209) rotate(45)" fill="#B64025"/>
<rect width="46.2983" height="1.96255" transform="translate(173.728 16.0693) scale(1.0136 -0.986209) rotate(45)" fill="#B64025"/>
<rect width="46.2983" height="1.96255" transform="translate(170.915 13.3322) scale(1.0136 -0.986209) rotate(45)" fill="#B64025"/>
<rect width="28.4573" height="29.438" fill="black" fill-opacity="0" transform="translate(7.45361 36.5026) scale(1.0136 -0.986209) rotate(45)"/>
<rect width="28.457" height="1.96255" transform="translate(7.45361 36.5026) scale(1.0136 -0.986209) rotate(45)" fill="#B64025"/>
<rect width="28.457" height="1.96255" transform="translate(4.64014 33.7653) scale(1.0136 -0.986209) rotate(45)" fill="#B64025"/>
<rect width="28.457" height="1.96255" transform="translate(1.82764 31.0281) scale(1.0136 -0.986209) rotate(45)" fill="#B64025"/>
<rect width="28.457" height="1.96255" transform="translate(-0.98584 28.291) scale(1.0136 -0.986209) rotate(45)" fill="#B64025"/>
<rect width="28.457" height="1.96255" transform="translate(-3.79883 25.5538) scale(1.0136 -0.986209) rotate(45)" fill="#B64025"/>
<rect width="28.457" height="1.96255" transform="translate(-6.6123 22.8166) scale(1.0136 -0.986209) rotate(45)" fill="#B64025"/>
<rect width="28.457" height="1.96255" transform="translate(-9.42578 20.0794) scale(1.0136 -0.986209) rotate(45)" fill="#B64025"/>
<rect width="28.457" height="1.96255" transform="translate(-12.2388 17.3422) scale(1.0136 -0.986209) rotate(45)" fill="#B64025"/>
<rect width="28.4573" height="29.4381" fill="black" fill-opacity="0" transform="translate(27.3462 17.1477) scale(1.0136 -0.986209) rotate(45)"/>
<rect width="28.457" height="1.96255" transform="translate(27.3462 17.1476) scale(1.0136 -0.986209) rotate(45)" fill="#B64025"/>
<rect width="28.457" height="1.96255" transform="translate(24.5327 14.4104) scale(1.0136 -0.986209) rotate(45)" fill="#B64025"/>
<rect width="28.457" height="1.96255" transform="translate(21.7202 11.6732) scale(1.0136 -0.986209) rotate(45)" fill="#B64025"/>
<rect width="28.457" height="1.96255" transform="translate(18.9067 8.93604) scale(1.0136 -0.986209) rotate(45)" fill="#B64025"/>
<rect width="28.457" height="1.96255" transform="translate(16.0938 6.19885) scale(1.0136 -0.986209) rotate(45)" fill="#B64025"/>
<rect width="28.457" height="1.96255" transform="translate(13.2803 3.46167) scale(1.0136 -0.986209) rotate(45)" fill="#B64025"/>
<rect width="28.457" height="1.96255" transform="translate(10.4668 0.724487) scale(1.0136 -0.986209) rotate(45)" fill="#B64025"/>
<rect width="190" height="30" fill="black" fill-opacity="0" transform="translate(190) scale(-1 1)"/>
<mask id="mask1" mask-type="alpha" maskUnits="userSpaceOnUse" x="0" y="0" width="190" height="30">
<rect x="190" width="190" height="30" transform="scale(-1 1)" fill="#B64025"/>
</mask>
<g mask="url(#mask1)">
<rect width="237.436" height="75.3275" fill="black" fill-opacity="0" transform="translate(223.791 -23.226) scale(-1 1)"/>
<rect width="28.4573" height="29.438" fill="black" fill-opacity="0" transform="translate(7.45361 36.5026) scale(1.0136 -0.986209) rotate(45)"/>
<rect width="28.457" height="1.96255" transform="translate(7.45361 36.5026) scale(1.0136 -0.986209) rotate(45)" fill="#B64025"/>
<rect width="28.457" height="1.96255" transform="translate(4.64014 33.7654) scale(1.0136 -0.986209) rotate(45)" fill="#B64025"/>
<rect width="28.457" height="1.96255" transform="translate(1.82764 31.0282) scale(1.0136 -0.986209) rotate(45)" fill="#B64025"/>
<rect width="28.457" height="1.96255" transform="translate(-0.98584 28.291) scale(1.0136 -0.986209) rotate(45)" fill="#B64025"/>
<rect width="28.457" height="1.96255" transform="translate(-3.79883 25.5538) scale(1.0136 -0.986209) rotate(45)" fill="#B64025"/>
<rect width="28.457" height="1.96255" transform="translate(-6.6123 22.8167) scale(1.0136 -0.986209) rotate(45)" fill="#B64025"/>
<rect width="28.457" height="1.96255" transform="translate(-9.42578 20.0795) scale(1.0136 -0.986209) rotate(45)" fill="#B64025"/>
<rect width="28.457" height="1.96255" transform="translate(-12.2388 17.3423) scale(1.0136 -0.986209) rotate(45)" fill="#B64025"/>
<rect width="28.4573" height="29.4381" fill="black" fill-opacity="0" transform="translate(27.3462 17.1478) scale(1.0136 -0.986209) rotate(45)"/>
<rect width="28.457" height="1.96255" transform="translate(27.3462 17.1477) scale(1.0136 -0.986209) rotate(45)" fill="#B64025"/>
<rect width="28.457" height="1.96255" transform="translate(24.5327 14.4105) scale(1.0136 -0.986209) rotate(45)" fill="#B64025"/>
<rect width="28.457" height="1.96255" transform="translate(21.7202 11.6733) scale(1.0136 -0.986209) rotate(45)" fill="#B64025"/>
<rect width="28.457" height="1.96255" transform="translate(18.9067 8.9361) scale(1.0136 -0.986209) rotate(45)" fill="#B64025"/>
<rect width="28.457" height="1.96255" transform="translate(16.0938 6.19891) scale(1.0136 -0.986209) rotate(45)" fill="#B64025"/>
<rect width="28.457" height="1.96255" transform="translate(13.2803 3.46173) scale(1.0136 -0.986209) rotate(45)" fill="#B64025"/>
<rect width="28.457" height="1.96255" transform="translate(10.4668 0.724548) scale(1.0136 -0.986209) rotate(45)" fill="#B64025"/>
<rect width="237.436" height="75.3275" fill="black" fill-opacity="0" transform="translate(223.791 -23.226) scale(-1 1)"/>
<rect width="28.8215" height="29.4381" fill="black" fill-opacity="0" transform="translate(37.0312 51.2726) scale(1.0136 -0.986209) rotate(45)"/>
<rect width="28.8212" height="1.96255" transform="translate(37.0312 51.2725) scale(1.0136 -0.986209) rotate(45)" fill="#B64025"/>
<rect width="28.8212" height="1.96255" transform="translate(34.2178 48.5354) scale(1.0136 -0.986209) rotate(45)" fill="#B64025"/>
<rect width="28.8212" height="1.96255" transform="translate(31.4048 45.7982) scale(1.0136 -0.986209) rotate(45)" fill="#B64025"/>
<rect width="28.8212" height="1.96255" transform="translate(28.5913 43.061) scale(1.0136 -0.986209) rotate(45)" fill="#B64025"/>
<rect width="28.8212" height="1.96255" transform="translate(25.7788 40.3238) scale(1.0136 -0.986209) rotate(45)" fill="#B64025"/>
<rect width="28.8212" height="1.96255" transform="translate(22.9653 37.5866) scale(1.0136 -0.986209) rotate(45)" fill="#B64025"/>
<rect width="28.8212" height="1.96255" transform="translate(20.1519 34.8494) scale(1.0136 -0.986209) rotate(45)" fill="#B64025"/>
<rect width="28.8212" height="1.96255" transform="translate(17.3389 32.1122) scale(1.0136 -0.986209) rotate(45)" fill="#B64025"/>
<rect width="46.2986" height="29.4381" fill="black" fill-opacity="0" transform="translate(57.1846 31.6638) scale(1.0136 -0.986209) rotate(45)"/>
<rect width="46.2983" height="1.96255" transform="translate(57.1846 31.6636) scale(1.0136 -0.986209) rotate(45)" fill="#B64025"/>
<rect width="46.2983" height="1.96255" transform="translate(54.3711 28.9265) scale(1.0136 -0.986209) rotate(45)" fill="#B64025"/>
<rect width="46.2983" height="1.96255" transform="translate(51.5581 26.1893) scale(1.0136 -0.986209) rotate(45)" fill="#B64025"/>
<rect width="46.2983" height="1.96255" transform="translate(48.7451 23.4521) scale(1.0136 -0.986209) rotate(45)" fill="#B64025"/>
<rect width="46.2983" height="1.96255" transform="translate(45.9321 20.7149) scale(1.0136 -0.986209) rotate(45)" fill="#B64025"/>
<rect width="46.2983" height="1.96255" transform="translate(43.1187 17.9777) scale(1.0136 -0.986209) rotate(45)" fill="#B64025"/>
<rect width="46.2983" height="1.96255" transform="translate(40.3052 15.2405) scale(1.0136 -0.986209) rotate(45)" fill="#B64025"/>
<rect width="46.2983" height="1.96255" transform="translate(37.4922 12.5034) scale(1.0136 -0.986209) rotate(45)" fill="#B64025"/>
<rect width="28.8215" height="29.4382" fill="black" fill-opacity="0" transform="translate(80.937 52.1014) scale(1.0136 -0.986209) rotate(45)"/>
<rect width="28.8212" height="1.96255" transform="translate(78.1235 49.3641) scale(1.0136 -0.986209) rotate(45)" fill="#B64025"/>
<rect width="28.8212" height="1.96255" transform="translate(75.3105 46.6269) scale(1.0136 -0.986209) rotate(45)" fill="#B64025"/>
<rect width="28.8212" height="1.96255" transform="translate(72.4971 43.8897) scale(1.0136 -0.986209) rotate(45)" fill="#B64025"/>
<rect width="28.8212" height="1.96255" transform="translate(69.6846 41.1525) scale(1.0136 -0.986209) rotate(45)" fill="#B64025"/>
<rect width="28.8212" height="1.96255" transform="translate(66.8711 38.4153) scale(1.0136 -0.986209) rotate(45)" fill="#B64025"/>
<rect width="28.8212" height="1.96255" transform="translate(64.0576 35.6782) scale(1.0136 -0.986209) rotate(45)" fill="#B64025"/>
<rect width="28.8212" height="1.96255" transform="translate(61.2446 32.941) scale(1.0136 -0.986209) rotate(45)" fill="#B64025"/>
<rect width="46.2986" height="29.4382" fill="black" fill-opacity="0" transform="translate(101.091 32.4926) scale(1.0136 -0.986209) rotate(45)"/>
<rect width="46.2983" height="1.96255" transform="translate(101.091 32.4925) scale(1.0136 -0.986209) rotate(45)" fill="#B64025"/>
<rect width="46.2983" height="1.96255" transform="translate(98.2773 29.7552) scale(1.0136 -0.986209) rotate(45)" fill="#B64025"/>
<rect width="46.2983" height="1.96255" transform="translate(95.4644 27.0181) scale(1.0136 -0.986209) rotate(45)" fill="#B64025"/>
<rect width="46.2983" height="1.96255" transform="translate(92.6509 24.2809) scale(1.0136 -0.986209) rotate(45)" fill="#B64025"/>
<rect width="46.2983" height="1.96255" transform="translate(89.8379 21.5437) scale(1.0136 -0.986209) rotate(45)" fill="#B64025"/>
<rect width="46.2983" height="1.96255" transform="translate(87.0249 18.8065) scale(1.0136 -0.986209) rotate(45)" fill="#B64025"/>
<rect width="46.2983" height="1.96255" transform="translate(84.2114 16.0693) scale(1.0136 -0.986209) rotate(45)" fill="#B64025"/>
<rect width="46.2983" height="1.96255" transform="translate(81.3984 13.3322) scale(1.0136 -0.986209) rotate(45)" fill="#B64025"/>
<rect width="28.8215" height="29.4384" fill="black" fill-opacity="0" transform="translate(125.695 52.1015) scale(1.0136 -0.986209) rotate(45)"/>
<rect width="28.8212" height="1.96255" transform="translate(122.882 49.3641) scale(1.0136 -0.986209) rotate(45)" fill="#B64025"/>
<rect width="28.8212" height="1.96255" transform="translate(120.069 46.6269) scale(1.0136 -0.986209) rotate(45)" fill="#B64025"/>
<rect width="28.8212" height="1.96255" transform="translate(117.255 43.8897) scale(1.0136 -0.986209) rotate(45)" fill="#B64025"/>
<rect width="28.8212" height="1.96255" transform="translate(114.442 41.1525) scale(1.0136 -0.986209) rotate(45)" fill="#B64025"/>
<rect width="28.8212" height="1.96255" transform="translate(111.629 38.4153) scale(1.0136 -0.986209) rotate(45)" fill="#B64025"/>
<rect width="28.8212" height="1.96255" transform="translate(108.816 35.6782) scale(1.0136 -0.986209) rotate(45)" fill="#B64025"/>
<rect width="28.8212" height="1.96255" transform="translate(106.003 32.941) scale(1.0136 -0.986209) rotate(45)" fill="#B64025"/>
<rect width="46.2986" height="29.4381" fill="black" fill-opacity="0" transform="translate(145.849 32.4926) scale(1.0136 -0.986209) rotate(45)"/>
<rect width="46.2983" height="1.96255" transform="translate(145.849 32.4925) scale(1.0136 -0.986209) rotate(45)" fill="#B64025"/>
<rect width="46.2983" height="1.96255" transform="translate(143.036 29.7552) scale(1.0136 -0.986209) rotate(45)" fill="#B64025"/>
<rect width="46.2983" height="1.96255" transform="translate(140.223 27.0181) scale(1.0136 -0.986209) rotate(45)" fill="#B64025"/>
<rect width="46.2983" height="1.96255" transform="translate(137.41 24.2809) scale(1.0136 -0.986209) rotate(45)" fill="#B64025"/>
<rect width="46.2983" height="1.96255" transform="translate(134.597 21.5437) scale(1.0136 -0.986209) rotate(45)" fill="#B64025"/>
<rect width="46.2983" height="1.96255" transform="translate(131.783 18.8065) scale(1.0136 -0.986209) rotate(45)" fill="#B64025"/>
<rect width="46.2983" height="1.96255" transform="translate(128.97 16.0693) scale(1.0136 -0.986209) rotate(45)" fill="#B64025"/>
<rect width="46.2983" height="1.96255" transform="translate(126.157 13.3322) scale(1.0136 -0.986209) rotate(45)" fill="#B64025"/>
<rect width="28.8215" height="29.4382" fill="black" fill-opacity="0" transform="translate(170.454 52.1014) scale(1.0136 -0.986209) rotate(45)"/>
<rect width="28.8212" height="1.96255" transform="translate(167.64 49.3641) scale(1.0136 -0.986209) rotate(45)" fill="#B64025"/>
<rect width="28.8212" height="1.96255" transform="translate(164.827 46.6269) scale(1.0136 -0.986209) rotate(45)" fill="#B64025"/>
<rect width="28.8212" height="1.96255" transform="translate(162.014 43.8897) scale(1.0136 -0.986209) rotate(45)" fill="#B64025"/>
<rect width="28.8212" height="1.96255" transform="translate(159.201 41.1525) scale(1.0136 -0.986209) rotate(45)" fill="#B64025"/>
<rect width="28.8212" height="1.96255" transform="translate(156.388 38.4153) scale(1.0136 -0.986209) rotate(45)" fill="#B64025"/>
<rect width="28.8212" height="1.96255" transform="translate(153.574 35.6782) scale(1.0136 -0.986209) rotate(45)" fill="#B64025"/>
<rect width="28.8212" height="1.96255" transform="translate(150.761 32.941) scale(1.0136 -0.986209) rotate(45)" fill="#B64025"/>
<rect width="46.2986" height="29.4382" fill="black" fill-opacity="0" transform="translate(190.607 32.4926) scale(1.0136 -0.986209) rotate(45)"/>
<rect width="46.2983" height="1.96255" transform="translate(190.607 32.4925) scale(1.0136 -0.986209) rotate(45)" fill="#B64025"/>
<rect width="46.2983" height="1.96255" transform="translate(187.793 29.7552) scale(1.0136 -0.986209) rotate(45)" fill="#B64025"/>
<rect width="46.2983" height="1.96255" transform="translate(184.98 27.0181) scale(1.0136 -0.986209) rotate(45)" fill="#B64025"/>
<rect width="46.2983" height="1.96255" transform="translate(182.167 24.2809) scale(1.0136 -0.986209) rotate(45)" fill="#B64025"/>
<rect width="46.2983" height="1.96255" transform="translate(179.354 21.5437) scale(1.0136 -0.986209) rotate(45)" fill="#B64025"/>
<rect width="46.2983" height="1.96255" transform="translate(176.541 18.8065) scale(1.0136 -0.986209) rotate(45)" fill="#B64025"/>
<rect width="46.2983" height="1.96255" transform="translate(173.728 16.0693) scale(1.0136 -0.986209) rotate(45)" fill="#B64025"/>
<rect width="46.2983" height="1.96255" transform="translate(170.915 13.3322) scale(1.0136 -0.986209) rotate(45)" fill="#B64025"/>
<rect width="28.4573" height="29.438" fill="black" fill-opacity="0" transform="translate(7.45361 36.5026) scale(1.0136 -0.986209) rotate(45)"/>
<rect width="28.457" height="1.96255" transform="translate(7.45361 36.5026) scale(1.0136 -0.986209) rotate(45)" fill="#B64025"/>
<rect width="28.457" height="1.96255" transform="translate(4.64014 33.7653) scale(1.0136 -0.986209) rotate(45)" fill="#B64025"/>
<rect width="28.457" height="1.96255" transform="translate(1.82764 31.0281) scale(1.0136 -0.986209) rotate(45)" fill="#B64025"/>
<rect width="28.457" height="1.96255" transform="translate(-0.98584 28.291) scale(1.0136 -0.986209) rotate(45)" fill="#B64025"/>
<rect width="28.457" height="1.96255" transform="translate(-3.79883 25.5538) scale(1.0136 -0.986209) rotate(45)" fill="#B64025"/>
<rect width="28.457" height="1.96255" transform="translate(-6.6123 22.8166) scale(1.0136 -0.986209) rotate(45)" fill="#B64025"/>
<rect width="28.457" height="1.96255" transform="translate(-9.42578 20.0794) scale(1.0136 -0.986209) rotate(45)" fill="#B64025"/>
<rect width="28.457" height="1.96255" transform="translate(-12.2388 17.3422) scale(1.0136 -0.986209) rotate(45)" fill="#B64025"/>
<rect width="28.4573" height="29.4381" fill="black" fill-opacity="0" transform="translate(27.3462 17.1477) scale(1.0136 -0.986209) rotate(45)"/>
<rect width="28.457" height="1.96255" transform="translate(27.3462 17.1476) scale(1.0136 -0.986209) rotate(45)" fill="#B64025"/>
<rect width="28.457" height="1.96255" transform="translate(24.5327 14.4104) scale(1.0136 -0.986209) rotate(45)" fill="#B64025"/>
<rect width="28.457" height="1.96255" transform="translate(21.7202 11.6732) scale(1.0136 -0.986209) rotate(45)" fill="#B64025"/>
<rect width="28.457" height="1.96255" transform="translate(18.9067 8.93604) scale(1.0136 -0.986209) rotate(45)" fill="#B64025"/>
<rect width="28.457" height="1.96255" transform="translate(16.0938 6.19885) scale(1.0136 -0.986209) rotate(45)" fill="#B64025"/>
<rect width="28.457" height="1.96255" transform="translate(13.2803 3.46167) scale(1.0136 -0.986209) rotate(45)" fill="#B64025"/>
<rect width="28.457" height="1.96255" transform="translate(10.4668 0.724487) scale(1.0136 -0.986209) rotate(45)" fill="#B64025"/>
</g>
</g>
<rect width="190" height="30" fill="black" fill-opacity="0" transform="translate(0 90)"/>
<mask id="mask2" mask-type="alpha" maskUnits="userSpaceOnUse" x="0" y="90" width="190" height="31">
<rect y="90" width="190" height="30" fill="#B64025"/>
</mask>
<g mask="url(#mask2)">
<rect width="237.437" height="75.3287" fill="black" fill-opacity="0" transform="translate(-33.7915 66.7735)"/>
<rect width="28.4584" height="29.4379" fill="black" fill-opacity="0" transform="translate(182.546 126.503) scale(1.0136 0.986209) rotate(-135)"/>
<rect width="28.457" height="1.96255" transform="translate(182.545 126.502) scale(1.0136 0.986209) rotate(-135)" fill="#B64025"/>
<rect width="28.457" height="1.96255" transform="translate(185.359 123.765) scale(1.0136 0.986209) rotate(-135)" fill="#B64025"/>
<rect width="28.457" height="1.96255" transform="translate(188.172 121.028) scale(1.0136 0.986209) rotate(-135)" fill="#B64025"/>
<rect width="28.457" height="1.96255" transform="translate(190.986 118.291) scale(1.0136 0.986209) rotate(-135)" fill="#B64025"/>
<rect width="28.457" height="1.96255" transform="translate(193.799 115.554) scale(1.0136 0.986209) rotate(-135)" fill="#B64025"/>
<rect width="28.457" height="1.96255" transform="translate(196.612 112.817) scale(1.0136 0.986209) rotate(-135)" fill="#B64025"/>
<rect width="28.457" height="1.96255" transform="translate(199.426 110.08) scale(1.0136 0.986209) rotate(-135)" fill="#B64025"/>
<rect width="28.457" height="1.96255" transform="translate(202.238 107.342) scale(1.0136 0.986209) rotate(-135)" fill="#B64025"/>
<rect width="28.4581" height="29.4385" fill="black" fill-opacity="0" transform="translate(162.654 107.148) scale(1.0136 0.986209) rotate(-135)"/>
<rect width="28.457" height="1.96255" transform="translate(162.653 107.147) scale(1.0136 0.986209) rotate(-135)" fill="#B64025"/>
<rect width="28.457" height="1.96255" transform="translate(165.467 104.411) scale(1.0136 0.986209) rotate(-135)" fill="#B64025"/>
<rect width="28.457" height="1.96255" transform="translate(168.28 101.673) scale(1.0136 0.986209) rotate(-135)" fill="#B64025"/>
<rect width="28.457" height="1.96255" transform="translate(171.093 98.9356) scale(1.0136 0.986209) rotate(-135)" fill="#B64025"/>
<rect width="28.457" height="1.96255" transform="translate(173.906 96.1989) scale(1.0136 0.986209) rotate(-135)" fill="#B64025"/>
<rect width="28.457" height="1.96255" transform="translate(176.72 93.4611) scale(1.0136 0.986209) rotate(-135)" fill="#B64025"/>
<rect width="28.457" height="1.96255" transform="translate(179.533 90.7244) scale(1.0136 0.986209) rotate(-135)" fill="#B64025"/>
<rect width="237.437" height="75.3287" fill="black" fill-opacity="0" transform="translate(-33.7915 66.7735)"/>
<rect width="28.8228" height="29.4383" fill="black" fill-opacity="0" transform="translate(152.969 141.273) scale(1.0136 0.986209) rotate(-135)"/>
<rect width="28.8212" height="1.96255" transform="translate(152.968 141.272) scale(1.0136 0.986209) rotate(-135)" fill="#B64025"/>
<rect width="28.8212" height="1.96255" transform="translate(155.782 138.536) scale(1.0136 0.986209) rotate(-135)" fill="#B64025"/>
<rect width="28.8212" height="1.96255" transform="translate(158.595 135.798) scale(1.0136 0.986209) rotate(-135)" fill="#B64025"/>
<rect width="28.8212" height="1.96255" transform="translate(161.408 133.061) scale(1.0136 0.986209) rotate(-135)" fill="#B64025"/>
<rect width="28.8212" height="1.96255" transform="translate(164.221 130.324) scale(1.0136 0.986209) rotate(-135)" fill="#B64025"/>
<rect width="28.8212" height="1.96255" transform="translate(167.035 127.587) scale(1.0136 0.986209) rotate(-135)" fill="#B64025"/>
<rect width="28.8212" height="1.96255" transform="translate(169.848 124.849) scale(1.0136 0.986209) rotate(-135)" fill="#B64025"/>
<rect width="28.8212" height="1.96255" transform="translate(172.661 122.112) scale(1.0136 0.986209) rotate(-135)" fill="#B64025"/>
<rect width="46.2999" height="29.4385" fill="black" fill-opacity="0" transform="translate(132.815 121.664) scale(1.0136 0.986209) rotate(-135)"/>
<rect width="46.2983" height="1.96255" transform="translate(132.814 121.663) scale(1.0136 0.986209) rotate(-135)" fill="#B64025"/>
<rect width="46.2983" height="1.96255" transform="translate(135.629 118.927) scale(1.0136 0.986209) rotate(-135)" fill="#B64025"/>
<rect width="46.2983" height="1.96255" transform="translate(138.442 116.189) scale(1.0136 0.986209) rotate(-135)" fill="#B64025"/>
<rect width="46.2983" height="1.96255" transform="translate(141.255 113.452) scale(1.0136 0.986209) rotate(-135)" fill="#B64025"/>
<rect width="46.2983" height="1.96255" transform="translate(144.068 110.715) scale(1.0136 0.986209) rotate(-135)" fill="#B64025"/>
<rect width="46.2983" height="1.96255" transform="translate(146.881 107.977) scale(1.0136 0.986209) rotate(-135)" fill="#B64025"/>
<rect width="46.2983" height="1.96255" transform="translate(149.695 105.24) scale(1.0136 0.986209) rotate(-135)" fill="#B64025"/>
<rect width="46.2983" height="1.96255" transform="translate(152.508 102.503) scale(1.0136 0.986209) rotate(-135)" fill="#B64025"/>
<rect width="28.8223" height="29.4383" fill="black" fill-opacity="0" transform="translate(109.063 142.102) scale(1.0136 0.986209) rotate(-135)"/>
<rect width="28.8212" height="1.96255" transform="translate(111.876 139.364) scale(1.0136 0.986209) rotate(-135)" fill="#B64025"/>
<rect width="28.8212" height="1.96255" transform="translate(114.689 136.627) scale(1.0136 0.986209) rotate(-135)" fill="#B64025"/>
<rect width="28.8212" height="1.96255" transform="translate(117.502 133.889) scale(1.0136 0.986209) rotate(-135)" fill="#B64025"/>
<rect width="28.8212" height="1.96255" transform="translate(120.315 131.153) scale(1.0136 0.986209) rotate(-135)" fill="#B64025"/>
<rect width="28.8212" height="1.96255" transform="translate(123.129 128.416) scale(1.0136 0.986209) rotate(-135)" fill="#B64025"/>
<rect width="28.8212" height="1.96255" transform="translate(125.942 125.679) scale(1.0136 0.986209) rotate(-135)" fill="#B64025"/>
<rect width="28.8212" height="1.96255" transform="translate(128.755 122.941) scale(1.0136 0.986209) rotate(-135)" fill="#B64025"/>
<rect width="46.3" height="29.4383" fill="black" fill-opacity="0" transform="translate(88.9092 122.493) scale(1.0136 0.986209) rotate(-135)"/>
<rect width="46.2983" height="1.96255" transform="translate(88.9077 122.492) scale(1.0136 0.986209) rotate(-135)" fill="#B64025"/>
<rect width="46.2983" height="1.96255" transform="translate(91.7227 119.756) scale(1.0136 0.986209) rotate(-135)" fill="#B64025"/>
<rect width="46.2983" height="1.96255" transform="translate(94.5352 117.018) scale(1.0136 0.986209) rotate(-135)" fill="#B64025"/>
<rect width="46.2983" height="1.96255" transform="translate(97.3486 114.281) scale(1.0136 0.986209) rotate(-135)" fill="#B64025"/>
<rect width="46.2983" height="1.96255" transform="translate(100.162 111.545) scale(1.0136 0.986209) rotate(-135)" fill="#B64025"/>
<rect width="46.2983" height="1.96255" transform="translate(102.975 108.807) scale(1.0136 0.986209) rotate(-135)" fill="#B64025"/>
<rect width="46.2983" height="1.96255" transform="translate(105.789 106.07) scale(1.0136 0.986209) rotate(-135)" fill="#B64025"/>
<rect width="46.2983" height="1.96255" transform="translate(108.602 103.332) scale(1.0136 0.986209) rotate(-135)" fill="#B64025"/>
<rect width="28.8226" height="29.4383" fill="black" fill-opacity="0" transform="translate(64.3052 142.102) scale(1.0136 0.986209) rotate(-135)"/>
<rect width="28.8212" height="1.96255" transform="translate(67.1182 139.365) scale(1.0136 0.986209) rotate(-135)" fill="#B64025"/>
<rect width="28.8212" height="1.96255" transform="translate(69.9312 136.628) scale(1.0136 0.986209) rotate(-135)" fill="#B64025"/>
<rect width="28.8212" height="1.96255" transform="translate(72.7446 133.89) scale(1.0136 0.986209) rotate(-135)" fill="#B64025"/>
<rect width="28.8212" height="1.96255" transform="translate(75.5576 131.153) scale(1.0136 0.986209) rotate(-135)" fill="#B64025"/>
<rect width="28.8212" height="1.96255" transform="translate(78.3711 128.416) scale(1.0136 0.986209) rotate(-135)" fill="#B64025"/>
<rect width="28.8212" height="1.96255" transform="translate(81.1846 125.679) scale(1.0136 0.986209) rotate(-135)" fill="#B64025"/>
<rect width="28.8212" height="1.96255" transform="translate(83.9976 122.941) scale(1.0136 0.986209) rotate(-135)" fill="#B64025"/>
<rect width="46.2989" height="29.4383" fill="black" fill-opacity="0" transform="translate(44.1509 122.493) scale(1.0136 0.986209) rotate(-135)"/>
<rect width="46.2983" height="1.96255" transform="translate(44.1509 122.493) scale(1.0136 0.986209) rotate(-135)" fill="#B64025"/>
<rect width="46.2983" height="1.96255" transform="translate(46.9644 119.756) scale(1.0136 0.986209) rotate(-135)" fill="#B64025"/>
<rect width="46.2983" height="1.96255" transform="translate(49.7773 117.018) scale(1.0136 0.986209) rotate(-135)" fill="#B64025"/>
<rect width="46.2983" height="1.96255" transform="translate(52.5903 114.281) scale(1.0136 0.986209) rotate(-135)" fill="#B64025"/>
<rect width="46.2983" height="1.96255" transform="translate(55.4033 111.545) scale(1.0136 0.986209) rotate(-135)" fill="#B64025"/>
<rect width="46.2983" height="1.96255" transform="translate(58.2168 108.807) scale(1.0136 0.986209) rotate(-135)" fill="#B64025"/>
<rect width="46.2983" height="1.96255" transform="translate(61.0303 106.07) scale(1.0136 0.986209) rotate(-135)" fill="#B64025"/>
<rect width="46.2983" height="1.96255" transform="translate(63.8433 103.332) scale(1.0136 0.986209) rotate(-135)" fill="#B64025"/>
<rect width="28.8221" height="29.4383" fill="black" fill-opacity="0" transform="translate(19.5469 142.102) scale(1.0136 0.986209) rotate(-135)"/>
<rect width="28.8212" height="1.96255" transform="translate(22.3599 139.364) scale(1.0136 0.986209) rotate(-135)" fill="#B64025"/>
<rect width="28.8212" height="1.96255" transform="translate(25.1729 136.627) scale(1.0136 0.986209) rotate(-135)" fill="#B64025"/>
<rect width="28.8212" height="1.96255" transform="translate(27.9863 133.889) scale(1.0136 0.986209) rotate(-135)" fill="#B64025"/>
<rect width="28.8212" height="1.96255" transform="translate(30.7993 131.153) scale(1.0136 0.986209) rotate(-135)" fill="#B64025"/>
<rect width="28.8212" height="1.96255" transform="translate(33.6128 128.416) scale(1.0136 0.986209) rotate(-135)" fill="#B64025"/>
<rect width="28.8212" height="1.96255" transform="translate(36.4263 125.679) scale(1.0136 0.986209) rotate(-135)" fill="#B64025"/>
<rect width="28.8212" height="1.96255" transform="translate(39.2388 122.941) scale(1.0136 0.986209) rotate(-135)" fill="#B64025"/>
<rect width="46.3" height="29.4383" fill="black" fill-opacity="0" transform="translate(-0.606934 122.493) scale(1.0136 0.986209) rotate(-135)"/>
<rect width="46.2983" height="1.96255" transform="translate(-0.60791 122.492) scale(1.0136 0.986209) rotate(-135)" fill="#B64025"/>
<rect width="46.2983" height="1.96255" transform="translate(2.20654 119.756) scale(1.0136 0.986209) rotate(-135)" fill="#B64025"/>
<rect width="46.2983" height="1.96255" transform="translate(5.01904 117.018) scale(1.0136 0.986209) rotate(-135)" fill="#B64025"/>
<rect width="46.2983" height="1.96255" transform="translate(7.83252 114.281) scale(1.0136 0.986209) rotate(-135)" fill="#B64025"/>
<rect width="46.2983" height="1.96255" transform="translate(10.6455 111.545) scale(1.0136 0.986209) rotate(-135)" fill="#B64025"/>
<rect width="46.2983" height="1.96255" transform="translate(13.459 108.807) scale(1.0136 0.986209) rotate(-135)" fill="#B64025"/>
<rect width="46.2983" height="1.96255" transform="translate(16.2725 106.07) scale(1.0136 0.986209) rotate(-135)" fill="#B64025"/>
<rect width="46.2983" height="1.96255" transform="translate(19.0854 103.332) scale(1.0136 0.986209) rotate(-135)" fill="#B64025"/>
<rect width="28.4584" height="29.4379" fill="black" fill-opacity="0" transform="translate(182.546 126.503) scale(1.0136 0.986209) rotate(-135)"/>
<rect width="28.457" height="1.96255" transform="translate(182.545 126.502) scale(1.0136 0.986209) rotate(-135)" fill="#B64025"/>
<rect width="28.457" height="1.96255" transform="translate(185.359 123.765) scale(1.0136 0.986209) rotate(-135)" fill="#B64025"/>
<rect width="28.457" height="1.96255" transform="translate(188.172 121.028) scale(1.0136 0.986209) rotate(-135)" fill="#B64025"/>
<rect width="28.457" height="1.96255" transform="translate(190.986 118.291) scale(1.0136 0.986209) rotate(-135)" fill="#B64025"/>
<rect width="28.457" height="1.96255" transform="translate(193.799 115.554) scale(1.0136 0.986209) rotate(-135)" fill="#B64025"/>
<rect width="28.457" height="1.96255" transform="translate(196.612 112.817) scale(1.0136 0.986209) rotate(-135)" fill="#B64025"/>
<rect width="28.457" height="1.96255" transform="translate(199.426 110.08) scale(1.0136 0.986209) rotate(-135)" fill="#B64025"/>
<rect width="28.457" height="1.96255" transform="translate(202.238 107.342) scale(1.0136 0.986209) rotate(-135)" fill="#B64025"/>
<rect width="28.4581" height="29.4385" fill="black" fill-opacity="0" transform="translate(162.654 107.148) scale(1.0136 0.986209) rotate(-135)"/>
<rect width="28.457" height="1.96255" transform="translate(162.653 107.147) scale(1.0136 0.986209) rotate(-135)" fill="#B64025"/>
<rect width="28.457" height="1.96255" transform="translate(165.467 104.411) scale(1.0136 0.986209) rotate(-135)" fill="#B64025"/>
<rect width="28.457" height="1.96255" transform="translate(168.28 101.673) scale(1.0136 0.986209) rotate(-135)" fill="#B64025"/>
<rect width="28.457" height="1.96255" transform="translate(171.093 98.9356) scale(1.0136 0.986209) rotate(-135)" fill="#B64025"/>
<rect width="28.457" height="1.96255" transform="translate(173.906 96.1989) scale(1.0136 0.986209) rotate(-135)" fill="#B64025"/>
<rect width="28.457" height="1.96255" transform="translate(176.72 93.4611) scale(1.0136 0.986209) rotate(-135)" fill="#B64025"/>
<rect width="28.457" height="1.96255" transform="translate(179.533 90.7244) scale(1.0136 0.986209) rotate(-135)" fill="#B64025"/>
<rect width="190" height="30" fill="black" fill-opacity="0" transform="translate(0 90)"/>
<mask id="mask3" mask-type="alpha" maskUnits="userSpaceOnUse" x="0" y="90" width="190" height="31">
<rect y="90" width="190" height="30" fill="#B64025"/>
</mask>
<g mask="url(#mask3)">
<rect width="237.437" height="75.3287" fill="black" fill-opacity="0" transform="translate(-33.7915 66.7735)"/>
<rect width="28.4584" height="29.4379" fill="black" fill-opacity="0" transform="translate(182.546 126.503) scale(1.0136 0.986209) rotate(-135)"/>
<rect width="28.457" height="1.96255" transform="translate(182.545 126.502) scale(1.0136 0.986209) rotate(-135)" fill="#B64025"/>
<rect width="28.457" height="1.96255" transform="translate(185.359 123.765) scale(1.0136 0.986209) rotate(-135)" fill="#B64025"/>
<rect width="28.457" height="1.96255" transform="translate(188.172 121.028) scale(1.0136 0.986209) rotate(-135)" fill="#B64025"/>
<rect width="28.457" height="1.96255" transform="translate(190.986 118.291) scale(1.0136 0.986209) rotate(-135)" fill="#B64025"/>
<rect width="28.457" height="1.96255" transform="translate(193.799 115.554) scale(1.0136 0.986209) rotate(-135)" fill="#B64025"/>
<rect width="28.457" height="1.96255" transform="translate(196.612 112.817) scale(1.0136 0.986209) rotate(-135)" fill="#B64025"/>
<rect width="28.457" height="1.96255" transform="translate(199.426 110.08) scale(1.0136 0.986209) rotate(-135)" fill="#B64025"/>
<rect width="28.457" height="1.96255" transform="translate(202.238 107.342) scale(1.0136 0.986209) rotate(-135)" fill="#B64025"/>
<rect width="28.4581" height="29.4385" fill="black" fill-opacity="0" transform="translate(162.654 107.148) scale(1.0136 0.986209) rotate(-135)"/>
<rect width="28.457" height="1.96255" transform="translate(162.653 107.147) scale(1.0136 0.986209) rotate(-135)" fill="#B64025"/>
<rect width="28.457" height="1.96255" transform="translate(165.467 104.411) scale(1.0136 0.986209) rotate(-135)" fill="#B64025"/>
<rect width="28.457" height="1.96255" transform="translate(168.28 101.673) scale(1.0136 0.986209) rotate(-135)" fill="#B64025"/>
<rect width="28.457" height="1.96255" transform="translate(171.093 98.9356) scale(1.0136 0.986209) rotate(-135)" fill="#B64025"/>
<rect width="28.457" height="1.96255" transform="translate(173.906 96.1989) scale(1.0136 0.986209) rotate(-135)" fill="#B64025"/>
<rect width="28.457" height="1.96255" transform="translate(176.72 93.4611) scale(1.0136 0.986209) rotate(-135)" fill="#B64025"/>
<rect width="28.457" height="1.96255" transform="translate(179.533 90.7244) scale(1.0136 0.986209) rotate(-135)" fill="#B64025"/>
<rect width="237.437" height="75.3287" fill="black" fill-opacity="0" transform="translate(-33.7915 66.7735)"/>
<rect width="28.8228" height="29.4383" fill="black" fill-opacity="0" transform="translate(152.969 141.273) scale(1.0136 0.986209) rotate(-135)"/>
<rect width="28.8212" height="1.96255" transform="translate(152.968 141.272) scale(1.0136 0.986209) rotate(-135)" fill="#B64025"/>
<rect width="28.8212" height="1.96255" transform="translate(155.782 138.536) scale(1.0136 0.986209) rotate(-135)" fill="#B64025"/>
<rect width="28.8212" height="1.96255" transform="translate(158.595 135.798) scale(1.0136 0.986209) rotate(-135)" fill="#B64025"/>
<rect width="28.8212" height="1.96255" transform="translate(161.408 133.061) scale(1.0136 0.986209) rotate(-135)" fill="#B64025"/>
<rect width="28.8212" height="1.96255" transform="translate(164.221 130.324) scale(1.0136 0.986209) rotate(-135)" fill="#B64025"/>
<rect width="28.8212" height="1.96255" transform="translate(167.035 127.587) scale(1.0136 0.986209) rotate(-135)" fill="#B64025"/>
<rect width="28.8212" height="1.96255" transform="translate(169.848 124.849) scale(1.0136 0.986209) rotate(-135)" fill="#B64025"/>
<rect width="28.8212" height="1.96255" transform="translate(172.661 122.112) scale(1.0136 0.986209) rotate(-135)" fill="#B64025"/>
<rect width="46.2999" height="29.4385" fill="black" fill-opacity="0" transform="translate(132.815 121.664) scale(1.0136 0.986209) rotate(-135)"/>
<rect width="46.2983" height="1.96255" transform="translate(132.814 121.663) scale(1.0136 0.986209) rotate(-135)" fill="#B64025"/>
<rect width="46.2983" height="1.96255" transform="translate(135.629 118.927) scale(1.0136 0.986209) rotate(-135)" fill="#B64025"/>
<rect width="46.2983" height="1.96255" transform="translate(138.442 116.189) scale(1.0136 0.986209) rotate(-135)" fill="#B64025"/>
<rect width="46.2983" height="1.96255" transform="translate(141.255 113.452) scale(1.0136 0.986209) rotate(-135)" fill="#B64025"/>
<rect width="46.2983" height="1.96255" transform="translate(144.068 110.715) scale(1.0136 0.986209) rotate(-135)" fill="#B64025"/>
<rect width="46.2983" height="1.96255" transform="translate(146.881 107.977) scale(1.0136 0.986209) rotate(-135)" fill="#B64025"/>
<rect width="46.2983" height="1.96255" transform="translate(149.695 105.24) scale(1.0136 0.986209) rotate(-135)" fill="#B64025"/>
<rect width="46.2983" height="1.96255" transform="translate(152.508 102.503) scale(1.0136 0.986209) rotate(-135)" fill="#B64025"/>
<rect width="28.8223" height="29.4383" fill="black" fill-opacity="0" transform="translate(109.063 142.102) scale(1.0136 0.986209) rotate(-135)"/>
<rect width="28.8212" height="1.96255" transform="translate(111.876 139.364) scale(1.0136 0.986209) rotate(-135)" fill="#B64025"/>
<rect width="28.8212" height="1.96255" transform="translate(114.689 136.627) scale(1.0136 0.986209) rotate(-135)" fill="#B64025"/>
<rect width="28.8212" height="1.96255" transform="translate(117.502 133.889) scale(1.0136 0.986209) rotate(-135)" fill="#B64025"/>
<rect width="28.8212" height="1.96255" transform="translate(120.315 131.153) scale(1.0136 0.986209) rotate(-135)" fill="#B64025"/>
<rect width="28.8212" height="1.96255" transform="translate(123.129 128.416) scale(1.0136 0.986209) rotate(-135)" fill="#B64025"/>
<rect width="28.8212" height="1.96255" transform="translate(125.942 125.679) scale(1.0136 0.986209) rotate(-135)" fill="#B64025"/>
<rect width="28.8212" height="1.96255" transform="translate(128.755 122.941) scale(1.0136 0.986209) rotate(-135)" fill="#B64025"/>
<rect width="46.3" height="29.4383" fill="black" fill-opacity="0" transform="translate(88.9092 122.493) scale(1.0136 0.986209) rotate(-135)"/>
<rect width="46.2983" height="1.96255" transform="translate(88.9077 122.492) scale(1.0136 0.986209) rotate(-135)" fill="#B64025"/>
<rect width="46.2983" height="1.96255" transform="translate(91.7227 119.756) scale(1.0136 0.986209) rotate(-135)" fill="#B64025"/>
<rect width="46.2983" height="1.96255" transform="translate(94.5352 117.018) scale(1.0136 0.986209) rotate(-135)" fill="#B64025"/>
<rect width="46.2983" height="1.96255" transform="translate(97.3486 114.281) scale(1.0136 0.986209) rotate(-135)" fill="#B64025"/>
<rect width="46.2983" height="1.96255" transform="translate(100.162 111.545) scale(1.0136 0.986209) rotate(-135)" fill="#B64025"/>
<rect width="46.2983" height="1.96255" transform="translate(102.975 108.807) scale(1.0136 0.986209) rotate(-135)" fill="#B64025"/>
<rect width="46.2983" height="1.96255" transform="translate(105.789 106.07) scale(1.0136 0.986209) rotate(-135)" fill="#B64025"/>
<rect width="46.2983" height="1.96255" transform="translate(108.602 103.332) scale(1.0136 0.986209) rotate(-135)" fill="#B64025"/>
<rect width="28.8226" height="29.4383" fill="black" fill-opacity="0" transform="translate(64.3052 142.102) scale(1.0136 0.986209) rotate(-135)"/>
<rect width="28.8212" height="1.96255" transform="translate(67.1182 139.365) scale(1.0136 0.986209) rotate(-135)" fill="#B64025"/>
<rect width="28.8212" height="1.96255" transform="translate(69.9312 136.628) scale(1.0136 0.986209) rotate(-135)" fill="#B64025"/>
<rect width="28.8212" height="1.96255" transform="translate(72.7446 133.89) scale(1.0136 0.986209) rotate(-135)" fill="#B64025"/>
<rect width="28.8212" height="1.96255" transform="translate(75.5576 131.153) scale(1.0136 0.986209) rotate(-135)" fill="#B64025"/>
<rect width="28.8212" height="1.96255" transform="translate(78.3711 128.416) scale(1.0136 0.986209) rotate(-135)" fill="#B64025"/>
<rect width="28.8212" height="1.96255" transform="translate(81.1846 125.679) scale(1.0136 0.986209) rotate(-135)" fill="#B64025"/>
<rect width="28.8212" height="1.96255" transform="translate(83.9976 122.941) scale(1.0136 0.986209) rotate(-135)" fill="#B64025"/>
<rect width="46.2989" height="29.4383" fill="black" fill-opacity="0" transform="translate(44.1509 122.493) scale(1.0136 0.986209) rotate(-135)"/>
<rect width="46.2983" height="1.96255" transform="translate(44.1509 122.493) scale(1.0136 0.986209) rotate(-135)" fill="#B64025"/>
<rect width="46.2983" height="1.96255" transform="translate(46.9644 119.756) scale(1.0136 0.986209) rotate(-135)" fill="#B64025"/>
<rect width="46.2983" height="1.96255" transform="translate(49.7773 117.018) scale(1.0136 0.986209) rotate(-135)" fill="#B64025"/>
<rect width="46.2983" height="1.96255" transform="translate(52.5903 114.281) scale(1.0136 0.986209) rotate(-135)" fill="#B64025"/>
<rect width="46.2983" height="1.96255" transform="translate(55.4033 111.545) scale(1.0136 0.986209) rotate(-135)" fill="#B64025"/>
<rect width="46.2983" height="1.96255" transform="translate(58.2168 108.807) scale(1.0136 0.986209) rotate(-135)" fill="#B64025"/>
<rect width="46.2983" height="1.96255" transform="translate(61.0303 106.07) scale(1.0136 0.986209) rotate(-135)" fill="#B64025"/>
<rect width="46.2983" height="1.96255" transform="translate(63.8433 103.332) scale(1.0136 0.986209) rotate(-135)" fill="#B64025"/>
<rect width="28.8221" height="29.4383" fill="black" fill-opacity="0" transform="translate(19.5469 142.102) scale(1.0136 0.986209) rotate(-135)"/>
<rect width="28.8212" height="1.96255" transform="translate(22.3599 139.364) scale(1.0136 0.986209) rotate(-135)" fill="#B64025"/>
<rect width="28.8212" height="1.96255" transform="translate(25.1729 136.627) scale(1.0136 0.986209) rotate(-135)" fill="#B64025"/>
<rect width="28.8212" height="1.96255" transform="translate(27.9863 133.889) scale(1.0136 0.986209) rotate(-135)" fill="#B64025"/>
<rect width="28.8212" height="1.96255" transform="translate(30.7993 131.153) scale(1.0136 0.986209) rotate(-135)" fill="#B64025"/>
<rect width="28.8212" height="1.96255" transform="translate(33.6128 128.416) scale(1.0136 0.986209) rotate(-135)" fill="#B64025"/>
<rect width="28.8212" height="1.96255" transform="translate(36.4263 125.679) scale(1.0136 0.986209) rotate(-135)" fill="#B64025"/>
<rect width="28.8212" height="1.96255" transform="translate(39.2388 122.941) scale(1.0136 0.986209) rotate(-135)" fill="#B64025"/>
<rect width="46.3" height="29.4383" fill="black" fill-opacity="0" transform="translate(-0.606934 122.493) scale(1.0136 0.986209) rotate(-135)"/>
<rect width="46.2983" height="1.96255" transform="translate(-0.60791 122.492) scale(1.0136 0.986209) rotate(-135)" fill="#B64025"/>
<rect width="46.2983" height="1.96255" transform="translate(2.20654 119.756) scale(1.0136 0.986209) rotate(-135)" fill="#B64025"/>
<rect width="46.2983" height="1.96255" transform="translate(5.01904 117.018) scale(1.0136 0.986209) rotate(-135)" fill="#B64025"/>
<rect width="46.2983" height="1.96255" transform="translate(7.83252 114.281) scale(1.0136 0.986209) rotate(-135)" fill="#B64025"/>
<rect width="46.2983" height="1.96255" transform="translate(10.6455 111.545) scale(1.0136 0.986209) rotate(-135)" fill="#B64025"/>
<rect width="46.2983" height="1.96255" transform="translate(13.459 108.807) scale(1.0136 0.986209) rotate(-135)" fill="#B64025"/>
<rect width="46.2983" height="1.96255" transform="translate(16.2725 106.07) scale(1.0136 0.986209) rotate(-135)" fill="#B64025"/>
<rect width="46.2983" height="1.96255" transform="translate(19.0854 103.332) scale(1.0136 0.986209) rotate(-135)" fill="#B64025"/>
<rect width="28.4584" height="29.4379" fill="black" fill-opacity="0" transform="translate(182.546 126.503) scale(1.0136 0.986209) rotate(-135)"/>
<rect width="28.457" height="1.96255" transform="translate(182.545 126.502) scale(1.0136 0.986209) rotate(-135)" fill="#B64025"/>
<rect width="28.457" height="1.96255" transform="translate(185.359 123.765) scale(1.0136 0.986209) rotate(-135)" fill="#B64025"/>
<rect width="28.457" height="1.96255" transform="translate(188.172 121.028) scale(1.0136 0.986209) rotate(-135)" fill="#B64025"/>
<rect width="28.457" height="1.96255" transform="translate(190.986 118.291) scale(1.0136 0.986209) rotate(-135)" fill="#B64025"/>
<rect width="28.457" height="1.96255" transform="translate(193.799 115.554) scale(1.0136 0.986209) rotate(-135)" fill="#B64025"/>
<rect width="28.457" height="1.96255" transform="translate(196.612 112.817) scale(1.0136 0.986209) rotate(-135)" fill="#B64025"/>
<rect width="28.457" height="1.96255" transform="translate(199.426 110.08) scale(1.0136 0.986209) rotate(-135)" fill="#B64025"/>
<rect width="28.457" height="1.96255" transform="translate(202.238 107.342) scale(1.0136 0.986209) rotate(-135)" fill="#B64025"/>
<rect width="28.4581" height="29.4385" fill="black" fill-opacity="0" transform="translate(162.654 107.148) scale(1.0136 0.986209) rotate(-135)"/>
<rect width="28.457" height="1.96255" transform="translate(162.653 107.147) scale(1.0136 0.986209) rotate(-135)" fill="#B64025"/>
<rect width="28.457" height="1.96255" transform="translate(165.467 104.411) scale(1.0136 0.986209) rotate(-135)" fill="#B64025"/>
<rect width="28.457" height="1.96255" transform="translate(168.28 101.673) scale(1.0136 0.986209) rotate(-135)" fill="#B64025"/>
<rect width="28.457" height="1.96255" transform="translate(171.093 98.9356) scale(1.0136 0.986209) rotate(-135)" fill="#B64025"/>
<rect width="28.457" height="1.96255" transform="translate(173.906 96.1989) scale(1.0136 0.986209) rotate(-135)" fill="#B64025"/>
<rect width="28.457" height="1.96255" transform="translate(176.72 93.4611) scale(1.0136 0.986209) rotate(-135)" fill="#B64025"/>
<rect width="28.457" height="1.96255" transform="translate(179.533 90.7244) scale(1.0136 0.986209) rotate(-135)" fill="#B64025"/>
</g>
</g>
</svg>
