<svg width="32" height="32" viewBox="0 0 32 32" fill="none" xmlns="http://www.w3.org/2000/svg">
<rect width="32" height="32" fill="black" fill-opacity="0" transform="translate(32 32) rotate(-180)"/>
<rect x="32" y="30" width="32" height="2" transform="rotate(-180 32 30)" fill="#C4C4C4"/>
<rect x="32" y="26" width="32" height="2" transform="rotate(-180 32 26)" fill="#C4C4C4"/>
<rect x="32" y="22" width="32" height="2" transform="rotate(-180 32 22)" fill="#C4C4C4"/>
<rect x="32" y="18" width="32" height="2" transform="rotate(-180 32 18)" fill="#C4C4C4"/>
<rect x="32" y="14" width="32" height="2" transform="rotate(-180 32 14)" fill="#C4C4C4"/>
<rect x="32" y="10" width="32" height="2" transform="rotate(-180 32 10)" fill="#C4C4C4"/>
<rect x="32" y="6" width="32" height="2" transform="rotate(-180 32 6)" fill="#C4C4C4"/>
<rect x="32" y="2" width="32" height="2" transform="rotate(-180 32 2)" fill="#C4C4C4"/>
</svg>
