<svg width="190" height="190" viewBox="0 0 190 190" fill="none" xmlns="http://www.w3.org/2000/svg">
<rect width="190" height="190" fill="black" fill-opacity="0"/>
<rect width="190" height="30" fill="black" fill-opacity="0" transform="scale(-1 1) rotate(90)"/>
<mask id="mask0" mask-type="alpha" maskUnits="userSpaceOnUse" x="0" y="0" width="30" height="190">
<rect width="190" height="30" transform="scale(-1 1) rotate(90)" fill="#B64025"/>
</mask>
<g mask="url(#mask0)">
<rect width="237.436" height="75.3275" fill="black" fill-opacity="0" transform="translate(-23.2261 -33.7906) scale(-1 1) rotate(90)"/>
<rect width="28.4573" height="29.438" fill="black" fill-opacity="0" transform="translate(36.5024 182.546) scale(-0.986209 1.0136) rotate(-45)"/>
<rect width="28.457" height="1.96255" transform="translate(36.5024 182.546) scale(-0.986209 1.0136) rotate(-45)" fill="#B64025"/>
<rect width="28.457" height="1.96255" transform="translate(33.7651 185.36) scale(-0.986209 1.0136) rotate(-45)" fill="#B64025"/>
<rect width="28.457" height="1.96255" transform="translate(31.0278 188.172) scale(-0.986209 1.0136) rotate(-45)" fill="#B64025"/>
<rect width="28.457" height="1.96255" transform="translate(28.291 190.986) scale(-0.986209 1.0136) rotate(-45)" fill="#B64025"/>
<rect width="28.457" height="1.96255" transform="translate(25.5537 193.799) scale(-0.986209 1.0136) rotate(-45)" fill="#B64025"/>
<rect width="28.457" height="1.96255" transform="translate(22.8164 196.612) scale(-0.986209 1.0136) rotate(-45)" fill="#B64025"/>
<rect width="28.457" height="1.96255" transform="translate(20.0791 199.426) scale(-0.986209 1.0136) rotate(-45)" fill="#B64025"/>
<rect width="28.457" height="1.96255" transform="translate(17.3423 202.239) scale(-0.986209 1.0136) rotate(-45)" fill="#B64025"/>
<rect width="28.4573" height="29.4381" fill="black" fill-opacity="0" transform="translate(17.1475 162.654) scale(-0.986209 1.0136) rotate(-45)"/>
<rect width="28.457" height="1.96255" transform="translate(17.1475 162.654) scale(-0.986209 1.0136) rotate(-45)" fill="#B64025"/>
<rect width="28.457" height="1.96255" transform="translate(14.4102 165.467) scale(-0.986209 1.0136) rotate(-45)" fill="#B64025"/>
<rect width="28.457" height="1.96255" transform="translate(11.6729 168.28) scale(-0.986209 1.0136) rotate(-45)" fill="#B64025"/>
<rect width="28.457" height="1.96255" transform="translate(8.93555 171.093) scale(-0.986209 1.0136) rotate(-45)" fill="#B64025"/>
<rect width="28.457" height="1.96255" transform="translate(6.19873 173.906) scale(-0.986209 1.0136) rotate(-45)" fill="#B64025"/>
<rect width="28.457" height="1.96255" transform="translate(3.46143 176.72) scale(-0.986209 1.0136) rotate(-45)" fill="#B64025"/>
<rect width="28.457" height="1.96255" transform="translate(0.724121 179.533) scale(-0.986209 1.0136) rotate(-45)" fill="#B64025"/>
<rect width="237.436" height="75.3275" fill="black" fill-opacity="0" transform="translate(-23.2261 -33.7906) scale(-1 1) rotate(90)"/>
<rect width="28.8215" height="29.4381" fill="black" fill-opacity="0" transform="translate(51.2725 152.969) scale(-0.986209 1.0136) rotate(-45)"/>
<rect width="28.8212" height="1.96255" transform="translate(51.2725 152.969) scale(-0.986209 1.0136) rotate(-45)" fill="#B64025"/>
<rect width="28.8212" height="1.96255" transform="translate(48.5352 155.782) scale(-0.986209 1.0136) rotate(-45)" fill="#B64025"/>
<rect width="28.8212" height="1.96255" transform="translate(45.7979 158.595) scale(-0.986209 1.0136) rotate(-45)" fill="#B64025"/>
<rect width="28.8212" height="1.96255" transform="translate(43.0605 161.409) scale(-0.986209 1.0136) rotate(-45)" fill="#B64025"/>
<rect width="28.8212" height="1.96255" transform="translate(40.3237 164.222) scale(-0.986209 1.0136) rotate(-45)" fill="#B64025"/>
<rect width="28.8212" height="1.96255" transform="translate(37.5864 167.035) scale(-0.986209 1.0136) rotate(-45)" fill="#B64025"/>
<rect width="28.8212" height="1.96255" transform="translate(34.8491 169.848) scale(-0.986209 1.0136) rotate(-45)" fill="#B64025"/>
<rect width="28.8212" height="1.96255" transform="translate(32.1118 172.661) scale(-0.986209 1.0136) rotate(-45)" fill="#B64025"/>
<rect width="46.2986" height="29.4381" fill="black" fill-opacity="0" transform="translate(31.6636 132.815) scale(-0.986209 1.0136) rotate(-45)"/>
<rect width="46.2983" height="1.96255" transform="translate(31.6636 132.815) scale(-0.986209 1.0136) rotate(-45)" fill="#B64025"/>
<rect width="46.2983" height="1.96255" transform="translate(28.9263 135.629) scale(-0.986209 1.0136) rotate(-45)" fill="#B64025"/>
<rect width="46.2983" height="1.96255" transform="translate(26.189 138.441) scale(-0.986209 1.0136) rotate(-45)" fill="#B64025"/>
<rect width="46.2983" height="1.96255" transform="translate(23.4517 141.255) scale(-0.986209 1.0136) rotate(-45)" fill="#B64025"/>
<rect width="46.2983" height="1.96255" transform="translate(20.7148 144.068) scale(-0.986209 1.0136) rotate(-45)" fill="#B64025"/>
<rect width="46.2983" height="1.96255" transform="translate(17.9775 146.881) scale(-0.986209 1.0136) rotate(-45)" fill="#B64025"/>
<rect width="46.2983" height="1.96255" transform="translate(15.2402 149.695) scale(-0.986209 1.0136) rotate(-45)" fill="#B64025"/>
<rect width="46.2983" height="1.96255" transform="translate(12.5029 152.508) scale(-0.986209 1.0136) rotate(-45)" fill="#B64025"/>
<rect width="28.8215" height="29.4382" fill="black" fill-opacity="0" transform="translate(52.1011 109.063) scale(-0.986209 1.0136) rotate(-45)"/>
<rect width="28.8212" height="1.96255" transform="translate(49.3638 111.876) scale(-0.986209 1.0136) rotate(-45)" fill="#B64025"/>
<rect width="28.8212" height="1.96255" transform="translate(46.6265 114.689) scale(-0.986209 1.0136) rotate(-45)" fill="#B64025"/>
<rect width="28.8212" height="1.96255" transform="translate(43.8892 117.502) scale(-0.986209 1.0136) rotate(-45)" fill="#B64025"/>
<rect width="28.8212" height="1.96255" transform="translate(41.1523 120.315) scale(-0.986209 1.0136) rotate(-45)" fill="#B64025"/>
<rect width="28.8212" height="1.96255" transform="translate(38.415 123.129) scale(-0.986209 1.0136) rotate(-45)" fill="#B64025"/>
<rect width="28.8212" height="1.96255" transform="translate(35.6777 125.942) scale(-0.986209 1.0136) rotate(-45)" fill="#B64025"/>
<rect width="28.8212" height="1.96255" transform="translate(32.9404 128.755) scale(-0.986209 1.0136) rotate(-45)" fill="#B64025"/>
<rect width="46.2986" height="29.4382" fill="black" fill-opacity="0" transform="translate(32.4922 88.9089) scale(-0.986209 1.0136) rotate(-45)"/>
<rect width="46.2983" height="1.96255" transform="translate(32.4922 88.9089) scale(-0.986209 1.0136) rotate(-45)" fill="#B64025"/>
<rect width="46.2983" height="1.96255" transform="translate(29.7549 91.7224) scale(-0.986209 1.0136) rotate(-45)" fill="#B64025"/>
<rect width="46.2983" height="1.96255" transform="translate(27.0176 94.5353) scale(-0.986209 1.0136) rotate(-45)" fill="#B64025"/>
<rect width="46.2983" height="1.96255" transform="translate(24.2803 97.3487) scale(-0.986209 1.0136) rotate(-45)" fill="#B64025"/>
<rect width="46.2983" height="1.96255" transform="translate(21.5435 100.162) scale(-0.986209 1.0136) rotate(-45)" fill="#B64025"/>
<rect width="46.2983" height="1.96255" transform="translate(18.8062 102.975) scale(-0.986209 1.0136) rotate(-45)" fill="#B64025"/>
<rect width="46.2983" height="1.96255" transform="translate(16.0688 105.788) scale(-0.986209 1.0136) rotate(-45)" fill="#B64025"/>
<rect width="46.2983" height="1.96255" transform="translate(13.3315 108.601) scale(-0.986209 1.0136) rotate(-45)" fill="#B64025"/>
<rect width="28.8215" height="29.4384" fill="black" fill-opacity="0" transform="translate(52.1016 64.3048) scale(-0.986209 1.0136) rotate(-45)"/>
<rect width="28.8212" height="1.96255" transform="translate(49.3643 67.1183) scale(-0.986209 1.0136) rotate(-45)" fill="#B64025"/>
<rect width="28.8212" height="1.96255" transform="translate(46.627 69.9312) scale(-0.986209 1.0136) rotate(-45)" fill="#B64025"/>
<rect width="28.8212" height="1.96255" transform="translate(43.8896 72.7446) scale(-0.986209 1.0136) rotate(-45)" fill="#B64025"/>
<rect width="28.8212" height="1.96255" transform="translate(41.1523 75.5576) scale(-0.986209 1.0136) rotate(-45)" fill="#B64025"/>
<rect width="28.8212" height="1.96255" transform="translate(38.4155 78.371) scale(-0.986209 1.0136) rotate(-45)" fill="#B64025"/>
<rect width="28.8212" height="1.96255" transform="translate(35.6782 81.1843) scale(-0.986209 1.0136) rotate(-45)" fill="#B64025"/>
<rect width="28.8212" height="1.96255" transform="translate(32.9409 83.9973) scale(-0.986209 1.0136) rotate(-45)" fill="#B64025"/>
<rect width="46.2986" height="29.4381" fill="black" fill-opacity="0" transform="translate(32.4922 44.1509) scale(-0.986209 1.0136) rotate(-45)"/>
<rect width="46.2983" height="1.96255" transform="translate(32.4922 44.1508) scale(-0.986209 1.0136) rotate(-45)" fill="#B64025"/>
<rect width="46.2983" height="1.96255" transform="translate(29.7549 46.9641) scale(-0.986209 1.0136) rotate(-45)" fill="#B64025"/>
<rect width="46.2983" height="1.96255" transform="translate(27.0176 49.777) scale(-0.986209 1.0136) rotate(-45)" fill="#B64025"/>
<rect width="46.2983" height="1.96255" transform="translate(24.2803 52.5904) scale(-0.986209 1.0136) rotate(-45)" fill="#B64025"/>
<rect width="46.2983" height="1.96255" transform="translate(21.5435 55.4033) scale(-0.986209 1.0136) rotate(-45)" fill="#B64025"/>
<rect width="46.2983" height="1.96255" transform="translate(18.8062 58.2167) scale(-0.986209 1.0136) rotate(-45)" fill="#B64025"/>
<rect width="46.2983" height="1.96255" transform="translate(16.0688 61.0302) scale(-0.986209 1.0136) rotate(-45)" fill="#B64025"/>
<rect width="46.2983" height="1.96255" transform="translate(13.3315 63.8431) scale(-0.986209 1.0136) rotate(-45)" fill="#B64025"/>
<rect width="28.8215" height="29.4382" fill="black" fill-opacity="0" transform="translate(52.1011 19.5466) scale(-0.986209 1.0136) rotate(-45)"/>
<rect width="28.8212" height="1.96255" transform="translate(49.3638 22.36) scale(-0.986209 1.0136) rotate(-45)" fill="#B64025"/>
<rect width="28.8212" height="1.96255" transform="translate(46.6265 25.1729) scale(-0.986209 1.0136) rotate(-45)" fill="#B64025"/>
<rect width="28.8212" height="1.96255" transform="translate(43.8892 27.9863) scale(-0.986209 1.0136) rotate(-45)" fill="#B64025"/>
<rect width="28.8212" height="1.96255" transform="translate(41.1523 30.7992) scale(-0.986209 1.0136) rotate(-45)" fill="#B64025"/>
<rect width="28.8212" height="1.96255" transform="translate(38.415 33.6126) scale(-0.986209 1.0136) rotate(-45)" fill="#B64025"/>
<rect width="28.8212" height="1.96255" transform="translate(35.6777 36.426) scale(-0.986209 1.0136) rotate(-45)" fill="#B64025"/>
<rect width="28.8212" height="1.96255" transform="translate(32.9404 39.239) scale(-0.986209 1.0136) rotate(-45)" fill="#B64025"/>
<rect width="46.2986" height="29.4382" fill="black" fill-opacity="0" transform="translate(32.4922 -0.607178) scale(-0.986209 1.0136) rotate(-45)"/>
<rect width="46.2983" height="1.96255" transform="translate(32.4922 -0.607239) scale(-0.986209 1.0136) rotate(-45)" fill="#B64025"/>
<rect width="46.2983" height="1.96255" transform="translate(29.7549 2.20624) scale(-0.986209 1.0136) rotate(-45)" fill="#B64025"/>
<rect width="46.2983" height="1.96255" transform="translate(27.0176 5.01917) scale(-0.986209 1.0136) rotate(-45)" fill="#B64025"/>
<rect width="46.2983" height="1.96255" transform="translate(24.2803 7.83258) scale(-0.986209 1.0136) rotate(-45)" fill="#B64025"/>
<rect width="46.2983" height="1.96255" transform="translate(21.5435 10.6455) scale(-0.986209 1.0136) rotate(-45)" fill="#B64025"/>
<rect width="46.2983" height="1.96255" transform="translate(18.8062 13.4589) scale(-0.986209 1.0136) rotate(-45)" fill="#B64025"/>
<rect width="46.2983" height="1.96255" transform="translate(16.0688 16.2723) scale(-0.986209 1.0136) rotate(-45)" fill="#B64025"/>
<rect width="46.2983" height="1.96255" transform="translate(13.3315 19.0853) scale(-0.986209 1.0136) rotate(-45)" fill="#B64025"/>
<rect width="28.4573" height="29.438" fill="black" fill-opacity="0" transform="translate(36.5024 182.546) scale(-0.986209 1.0136) rotate(-45)"/>
<rect width="28.457" height="1.96255" transform="translate(36.5024 182.546) scale(-0.986209 1.0136) rotate(-45)" fill="#B64025"/>
<rect width="28.457" height="1.96255" transform="translate(33.7651 185.36) scale(-0.986209 1.0136) rotate(-45)" fill="#B64025"/>
<rect width="28.457" height="1.96255" transform="translate(31.0278 188.172) scale(-0.986209 1.0136) rotate(-45)" fill="#B64025"/>
<rect width="28.457" height="1.96255" transform="translate(28.291 190.986) scale(-0.986209 1.0136) rotate(-45)" fill="#B64025"/>
<rect width="28.457" height="1.96255" transform="translate(25.5537 193.799) scale(-0.986209 1.0136) rotate(-45)" fill="#B64025"/>
<rect width="28.457" height="1.96255" transform="translate(22.8164 196.612) scale(-0.986209 1.0136) rotate(-45)" fill="#B64025"/>
<rect width="28.457" height="1.96255" transform="translate(20.0791 199.426) scale(-0.986209 1.0136) rotate(-45)" fill="#B64025"/>
<rect width="28.457" height="1.96255" transform="translate(17.3423 202.239) scale(-0.986209 1.0136) rotate(-45)" fill="#B64025"/>
<rect width="28.4573" height="29.4381" fill="black" fill-opacity="0" transform="translate(17.1475 162.654) scale(-0.986209 1.0136) rotate(-45)"/>
<rect width="28.457" height="1.96255" transform="translate(17.1475 162.654) scale(-0.986209 1.0136) rotate(-45)" fill="#B64025"/>
<rect width="28.457" height="1.96255" transform="translate(14.4102 165.467) scale(-0.986209 1.0136) rotate(-45)" fill="#B64025"/>
<rect width="28.457" height="1.96255" transform="translate(11.6729 168.28) scale(-0.986209 1.0136) rotate(-45)" fill="#B64025"/>
<rect width="28.457" height="1.96255" transform="translate(8.93555 171.093) scale(-0.986209 1.0136) rotate(-45)" fill="#B64025"/>
<rect width="28.457" height="1.96255" transform="translate(6.19873 173.906) scale(-0.986209 1.0136) rotate(-45)" fill="#B64025"/>
<rect width="28.457" height="1.96255" transform="translate(3.46143 176.72) scale(-0.986209 1.0136) rotate(-45)" fill="#B64025"/>
<rect width="28.457" height="1.96255" transform="translate(0.724121 179.533) scale(-0.986209 1.0136) rotate(-45)" fill="#B64025"/>
<rect width="190" height="30" fill="black" fill-opacity="0" transform="scale(-1 1) rotate(90)"/>
<mask id="mask1" mask-type="alpha" maskUnits="userSpaceOnUse" x="0" y="0" width="30" height="190">
<rect width="190" height="30" transform="scale(-1 1) rotate(90)" fill="#B64025"/>
</mask>
<g mask="url(#mask1)">
<rect width="237.436" height="75.3275" fill="black" fill-opacity="0" transform="translate(-23.2261 -33.7906) scale(-1 1) rotate(90)"/>
<rect width="28.4573" height="29.438" fill="black" fill-opacity="0" transform="translate(36.5024 182.546) scale(-0.986209 1.0136) rotate(-45)"/>
<rect width="28.457" height="1.96255" transform="translate(36.5024 182.546) scale(-0.986209 1.0136) rotate(-45)" fill="#B64025"/>
<rect width="28.457" height="1.96255" transform="translate(33.7651 185.36) scale(-0.986209 1.0136) rotate(-45)" fill="#B64025"/>
<rect width="28.457" height="1.96255" transform="translate(31.0278 188.172) scale(-0.986209 1.0136) rotate(-45)" fill="#B64025"/>
<rect width="28.457" height="1.96255" transform="translate(28.291 190.986) scale(-0.986209 1.0136) rotate(-45)" fill="#B64025"/>
<rect width="28.457" height="1.96255" transform="translate(25.5537 193.799) scale(-0.986209 1.0136) rotate(-45)" fill="#B64025"/>
<rect width="28.457" height="1.96255" transform="translate(22.8164 196.612) scale(-0.986209 1.0136) rotate(-45)" fill="#B64025"/>
<rect width="28.457" height="1.96255" transform="translate(20.0791 199.426) scale(-0.986209 1.0136) rotate(-45)" fill="#B64025"/>
<rect width="28.457" height="1.96255" transform="translate(17.3423 202.239) scale(-0.986209 1.0136) rotate(-45)" fill="#B64025"/>
<rect width="28.4573" height="29.4381" fill="black" fill-opacity="0" transform="translate(17.1475 162.654) scale(-0.986209 1.0136) rotate(-45)"/>
<rect width="28.457" height="1.96255" transform="translate(17.1475 162.654) scale(-0.986209 1.0136) rotate(-45)" fill="#B64025"/>
<rect width="28.457" height="1.96255" transform="translate(14.4102 165.467) scale(-0.986209 1.0136) rotate(-45)" fill="#B64025"/>
<rect width="28.457" height="1.96255" transform="translate(11.6729 168.28) scale(-0.986209 1.0136) rotate(-45)" fill="#B64025"/>
<rect width="28.457" height="1.96255" transform="translate(8.93555 171.093) scale(-0.986209 1.0136) rotate(-45)" fill="#B64025"/>
<rect width="28.457" height="1.96255" transform="translate(6.19873 173.906) scale(-0.986209 1.0136) rotate(-45)" fill="#B64025"/>
<rect width="28.457" height="1.96255" transform="translate(3.46143 176.72) scale(-0.986209 1.0136) rotate(-45)" fill="#B64025"/>
<rect width="28.457" height="1.96255" transform="translate(0.724121 179.533) scale(-0.986209 1.0136) rotate(-45)" fill="#B64025"/>
<rect width="237.436" height="75.3275" fill="black" fill-opacity="0" transform="translate(-23.2261 -33.7906) scale(-1 1) rotate(90)"/>
<rect width="28.8215" height="29.4381" fill="black" fill-opacity="0" transform="translate(51.2725 152.969) scale(-0.986209 1.0136) rotate(-45)"/>
<rect width="28.8212" height="1.96255" transform="translate(51.2725 152.969) scale(-0.986209 1.0136) rotate(-45)" fill="#B64025"/>
<rect width="28.8212" height="1.96255" transform="translate(48.5352 155.782) scale(-0.986209 1.0136) rotate(-45)" fill="#B64025"/>
<rect width="28.8212" height="1.96255" transform="translate(45.7979 158.595) scale(-0.986209 1.0136) rotate(-45)" fill="#B64025"/>
<rect width="28.8212" height="1.96255" transform="translate(43.0605 161.409) scale(-0.986209 1.0136) rotate(-45)" fill="#B64025"/>
<rect width="28.8212" height="1.96255" transform="translate(40.3237 164.222) scale(-0.986209 1.0136) rotate(-45)" fill="#B64025"/>
<rect width="28.8212" height="1.96255" transform="translate(37.5864 167.035) scale(-0.986209 1.0136) rotate(-45)" fill="#B64025"/>
<rect width="28.8212" height="1.96255" transform="translate(34.8491 169.848) scale(-0.986209 1.0136) rotate(-45)" fill="#B64025"/>
<rect width="28.8212" height="1.96255" transform="translate(32.1118 172.661) scale(-0.986209 1.0136) rotate(-45)" fill="#B64025"/>
<rect width="46.2986" height="29.4381" fill="black" fill-opacity="0" transform="translate(31.6636 132.815) scale(-0.986209 1.0136) rotate(-45)"/>
<rect width="46.2983" height="1.96255" transform="translate(31.6636 132.815) scale(-0.986209 1.0136) rotate(-45)" fill="#B64025"/>
<rect width="46.2983" height="1.96255" transform="translate(28.9263 135.629) scale(-0.986209 1.0136) rotate(-45)" fill="#B64025"/>
<rect width="46.2983" height="1.96255" transform="translate(26.189 138.441) scale(-0.986209 1.0136) rotate(-45)" fill="#B64025"/>
<rect width="46.2983" height="1.96255" transform="translate(23.4517 141.255) scale(-0.986209 1.0136) rotate(-45)" fill="#B64025"/>
<rect width="46.2983" height="1.96255" transform="translate(20.7148 144.068) scale(-0.986209 1.0136) rotate(-45)" fill="#B64025"/>
<rect width="46.2983" height="1.96255" transform="translate(17.9775 146.881) scale(-0.986209 1.0136) rotate(-45)" fill="#B64025"/>
<rect width="46.2983" height="1.96255" transform="translate(15.2402 149.695) scale(-0.986209 1.0136) rotate(-45)" fill="#B64025"/>
<rect width="46.2983" height="1.96255" transform="translate(12.5029 152.508) scale(-0.986209 1.0136) rotate(-45)" fill="#B64025"/>
<rect width="28.8215" height="29.4382" fill="black" fill-opacity="0" transform="translate(52.1011 109.063) scale(-0.986209 1.0136) rotate(-45)"/>
<rect width="28.8212" height="1.96255" transform="translate(49.3638 111.876) scale(-0.986209 1.0136) rotate(-45)" fill="#B64025"/>
<rect width="28.8212" height="1.96255" transform="translate(46.6265 114.689) scale(-0.986209 1.0136) rotate(-45)" fill="#B64025"/>
<rect width="28.8212" height="1.96255" transform="translate(43.8892 117.502) scale(-0.986209 1.0136) rotate(-45)" fill="#B64025"/>
<rect width="28.8212" height="1.96255" transform="translate(41.1523 120.315) scale(-0.986209 1.0136) rotate(-45)" fill="#B64025"/>
<rect width="28.8212" height="1.96255" transform="translate(38.415 123.129) scale(-0.986209 1.0136) rotate(-45)" fill="#B64025"/>
<rect width="28.8212" height="1.96255" transform="translate(35.6777 125.942) scale(-0.986209 1.0136) rotate(-45)" fill="#B64025"/>
<rect width="28.8212" height="1.96255" transform="translate(32.9404 128.755) scale(-0.986209 1.0136) rotate(-45)" fill="#B64025"/>
<rect width="46.2986" height="29.4382" fill="black" fill-opacity="0" transform="translate(32.4922 88.9089) scale(-0.986209 1.0136) rotate(-45)"/>
<rect width="46.2983" height="1.96255" transform="translate(32.4922 88.9089) scale(-0.986209 1.0136) rotate(-45)" fill="#B64025"/>
<rect width="46.2983" height="1.96255" transform="translate(29.7549 91.7224) scale(-0.986209 1.0136) rotate(-45)" fill="#B64025"/>
<rect width="46.2983" height="1.96255" transform="translate(27.0176 94.5353) scale(-0.986209 1.0136) rotate(-45)" fill="#B64025"/>
<rect width="46.2983" height="1.96255" transform="translate(24.2803 97.3487) scale(-0.986209 1.0136) rotate(-45)" fill="#B64025"/>
<rect width="46.2983" height="1.96255" transform="translate(21.5435 100.162) scale(-0.986209 1.0136) rotate(-45)" fill="#B64025"/>
<rect width="46.2983" height="1.96255" transform="translate(18.8062 102.975) scale(-0.986209 1.0136) rotate(-45)" fill="#B64025"/>
<rect width="46.2983" height="1.96255" transform="translate(16.0688 105.788) scale(-0.986209 1.0136) rotate(-45)" fill="#B64025"/>
<rect width="46.2983" height="1.96255" transform="translate(13.3315 108.601) scale(-0.986209 1.0136) rotate(-45)" fill="#B64025"/>
<rect width="28.8215" height="29.4384" fill="black" fill-opacity="0" transform="translate(52.1016 64.3048) scale(-0.986209 1.0136) rotate(-45)"/>
<rect width="28.8212" height="1.96255" transform="translate(49.3643 67.1183) scale(-0.986209 1.0136) rotate(-45)" fill="#B64025"/>
<rect width="28.8212" height="1.96255" transform="translate(46.627 69.9312) scale(-0.986209 1.0136) rotate(-45)" fill="#B64025"/>
<rect width="28.8212" height="1.96255" transform="translate(43.8896 72.7446) scale(-0.986209 1.0136) rotate(-45)" fill="#B64025"/>
<rect width="28.8212" height="1.96255" transform="translate(41.1523 75.5576) scale(-0.986209 1.0136) rotate(-45)" fill="#B64025"/>
<rect width="28.8212" height="1.96255" transform="translate(38.4155 78.371) scale(-0.986209 1.0136) rotate(-45)" fill="#B64025"/>
<rect width="28.8212" height="1.96255" transform="translate(35.6782 81.1843) scale(-0.986209 1.0136) rotate(-45)" fill="#B64025"/>
<rect width="28.8212" height="1.96255" transform="translate(32.9409 83.9973) scale(-0.986209 1.0136) rotate(-45)" fill="#B64025"/>
<rect width="46.2986" height="29.4381" fill="black" fill-opacity="0" transform="translate(32.4922 44.1509) scale(-0.986209 1.0136) rotate(-45)"/>
<rect width="46.2983" height="1.96255" transform="translate(32.4922 44.1508) scale(-0.986209 1.0136) rotate(-45)" fill="#B64025"/>
<rect width="46.2983" height="1.96255" transform="translate(29.7549 46.9641) scale(-0.986209 1.0136) rotate(-45)" fill="#B64025"/>
<rect width="46.2983" height="1.96255" transform="translate(27.0176 49.777) scale(-0.986209 1.0136) rotate(-45)" fill="#B64025"/>
<rect width="46.2983" height="1.96255" transform="translate(24.2803 52.5904) scale(-0.986209 1.0136) rotate(-45)" fill="#B64025"/>
<rect width="46.2983" height="1.96255" transform="translate(21.5435 55.4033) scale(-0.986209 1.0136) rotate(-45)" fill="#B64025"/>
<rect width="46.2983" height="1.96255" transform="translate(18.8062 58.2167) scale(-0.986209 1.0136) rotate(-45)" fill="#B64025"/>
<rect width="46.2983" height="1.96255" transform="translate(16.0688 61.0302) scale(-0.986209 1.0136) rotate(-45)" fill="#B64025"/>
<rect width="46.2983" height="1.96255" transform="translate(13.3315 63.8431) scale(-0.986209 1.0136) rotate(-45)" fill="#B64025"/>
<rect width="28.8215" height="29.4382" fill="black" fill-opacity="0" transform="translate(52.1011 19.5466) scale(-0.986209 1.0136) rotate(-45)"/>
<rect width="28.8212" height="1.96255" transform="translate(49.3638 22.36) scale(-0.986209 1.0136) rotate(-45)" fill="#B64025"/>
<rect width="28.8212" height="1.96255" transform="translate(46.6265 25.1729) scale(-0.986209 1.0136) rotate(-45)" fill="#B64025"/>
<rect width="28.8212" height="1.96255" transform="translate(43.8892 27.9863) scale(-0.986209 1.0136) rotate(-45)" fill="#B64025"/>
<rect width="28.8212" height="1.96255" transform="translate(41.1523 30.7992) scale(-0.986209 1.0136) rotate(-45)" fill="#B64025"/>
<rect width="28.8212" height="1.96255" transform="translate(38.415 33.6126) scale(-0.986209 1.0136) rotate(-45)" fill="#B64025"/>
<rect width="28.8212" height="1.96255" transform="translate(35.6777 36.426) scale(-0.986209 1.0136) rotate(-45)" fill="#B64025"/>
<rect width="28.8212" height="1.96255" transform="translate(32.9404 39.239) scale(-0.986209 1.0136) rotate(-45)" fill="#B64025"/>
<rect width="46.2986" height="29.4382" fill="black" fill-opacity="0" transform="translate(32.4922 -0.607178) scale(-0.986209 1.0136) rotate(-45)"/>
<rect width="46.2983" height="1.96255" transform="translate(32.4922 -0.607239) scale(-0.986209 1.0136) rotate(-45)" fill="#B64025"/>
<rect width="46.2983" height="1.96255" transform="translate(29.7549 2.20624) scale(-0.986209 1.0136) rotate(-45)" fill="#B64025"/>
<rect width="46.2983" height="1.96255" transform="translate(27.0176 5.01917) scale(-0.986209 1.0136) rotate(-45)" fill="#B64025"/>
<rect width="46.2983" height="1.96255" transform="translate(24.2803 7.83258) scale(-0.986209 1.0136) rotate(-45)" fill="#B64025"/>
<rect width="46.2983" height="1.96255" transform="translate(21.5435 10.6455) scale(-0.986209 1.0136) rotate(-45)" fill="#B64025"/>
<rect width="46.2983" height="1.96255" transform="translate(18.8062 13.4589) scale(-0.986209 1.0136) rotate(-45)" fill="#B64025"/>
<rect width="46.2983" height="1.96255" transform="translate(16.0688 16.2723) scale(-0.986209 1.0136) rotate(-45)" fill="#B64025"/>
<rect width="46.2983" height="1.96255" transform="translate(13.3315 19.0853) scale(-0.986209 1.0136) rotate(-45)" fill="#B64025"/>
<rect width="28.4573" height="29.438" fill="black" fill-opacity="0" transform="translate(36.5024 182.546) scale(-0.986209 1.0136) rotate(-45)"/>
<rect width="28.457" height="1.96255" transform="translate(36.5024 182.546) scale(-0.986209 1.0136) rotate(-45)" fill="#B64025"/>
<rect width="28.457" height="1.96255" transform="translate(33.7651 185.36) scale(-0.986209 1.0136) rotate(-45)" fill="#B64025"/>
<rect width="28.457" height="1.96255" transform="translate(31.0278 188.172) scale(-0.986209 1.0136) rotate(-45)" fill="#B64025"/>
<rect width="28.457" height="1.96255" transform="translate(28.291 190.986) scale(-0.986209 1.0136) rotate(-45)" fill="#B64025"/>
<rect width="28.457" height="1.96255" transform="translate(25.5537 193.799) scale(-0.986209 1.0136) rotate(-45)" fill="#B64025"/>
<rect width="28.457" height="1.96255" transform="translate(22.8164 196.612) scale(-0.986209 1.0136) rotate(-45)" fill="#B64025"/>
<rect width="28.457" height="1.96255" transform="translate(20.0791 199.426) scale(-0.986209 1.0136) rotate(-45)" fill="#B64025"/>
<rect width="28.457" height="1.96255" transform="translate(17.3423 202.239) scale(-0.986209 1.0136) rotate(-45)" fill="#B64025"/>
<rect width="28.4573" height="29.4381" fill="black" fill-opacity="0" transform="translate(17.1475 162.654) scale(-0.986209 1.0136) rotate(-45)"/>
<rect width="28.457" height="1.96255" transform="translate(17.1475 162.654) scale(-0.986209 1.0136) rotate(-45)" fill="#B64025"/>
<rect width="28.457" height="1.96255" transform="translate(14.4102 165.467) scale(-0.986209 1.0136) rotate(-45)" fill="#B64025"/>
<rect width="28.457" height="1.96255" transform="translate(11.6729 168.28) scale(-0.986209 1.0136) rotate(-45)" fill="#B64025"/>
<rect width="28.457" height="1.96255" transform="translate(8.93555 171.093) scale(-0.986209 1.0136) rotate(-45)" fill="#B64025"/>
<rect width="28.457" height="1.96255" transform="translate(6.19873 173.906) scale(-0.986209 1.0136) rotate(-45)" fill="#B64025"/>
<rect width="28.457" height="1.96255" transform="translate(3.46143 176.72) scale(-0.986209 1.0136) rotate(-45)" fill="#B64025"/>
<rect width="28.457" height="1.96255" transform="translate(0.724121 179.533) scale(-0.986209 1.0136) rotate(-45)" fill="#B64025"/>
</g>
</g>
<rect width="190" height="30" fill="black" fill-opacity="0" transform="translate(125 190) rotate(-90)"/>
<mask id="mask2" mask-type="alpha" maskUnits="userSpaceOnUse" x="125" y="0" width="31" height="190">
<rect x="125" y="190" width="190" height="30" transform="rotate(-90 125 190)" fill="#B64025"/>
</mask>
<g mask="url(#mask2)">
<rect width="237.437" height="75.3287" fill="black" fill-opacity="0" transform="translate(101.773 223.792) rotate(-90)"/>
<rect width="28.4584" height="29.4379" fill="black" fill-opacity="0" transform="translate(161.502 7.45355) scale(0.986209 1.0136) rotate(135)"/>
<rect width="28.457" height="1.96255" transform="translate(161.501 7.45453) scale(0.986209 1.0136) rotate(135)" fill="#B64025"/>
<rect width="28.457" height="1.96255" transform="translate(158.765 4.64044) scale(0.986209 1.0136) rotate(135)" fill="#B64025"/>
<rect width="28.457" height="1.96255" transform="translate(156.028 1.82751) scale(0.986209 1.0136) rotate(135)" fill="#B64025"/>
<rect width="28.457" height="1.96255" transform="translate(153.291 -0.985901) scale(0.986209 1.0136) rotate(135)" fill="#B64025"/>
<rect width="28.457" height="1.96255" transform="translate(150.554 -3.79883) scale(0.986209 1.0136) rotate(135)" fill="#B64025"/>
<rect width="28.457" height="1.96255" transform="translate(147.817 -6.61224) scale(0.986209 1.0136) rotate(135)" fill="#B64025"/>
<rect width="28.457" height="1.96255" transform="translate(145.08 -9.42566) scale(0.986209 1.0136) rotate(135)" fill="#B64025"/>
<rect width="28.457" height="1.96255" transform="translate(142.342 -12.2385) scale(0.986209 1.0136) rotate(135)" fill="#B64025"/>
<rect width="28.4581" height="29.4385" fill="black" fill-opacity="0" transform="translate(142.148 27.3461) scale(0.986209 1.0136) rotate(135)"/>
<rect width="28.457" height="1.96255" transform="translate(142.147 27.347) scale(0.986209 1.0136) rotate(135)" fill="#B64025"/>
<rect width="28.457" height="1.96255" transform="translate(139.411 24.5328) scale(0.986209 1.0136) rotate(135)" fill="#B64025"/>
<rect width="28.457" height="1.96255" transform="translate(136.673 21.7198) scale(0.986209 1.0136) rotate(135)" fill="#B64025"/>
<rect width="28.457" height="1.96255" transform="translate(133.936 18.9065) scale(0.986209 1.0136) rotate(135)" fill="#B64025"/>
<rect width="28.457" height="1.96255" transform="translate(131.199 16.0936) scale(0.986209 1.0136) rotate(135)" fill="#B64025"/>
<rect width="28.457" height="1.96255" transform="translate(128.461 13.2802) scale(0.986209 1.0136) rotate(135)" fill="#B64025"/>
<rect width="28.457" height="1.96255" transform="translate(125.724 10.4667) scale(0.986209 1.0136) rotate(135)" fill="#B64025"/>
<rect width="237.437" height="75.3287" fill="black" fill-opacity="0" transform="translate(101.773 223.792) rotate(-90)"/>
<rect width="28.8228" height="29.4383" fill="black" fill-opacity="0" transform="translate(176.273 37.0312) scale(0.986209 1.0136) rotate(135)"/>
<rect width="28.8212" height="1.96255" transform="translate(176.272 37.0323) scale(0.986209 1.0136) rotate(135)" fill="#B64025"/>
<rect width="28.8212" height="1.96255" transform="translate(173.536 34.218) scale(0.986209 1.0136) rotate(135)" fill="#B64025"/>
<rect width="28.8212" height="1.96255" transform="translate(170.798 31.405) scale(0.986209 1.0136) rotate(135)" fill="#B64025"/>
<rect width="28.8212" height="1.96255" transform="translate(168.061 28.5916) scale(0.986209 1.0136) rotate(135)" fill="#B64025"/>
<rect width="28.8212" height="1.96255" transform="translate(165.325 25.7787) scale(0.986209 1.0136) rotate(135)" fill="#B64025"/>
<rect width="28.8212" height="1.96255" transform="translate(162.587 22.9653) scale(0.986209 1.0136) rotate(135)" fill="#B64025"/>
<rect width="28.8212" height="1.96255" transform="translate(159.85 20.1519) scale(0.986209 1.0136) rotate(135)" fill="#B64025"/>
<rect width="28.8212" height="1.96255" transform="translate(157.112 17.3389) scale(0.986209 1.0136) rotate(135)" fill="#B64025"/>
<rect width="46.2999" height="29.4385" fill="black" fill-opacity="0" transform="translate(156.664 57.1848) scale(0.986209 1.0136) rotate(135)"/>
<rect width="46.2983" height="1.96255" transform="translate(156.663 57.186) scale(0.986209 1.0136) rotate(135)" fill="#B64025"/>
<rect width="46.2983" height="1.96255" transform="translate(153.927 54.3715) scale(0.986209 1.0136) rotate(135)" fill="#B64025"/>
<rect width="46.2983" height="1.96255" transform="translate(151.189 51.5586) scale(0.986209 1.0136) rotate(135)" fill="#B64025"/>
<rect width="46.2983" height="1.96255" transform="translate(148.452 48.7452) scale(0.986209 1.0136) rotate(135)" fill="#B64025"/>
<rect width="46.2983" height="1.96255" transform="translate(145.715 45.9323) scale(0.986209 1.0136) rotate(135)" fill="#B64025"/>
<rect width="46.2983" height="1.96255" transform="translate(142.977 43.1188) scale(0.986209 1.0136) rotate(135)" fill="#B64025"/>
<rect width="46.2983" height="1.96255" transform="translate(140.24 40.3054) scale(0.986209 1.0136) rotate(135)" fill="#B64025"/>
<rect width="46.2983" height="1.96255" transform="translate(137.503 37.4925) scale(0.986209 1.0136) rotate(135)" fill="#B64025"/>
<rect width="28.8223" height="29.4383" fill="black" fill-opacity="0" transform="translate(177.102 80.937) scale(0.986209 1.0136) rotate(135)"/>
<rect width="28.8212" height="1.96255" transform="translate(174.364 78.1238) scale(0.986209 1.0136) rotate(135)" fill="#B64025"/>
<rect width="28.8212" height="1.96255" transform="translate(171.627 75.311) scale(0.986209 1.0136) rotate(135)" fill="#B64025"/>
<rect width="28.8212" height="1.96255" transform="translate(168.889 72.4976) scale(0.986209 1.0136) rotate(135)" fill="#B64025"/>
<rect width="28.8212" height="1.96255" transform="translate(166.152 69.6846) scale(0.986209 1.0136) rotate(135)" fill="#B64025"/>
<rect width="28.8212" height="1.96255" transform="translate(163.416 66.8712) scale(0.986209 1.0136) rotate(135)" fill="#B64025"/>
<rect width="28.8212" height="1.96255" transform="translate(160.679 64.0578) scale(0.986209 1.0136) rotate(135)" fill="#B64025"/>
<rect width="28.8212" height="1.96255" transform="translate(157.941 61.2449) scale(0.986209 1.0136) rotate(135)" fill="#B64025"/>
<rect width="46.3" height="29.4383" fill="black" fill-opacity="0" transform="translate(157.493 101.091) scale(0.986209 1.0136) rotate(135)"/>
<rect width="46.2983" height="1.96255" transform="translate(157.492 101.092) scale(0.986209 1.0136) rotate(135)" fill="#B64025"/>
<rect width="46.2983" height="1.96255" transform="translate(154.756 98.2778) scale(0.986209 1.0136) rotate(135)" fill="#B64025"/>
<rect width="46.2983" height="1.96255" transform="translate(152.018 95.4648) scale(0.986209 1.0136) rotate(135)" fill="#B64025"/>
<rect width="46.2983" height="1.96255" transform="translate(149.281 92.6514) scale(0.986209 1.0136) rotate(135)" fill="#B64025"/>
<rect width="46.2983" height="1.96255" transform="translate(146.545 89.8385) scale(0.986209 1.0136) rotate(135)" fill="#B64025"/>
<rect width="46.2983" height="1.96255" transform="translate(143.807 87.0251) scale(0.986209 1.0136) rotate(135)" fill="#B64025"/>
<rect width="46.2983" height="1.96255" transform="translate(141.07 84.2117) scale(0.986209 1.0136) rotate(135)" fill="#B64025"/>
<rect width="46.2983" height="1.96255" transform="translate(138.333 81.3988) scale(0.986209 1.0136) rotate(135)" fill="#B64025"/>
<rect width="28.8226" height="29.4383" fill="black" fill-opacity="0" transform="translate(177.102 125.695) scale(0.986209 1.0136) rotate(135)"/>
<rect width="28.8212" height="1.96255" transform="translate(174.365 122.882) scale(0.986209 1.0136) rotate(135)" fill="#B64025"/>
<rect width="28.8212" height="1.96255" transform="translate(171.627 120.069) scale(0.986209 1.0136) rotate(135)" fill="#B64025"/>
<rect width="28.8212" height="1.96255" transform="translate(168.89 117.255) scale(0.986209 1.0136) rotate(135)" fill="#B64025"/>
<rect width="28.8212" height="1.96255" transform="translate(166.152 114.443) scale(0.986209 1.0136) rotate(135)" fill="#B64025"/>
<rect width="28.8212" height="1.96255" transform="translate(163.417 111.629) scale(0.986209 1.0136) rotate(135)" fill="#B64025"/>
<rect width="28.8212" height="1.96255" transform="translate(160.679 108.816) scale(0.986209 1.0136) rotate(135)" fill="#B64025"/>
<rect width="28.8212" height="1.96255" transform="translate(157.941 106.003) scale(0.986209 1.0136) rotate(135)" fill="#B64025"/>
<rect width="46.2989" height="29.4383" fill="black" fill-opacity="0" transform="translate(157.493 145.849) scale(0.986209 1.0136) rotate(135)"/>
<rect width="46.2983" height="1.96255" transform="translate(157.493 145.849) scale(0.986209 1.0136) rotate(135)" fill="#B64025"/>
<rect width="46.2983" height="1.96255" transform="translate(154.756 143.036) scale(0.986209 1.0136) rotate(135)" fill="#B64025"/>
<rect width="46.2983" height="1.96255" transform="translate(152.018 140.223) scale(0.986209 1.0136) rotate(135)" fill="#B64025"/>
<rect width="46.2983" height="1.96255" transform="translate(149.282 137.409) scale(0.986209 1.0136) rotate(135)" fill="#B64025"/>
<rect width="46.2983" height="1.96255" transform="translate(146.545 134.597) scale(0.986209 1.0136) rotate(135)" fill="#B64025"/>
<rect width="46.2983" height="1.96255" transform="translate(143.807 131.783) scale(0.986209 1.0136) rotate(135)" fill="#B64025"/>
<rect width="46.2983" height="1.96255" transform="translate(141.07 128.97) scale(0.986209 1.0136) rotate(135)" fill="#B64025"/>
<rect width="46.2983" height="1.96255" transform="translate(138.333 126.157) scale(0.986209 1.0136) rotate(135)" fill="#B64025"/>
<rect width="28.8221" height="29.4383" fill="black" fill-opacity="0" transform="translate(177.102 170.453) scale(0.986209 1.0136) rotate(135)"/>
<rect width="28.8212" height="1.96255" transform="translate(174.364 167.64) scale(0.986209 1.0136) rotate(135)" fill="#B64025"/>
<rect width="28.8212" height="1.96255" transform="translate(171.627 164.827) scale(0.986209 1.0136) rotate(135)" fill="#B64025"/>
<rect width="28.8212" height="1.96255" transform="translate(168.889 162.014) scale(0.986209 1.0136) rotate(135)" fill="#B64025"/>
<rect width="28.8212" height="1.96255" transform="translate(166.152 159.201) scale(0.986209 1.0136) rotate(135)" fill="#B64025"/>
<rect width="28.8212" height="1.96255" transform="translate(163.416 156.387) scale(0.986209 1.0136) rotate(135)" fill="#B64025"/>
<rect width="28.8212" height="1.96255" transform="translate(160.679 153.574) scale(0.986209 1.0136) rotate(135)" fill="#B64025"/>
<rect width="28.8212" height="1.96255" transform="translate(157.941 150.761) scale(0.986209 1.0136) rotate(135)" fill="#B64025"/>
<rect width="46.3" height="29.4383" fill="black" fill-opacity="0" transform="translate(157.493 190.607) scale(0.986209 1.0136) rotate(135)"/>
<rect width="46.2983" height="1.96255" transform="translate(157.492 190.608) scale(0.986209 1.0136) rotate(135)" fill="#B64025"/>
<rect width="46.2983" height="1.96255" transform="translate(154.756 187.794) scale(0.986209 1.0136) rotate(135)" fill="#B64025"/>
<rect width="46.2983" height="1.96255" transform="translate(152.018 184.981) scale(0.986209 1.0136) rotate(135)" fill="#B64025"/>
<rect width="46.2983" height="1.96255" transform="translate(149.281 182.168) scale(0.986209 1.0136) rotate(135)" fill="#B64025"/>
<rect width="46.2983" height="1.96255" transform="translate(146.545 179.355) scale(0.986209 1.0136) rotate(135)" fill="#B64025"/>
<rect width="46.2983" height="1.96255" transform="translate(143.807 176.541) scale(0.986209 1.0136) rotate(135)" fill="#B64025"/>
<rect width="46.2983" height="1.96255" transform="translate(141.07 173.728) scale(0.986209 1.0136) rotate(135)" fill="#B64025"/>
<rect width="46.2983" height="1.96255" transform="translate(138.333 170.915) scale(0.986209 1.0136) rotate(135)" fill="#B64025"/>
<rect width="28.4584" height="29.4379" fill="black" fill-opacity="0" transform="translate(161.502 7.45355) scale(0.986209 1.0136) rotate(135)"/>
<rect width="28.457" height="1.96255" transform="translate(161.501 7.45453) scale(0.986209 1.0136) rotate(135)" fill="#B64025"/>
<rect width="28.457" height="1.96255" transform="translate(158.765 4.64044) scale(0.986209 1.0136) rotate(135)" fill="#B64025"/>
<rect width="28.457" height="1.96255" transform="translate(156.028 1.82751) scale(0.986209 1.0136) rotate(135)" fill="#B64025"/>
<rect width="28.457" height="1.96255" transform="translate(153.291 -0.985901) scale(0.986209 1.0136) rotate(135)" fill="#B64025"/>
<rect width="28.457" height="1.96255" transform="translate(150.554 -3.79883) scale(0.986209 1.0136) rotate(135)" fill="#B64025"/>
<rect width="28.457" height="1.96255" transform="translate(147.817 -6.61224) scale(0.986209 1.0136) rotate(135)" fill="#B64025"/>
<rect width="28.457" height="1.96255" transform="translate(145.08 -9.42566) scale(0.986209 1.0136) rotate(135)" fill="#B64025"/>
<rect width="28.457" height="1.96255" transform="translate(142.342 -12.2385) scale(0.986209 1.0136) rotate(135)" fill="#B64025"/>
<rect width="28.4581" height="29.4385" fill="black" fill-opacity="0" transform="translate(142.148 27.3461) scale(0.986209 1.0136) rotate(135)"/>
<rect width="28.457" height="1.96255" transform="translate(142.147 27.347) scale(0.986209 1.0136) rotate(135)" fill="#B64025"/>
<rect width="28.457" height="1.96255" transform="translate(139.411 24.5328) scale(0.986209 1.0136) rotate(135)" fill="#B64025"/>
<rect width="28.457" height="1.96255" transform="translate(136.673 21.7198) scale(0.986209 1.0136) rotate(135)" fill="#B64025"/>
<rect width="28.457" height="1.96255" transform="translate(133.936 18.9065) scale(0.986209 1.0136) rotate(135)" fill="#B64025"/>
<rect width="28.457" height="1.96255" transform="translate(131.199 16.0936) scale(0.986209 1.0136) rotate(135)" fill="#B64025"/>
<rect width="28.457" height="1.96255" transform="translate(128.461 13.2802) scale(0.986209 1.0136) rotate(135)" fill="#B64025"/>
<rect width="28.457" height="1.96255" transform="translate(125.724 10.4667) scale(0.986209 1.0136) rotate(135)" fill="#B64025"/>
<rect width="190" height="30" fill="black" fill-opacity="0" transform="translate(125 190) rotate(-90)"/>
<mask id="mask3" mask-type="alpha" maskUnits="userSpaceOnUse" x="125" y="0" width="31" height="190">
<rect x="125" y="190" width="190" height="30" transform="rotate(-90 125 190)" fill="#B64025"/>
</mask>
<g mask="url(#mask3)">
<rect width="237.437" height="75.3287" fill="black" fill-opacity="0" transform="translate(101.773 223.792) rotate(-90)"/>
<rect width="28.4584" height="29.4379" fill="black" fill-opacity="0" transform="translate(161.502 7.45355) scale(0.986209 1.0136) rotate(135)"/>
<rect width="28.457" height="1.96255" transform="translate(161.501 7.45453) scale(0.986209 1.0136) rotate(135)" fill="#B64025"/>
<rect width="28.457" height="1.96255" transform="translate(158.765 4.64044) scale(0.986209 1.0136) rotate(135)" fill="#B64025"/>
<rect width="28.457" height="1.96255" transform="translate(156.028 1.82751) scale(0.986209 1.0136) rotate(135)" fill="#B64025"/>
<rect width="28.457" height="1.96255" transform="translate(153.291 -0.985901) scale(0.986209 1.0136) rotate(135)" fill="#B64025"/>
<rect width="28.457" height="1.96255" transform="translate(150.554 -3.79883) scale(0.986209 1.0136) rotate(135)" fill="#B64025"/>
<rect width="28.457" height="1.96255" transform="translate(147.817 -6.61224) scale(0.986209 1.0136) rotate(135)" fill="#B64025"/>
<rect width="28.457" height="1.96255" transform="translate(145.08 -9.42566) scale(0.986209 1.0136) rotate(135)" fill="#B64025"/>
<rect width="28.457" height="1.96255" transform="translate(142.342 -12.2385) scale(0.986209 1.0136) rotate(135)" fill="#B64025"/>
<rect width="28.4581" height="29.4385" fill="black" fill-opacity="0" transform="translate(142.148 27.3461) scale(0.986209 1.0136) rotate(135)"/>
<rect width="28.457" height="1.96255" transform="translate(142.147 27.347) scale(0.986209 1.0136) rotate(135)" fill="#B64025"/>
<rect width="28.457" height="1.96255" transform="translate(139.411 24.5328) scale(0.986209 1.0136) rotate(135)" fill="#B64025"/>
<rect width="28.457" height="1.96255" transform="translate(136.673 21.7198) scale(0.986209 1.0136) rotate(135)" fill="#B64025"/>
<rect width="28.457" height="1.96255" transform="translate(133.936 18.9065) scale(0.986209 1.0136) rotate(135)" fill="#B64025"/>
<rect width="28.457" height="1.96255" transform="translate(131.199 16.0936) scale(0.986209 1.0136) rotate(135)" fill="#B64025"/>
<rect width="28.457" height="1.96255" transform="translate(128.461 13.2802) scale(0.986209 1.0136) rotate(135)" fill="#B64025"/>
<rect width="28.457" height="1.96255" transform="translate(125.724 10.4667) scale(0.986209 1.0136) rotate(135)" fill="#B64025"/>
<rect width="237.437" height="75.3287" fill="black" fill-opacity="0" transform="translate(101.773 223.792) rotate(-90)"/>
<rect width="28.8228" height="29.4383" fill="black" fill-opacity="0" transform="translate(176.273 37.0312) scale(0.986209 1.0136) rotate(135)"/>
<rect width="28.8212" height="1.96255" transform="translate(176.272 37.0323) scale(0.986209 1.0136) rotate(135)" fill="#B64025"/>
<rect width="28.8212" height="1.96255" transform="translate(173.536 34.218) scale(0.986209 1.0136) rotate(135)" fill="#B64025"/>
<rect width="28.8212" height="1.96255" transform="translate(170.798 31.405) scale(0.986209 1.0136) rotate(135)" fill="#B64025"/>
<rect width="28.8212" height="1.96255" transform="translate(168.061 28.5916) scale(0.986209 1.0136) rotate(135)" fill="#B64025"/>
<rect width="28.8212" height="1.96255" transform="translate(165.325 25.7787) scale(0.986209 1.0136) rotate(135)" fill="#B64025"/>
<rect width="28.8212" height="1.96255" transform="translate(162.587 22.9653) scale(0.986209 1.0136) rotate(135)" fill="#B64025"/>
<rect width="28.8212" height="1.96255" transform="translate(159.85 20.1519) scale(0.986209 1.0136) rotate(135)" fill="#B64025"/>
<rect width="28.8212" height="1.96255" transform="translate(157.112 17.3389) scale(0.986209 1.0136) rotate(135)" fill="#B64025"/>
<rect width="46.2999" height="29.4385" fill="black" fill-opacity="0" transform="translate(156.664 57.1848) scale(0.986209 1.0136) rotate(135)"/>
<rect width="46.2983" height="1.96255" transform="translate(156.663 57.186) scale(0.986209 1.0136) rotate(135)" fill="#B64025"/>
<rect width="46.2983" height="1.96255" transform="translate(153.927 54.3715) scale(0.986209 1.0136) rotate(135)" fill="#B64025"/>
<rect width="46.2983" height="1.96255" transform="translate(151.189 51.5586) scale(0.986209 1.0136) rotate(135)" fill="#B64025"/>
<rect width="46.2983" height="1.96255" transform="translate(148.452 48.7452) scale(0.986209 1.0136) rotate(135)" fill="#B64025"/>
<rect width="46.2983" height="1.96255" transform="translate(145.715 45.9323) scale(0.986209 1.0136) rotate(135)" fill="#B64025"/>
<rect width="46.2983" height="1.96255" transform="translate(142.977 43.1188) scale(0.986209 1.0136) rotate(135)" fill="#B64025"/>
<rect width="46.2983" height="1.96255" transform="translate(140.24 40.3054) scale(0.986209 1.0136) rotate(135)" fill="#B64025"/>
<rect width="46.2983" height="1.96255" transform="translate(137.503 37.4925) scale(0.986209 1.0136) rotate(135)" fill="#B64025"/>
<rect width="28.8223" height="29.4383" fill="black" fill-opacity="0" transform="translate(177.102 80.937) scale(0.986209 1.0136) rotate(135)"/>
<rect width="28.8212" height="1.96255" transform="translate(174.364 78.1238) scale(0.986209 1.0136) rotate(135)" fill="#B64025"/>
<rect width="28.8212" height="1.96255" transform="translate(171.627 75.311) scale(0.986209 1.0136) rotate(135)" fill="#B64025"/>
<rect width="28.8212" height="1.96255" transform="translate(168.889 72.4976) scale(0.986209 1.0136) rotate(135)" fill="#B64025"/>
<rect width="28.8212" height="1.96255" transform="translate(166.152 69.6846) scale(0.986209 1.0136) rotate(135)" fill="#B64025"/>
<rect width="28.8212" height="1.96255" transform="translate(163.416 66.8712) scale(0.986209 1.0136) rotate(135)" fill="#B64025"/>
<rect width="28.8212" height="1.96255" transform="translate(160.679 64.0578) scale(0.986209 1.0136) rotate(135)" fill="#B64025"/>
<rect width="28.8212" height="1.96255" transform="translate(157.941 61.2449) scale(0.986209 1.0136) rotate(135)" fill="#B64025"/>
<rect width="46.3" height="29.4383" fill="black" fill-opacity="0" transform="translate(157.493 101.091) scale(0.986209 1.0136) rotate(135)"/>
<rect width="46.2983" height="1.96255" transform="translate(157.492 101.092) scale(0.986209 1.0136) rotate(135)" fill="#B64025"/>
<rect width="46.2983" height="1.96255" transform="translate(154.756 98.2778) scale(0.986209 1.0136) rotate(135)" fill="#B64025"/>
<rect width="46.2983" height="1.96255" transform="translate(152.018 95.4648) scale(0.986209 1.0136) rotate(135)" fill="#B64025"/>
<rect width="46.2983" height="1.96255" transform="translate(149.281 92.6514) scale(0.986209 1.0136) rotate(135)" fill="#B64025"/>
<rect width="46.2983" height="1.96255" transform="translate(146.545 89.8385) scale(0.986209 1.0136) rotate(135)" fill="#B64025"/>
<rect width="46.2983" height="1.96255" transform="translate(143.807 87.0251) scale(0.986209 1.0136) rotate(135)" fill="#B64025"/>
<rect width="46.2983" height="1.96255" transform="translate(141.07 84.2117) scale(0.986209 1.0136) rotate(135)" fill="#B64025"/>
<rect width="46.2983" height="1.96255" transform="translate(138.333 81.3988) scale(0.986209 1.0136) rotate(135)" fill="#B64025"/>
<rect width="28.8226" height="29.4383" fill="black" fill-opacity="0" transform="translate(177.102 125.695) scale(0.986209 1.0136) rotate(135)"/>
<rect width="28.8212" height="1.96255" transform="translate(174.365 122.882) scale(0.986209 1.0136) rotate(135)" fill="#B64025"/>
<rect width="28.8212" height="1.96255" transform="translate(171.627 120.069) scale(0.986209 1.0136) rotate(135)" fill="#B64025"/>
<rect width="28.8212" height="1.96255" transform="translate(168.89 117.255) scale(0.986209 1.0136) rotate(135)" fill="#B64025"/>
<rect width="28.8212" height="1.96255" transform="translate(166.152 114.443) scale(0.986209 1.0136) rotate(135)" fill="#B64025"/>
<rect width="28.8212" height="1.96255" transform="translate(163.417 111.629) scale(0.986209 1.0136) rotate(135)" fill="#B64025"/>
<rect width="28.8212" height="1.96255" transform="translate(160.679 108.816) scale(0.986209 1.0136) rotate(135)" fill="#B64025"/>
<rect width="28.8212" height="1.96255" transform="translate(157.941 106.003) scale(0.986209 1.0136) rotate(135)" fill="#B64025"/>
<rect width="46.2989" height="29.4383" fill="black" fill-opacity="0" transform="translate(157.493 145.849) scale(0.986209 1.0136) rotate(135)"/>
<rect width="46.2983" height="1.96255" transform="translate(157.493 145.849) scale(0.986209 1.0136) rotate(135)" fill="#B64025"/>
<rect width="46.2983" height="1.96255" transform="translate(154.756 143.036) scale(0.986209 1.0136) rotate(135)" fill="#B64025"/>
<rect width="46.2983" height="1.96255" transform="translate(152.018 140.223) scale(0.986209 1.0136) rotate(135)" fill="#B64025"/>
<rect width="46.2983" height="1.96255" transform="translate(149.282 137.409) scale(0.986209 1.0136) rotate(135)" fill="#B64025"/>
<rect width="46.2983" height="1.96255" transform="translate(146.545 134.597) scale(0.986209 1.0136) rotate(135)" fill="#B64025"/>
<rect width="46.2983" height="1.96255" transform="translate(143.807 131.783) scale(0.986209 1.0136) rotate(135)" fill="#B64025"/>
<rect width="46.2983" height="1.96255" transform="translate(141.07 128.97) scale(0.986209 1.0136) rotate(135)" fill="#B64025"/>
<rect width="46.2983" height="1.96255" transform="translate(138.333 126.157) scale(0.986209 1.0136) rotate(135)" fill="#B64025"/>
<rect width="28.8221" height="29.4383" fill="black" fill-opacity="0" transform="translate(177.102 170.453) scale(0.986209 1.0136) rotate(135)"/>
<rect width="28.8212" height="1.96255" transform="translate(174.364 167.64) scale(0.986209 1.0136) rotate(135)" fill="#B64025"/>
<rect width="28.8212" height="1.96255" transform="translate(171.627 164.827) scale(0.986209 1.0136) rotate(135)" fill="#B64025"/>
<rect width="28.8212" height="1.96255" transform="translate(168.889 162.014) scale(0.986209 1.0136) rotate(135)" fill="#B64025"/>
<rect width="28.8212" height="1.96255" transform="translate(166.152 159.201) scale(0.986209 1.0136) rotate(135)" fill="#B64025"/>
<rect width="28.8212" height="1.96255" transform="translate(163.416 156.387) scale(0.986209 1.0136) rotate(135)" fill="#B64025"/>
<rect width="28.8212" height="1.96255" transform="translate(160.679 153.574) scale(0.986209 1.0136) rotate(135)" fill="#B64025"/>
<rect width="28.8212" height="1.96255" transform="translate(157.941 150.761) scale(0.986209 1.0136) rotate(135)" fill="#B64025"/>
<rect width="46.3" height="29.4383" fill="black" fill-opacity="0" transform="translate(157.493 190.607) scale(0.986209 1.0136) rotate(135)"/>
<rect width="46.2983" height="1.96255" transform="translate(157.492 190.608) scale(0.986209 1.0136) rotate(135)" fill="#B64025"/>
<rect width="46.2983" height="1.96255" transform="translate(154.756 187.794) scale(0.986209 1.0136) rotate(135)" fill="#B64025"/>
<rect width="46.2983" height="1.96255" transform="translate(152.018 184.981) scale(0.986209 1.0136) rotate(135)" fill="#B64025"/>
<rect width="46.2983" height="1.96255" transform="translate(149.281 182.168) scale(0.986209 1.0136) rotate(135)" fill="#B64025"/>
<rect width="46.2983" height="1.96255" transform="translate(146.545 179.355) scale(0.986209 1.0136) rotate(135)" fill="#B64025"/>
<rect width="46.2983" height="1.96255" transform="translate(143.807 176.541) scale(0.986209 1.0136) rotate(135)" fill="#B64025"/>
<rect width="46.2983" height="1.96255" transform="translate(141.07 173.728) scale(0.986209 1.0136) rotate(135)" fill="#B64025"/>
<rect width="46.2983" height="1.96255" transform="translate(138.333 170.915) scale(0.986209 1.0136) rotate(135)" fill="#B64025"/>
<rect width="28.4584" height="29.4379" fill="black" fill-opacity="0" transform="translate(161.502 7.45355) scale(0.986209 1.0136) rotate(135)"/>
<rect width="28.457" height="1.96255" transform="translate(161.501 7.45453) scale(0.986209 1.0136) rotate(135)" fill="#B64025"/>
<rect width="28.457" height="1.96255" transform="translate(158.765 4.64044) scale(0.986209 1.0136) rotate(135)" fill="#B64025"/>
<rect width="28.457" height="1.96255" transform="translate(156.028 1.82751) scale(0.986209 1.0136) rotate(135)" fill="#B64025"/>
<rect width="28.457" height="1.96255" transform="translate(153.291 -0.985901) scale(0.986209 1.0136) rotate(135)" fill="#B64025"/>
<rect width="28.457" height="1.96255" transform="translate(150.554 -3.79883) scale(0.986209 1.0136) rotate(135)" fill="#B64025"/>
<rect width="28.457" height="1.96255" transform="translate(147.817 -6.61224) scale(0.986209 1.0136) rotate(135)" fill="#B64025"/>
<rect width="28.457" height="1.96255" transform="translate(145.08 -9.42566) scale(0.986209 1.0136) rotate(135)" fill="#B64025"/>
<rect width="28.457" height="1.96255" transform="translate(142.342 -12.2385) scale(0.986209 1.0136) rotate(135)" fill="#B64025"/>
<rect width="28.4581" height="29.4385" fill="black" fill-opacity="0" transform="translate(142.148 27.3461) scale(0.986209 1.0136) rotate(135)"/>
<rect width="28.457" height="1.96255" transform="translate(142.147 27.347) scale(0.986209 1.0136) rotate(135)" fill="#B64025"/>
<rect width="28.457" height="1.96255" transform="translate(139.411 24.5328) scale(0.986209 1.0136) rotate(135)" fill="#B64025"/>
<rect width="28.457" height="1.96255" transform="translate(136.673 21.7198) scale(0.986209 1.0136) rotate(135)" fill="#B64025"/>
<rect width="28.457" height="1.96255" transform="translate(133.936 18.9065) scale(0.986209 1.0136) rotate(135)" fill="#B64025"/>
<rect width="28.457" height="1.96255" transform="translate(131.199 16.0936) scale(0.986209 1.0136) rotate(135)" fill="#B64025"/>
<rect width="28.457" height="1.96255" transform="translate(128.461 13.2802) scale(0.986209 1.0136) rotate(135)" fill="#B64025"/>
<rect width="28.457" height="1.96255" transform="translate(125.724 10.4667) scale(0.986209 1.0136) rotate(135)" fill="#B64025"/>
</g>
</g>
</svg>
