<svg width="9" height="19" viewBox="0 0 9 19" fill="none" xmlns="http://www.w3.org/2000/svg">
<g style="mix-blend-mode:multiply" opacity="0.9">
<path d="M3.37316 1.08244C2.89951 1.14927 2.34594 1.58209 1.9712 1.96211C1.59647 2.34213 1.44607 3.08458 1.63476 3.65461C1.82389 4.22816 2.44572 4.44278 2.6107 4.32315C2.92309 4.09443 2.69937 3.83756 2.46575 3.30977C2.23207 2.78196 2.54421 2.40899 2.88339 2.07822C3.22261 1.75099 3.70528 1.69117 4.09859 1.79321C4.49231 1.89525 4.59072 1.96212 4.76886 1.56099C4.947 1.15634 3.84681 1.0156 3.37316 1.08244ZM6.99052 5.98045C8.36817 4.12258 8.26972 1.92341 6.95334 0.790397C5.63656 -0.342626 2.66004 -0.110395 1.57482 0.56871C0.490038 1.25134 -0.351809 2.80308 0.161516 4.52723C0.674411 6.25491 2.93064 7.82776 3.1592 7.95796C3.38735 8.09167 3.24321 9.7947 3.24321 9.7947C3.0021 9.82991 2.70757 10.1818 2.69534 10.7096C2.68315 11.2374 2.70654 16.2269 2.68127 17.0854C2.65637 17.944 2.68326 18.0636 3.11344 18.5703C3.54362 19.077 4.77729 19.0207 5.25997 18.9644C5.74265 18.9116 5.72795 18.2184 5.72648 17.4936C5.725 16.7652 5.60707 11.5224 5.60602 11.0051C5.60497 10.4879 5.42988 10.0692 5.29527 9.92842C5.16109 9.78415 5.06705 9.75248 5.07995 9.5519C5.09329 9.35486 4.98357 8.15851 5.06361 8.03536C5.14402 7.91573 5.61287 7.83831 6.99052 5.98045Z" fill="#B2B2B2"/>
</g>
</svg>
