<svg width="101" height="29" viewBox="0 0 101 29" fill="none" xmlns="http://www.w3.org/2000/svg">
<g clip-path="url(#clip0)">
<path d="M95.5999 2.5C95.9999 2.4 97.7999 0.7 97.9999 0.4C98.2999 0.1 98.6999 0 99.0999 0C99.4999 0 99.8999 0.2 100.2 0.4C100.5 0.7 101 1.3 100.6 1.5C90.0999 7.6 81.5999 21 73.2999 24H27.3999C19.0999 21 10.5999 7.6 0.0999025 1.5C-0.200097 1.3 0.299903 0.7 0.499903 0.4C0.799903 0.1 1.1999 0 1.5999 0C1.9999 0 2.3999 0.2 2.6999 0.4C2.9999 0.7 4.6999 2.4 5.0999 2.5" fill="#B64025"/>
</g>
<rect x="27" y="27" width="46" height="2" rx="1" fill="#B64025"/>
<defs>
<clipPath id="clip0">
<rect width="100.7" height="24" fill="white"/>
</clipPath>
</defs>
</svg>
