<svg width="101" height="29" viewBox="0 0 101 29" fill="none" xmlns="http://www.w3.org/2000/svg">
<rect x="21" y="27" width="57" height="2" rx="1" fill="#B64025"/>
<g clip-path="url(#clip0)">
<path d="M78 24H22C14.6 24 0 9.4 0 2C0 1.6 0.2 1.2 0.4 0.9C0.7 0.6 1.1 0.5 1.5 0.5C1.9 0.5 2.3 0.7 2.6 0.9C2.9 1.2 3 1.6 3 2C3 7.9 16.1 19.5 22 19.5H78C83.8 19.5 97.5 7.3 97.5 1.5C97.5 1.1 97.7 0.7 97.9 0.4C98.2 0.1 98.6 0 99 0C99.4 0 99.8 0.2 100.1 0.4C100.4 0.7 100.5 1.1 100.5 1.5C100.5 8.8 85.4 24 78 24Z" fill="#B64025"/>
</g>
<defs>
<clipPath id="clip0">
<rect width="100.5" height="24" fill="white"/>
</clipPath>
</defs>
</svg>
