<svg width="101" height="29" viewBox="0 0 101 29" fill="none" xmlns="http://www.w3.org/2000/svg">
<rect x="26" y="27" width="47" height="2" rx="1" fill="#B64025"/>
<g clip-path="url(#clip0)">
<path d="M97.5 2.5C97.5 2.1 97.7 0.7 97.9 0.4C98.2 0.1 98.6 0 99 0C99.4 0 99.8 0.2 100.1 0.4C100.4 0.7 100.5 1.1 100.5 1.5C100.5 8.9 80.8 24 58.3 24H42.2C20.2 24 0 8.9 0 1.5C0 1.1 0.2 0.7 0.4 0.4C0.7 0.1 1.1 0 1.5 0C1.9 0 2.3 0.2 2.6 0.4C2.9 0.7 3 2.1 3 2.5" fill="#B64025"/>
</g>
<defs>
<clipPath id="clip0">
<rect width="100.5" height="24" fill="white"/>
</clipPath>
</defs>
</svg>
