<svg width="101" height="29" viewBox="0 0 101 29" fill="none" xmlns="http://www.w3.org/2000/svg">
<g clip-path="url(#clip0)">
<path d="M68.4 24H32.2C10.2 24 0 8.9 0 1.5C0 1.1 0.2 0.7 0.4 0.4C0.7 0.1 1.1 0 1.5 0C1.9 0 2.3 0.2 2.6 0.4C2.9 0.7 3 1.1 3 1.5C3 7.4 15 19.5 36.2 19.5H64.4C86.9 19.5 97.6 7.3 97.6 1.5C97.6 1.1 97.8 0.7 98 0.4C98.3 0.1 98.7 0 99.1 0C99.5 0 99.9 0.2 100.2 0.4C100.5 0.7 100.6 1.1 100.6 1.5C100.6 8.9 91 24 68.4 24Z" fill="#B64025"/>
</g>
<rect x="28" y="27" width="45" height="2" rx="1" fill="#B64025"/>
<defs>
<clipPath id="clip0">
<rect width="100.6" height="24" fill="white"/>
</clipPath>
</defs>
</svg>
