<svg width="101" height="29" viewBox="0 0 101 29" fill="none" xmlns="http://www.w3.org/2000/svg">
<rect x="26" y="27" width="47" height="2" rx="1" fill="#B64025"/>
<g clip-path="url(#clip0)">
<path d="M54.1998 19.5C75.3998 19.5 113.1 18.5 90.5998 1.5C90.2998 1.3 90.7998 0.7 90.9998 0.4C91.2998 0.1 91.6998 0 92.0998 0C92.4998 0 92.8998 0.2 93.1998 0.4C93.4998 0.7 93.6998 1.1 93.5998 1.5C93.1998 3.3 123.2 21.6 58.1998 24H41.9998C-23.0002 21.6 6.99979 3.2 6.59979 1.5C6.49979 1.1 6.79979 0.7 6.99979 0.4C7.29979 0.1 7.69979 0 8.09979 0C8.49979 0 8.89979 0.2 9.19979 0.4C9.49979 0.7 9.99979 1.2 9.59979 1.5C-12.9002 18.5 24.7998 19.5 45.9998 19.5" fill="#B64025"/>
</g>
<defs>
<clipPath id="clip0">
<rect width="100.1" height="24" fill="white"/>
</clipPath>
</defs>
</svg>
