<svg width="149" height="571" viewBox="0 0 149 571" fill="none" xmlns="http://www.w3.org/2000/svg">
<rect width="149" height="571" fill="black" fill-opacity="0"/>
<rect width="149" height="571" fill="black" fill-opacity="0"/>
<rect width="149" height="159" fill="black" fill-opacity="0" transform="translate(0 45)"/>
<rect width="149" height="159" fill="black" fill-opacity="0" transform="translate(0 45)"/>
<rect width="149" height="49" fill="black" fill-opacity="0" transform="translate(149 94) rotate(-180)"/>
<rect x="149" y="94" width="149" height="3.26667" transform="rotate(-180 149 94)" fill="#B64025"/>
<rect x="149" y="87.4667" width="149" height="3.26667" transform="rotate(-180 149 87.4667)" fill="#B64025"/>
<rect x="149" y="80.9333" width="149" height="3.26667" transform="rotate(-180 149 80.9333)" fill="#B64025"/>
<rect x="149" y="74.4" width="149" height="3.26667" transform="rotate(-180 149 74.4)" fill="#B64025"/>
<rect x="149" y="67.8666" width="149" height="3.26667" transform="rotate(-180 149 67.8666)" fill="#B64025"/>
<rect x="149" y="61.3334" width="149" height="3.26667" transform="rotate(-180 149 61.3334)" fill="#B64025"/>
<rect x="149" y="54.8" width="149" height="3.26667" transform="rotate(-180 149 54.8)" fill="#B64025"/>
<rect x="149" y="48.2667" width="149" height="3.26667" transform="rotate(-180 149 48.2667)" fill="#B64025"/>
<rect width="159" height="49" fill="black" fill-opacity="0" transform="translate(0 204) rotate(-90)"/>
<rect y="204" width="159" height="3.26668" transform="rotate(-90 0 204)" fill="#B64025"/>
<rect x="6.53345" y="204" width="159" height="3.26668" transform="rotate(-90 6.53345 204)" fill="#B64025"/>
<rect x="13.0669" y="204" width="159" height="3.26668" transform="rotate(-90 13.0669 204)" fill="#B64025"/>
<rect x="19.6003" y="204" width="159" height="3.26668" transform="rotate(-90 19.6003 204)" fill="#B64025"/>
<rect x="26.1331" y="204" width="159" height="3.26668" transform="rotate(-90 26.1331 204)" fill="#B64025"/>
<rect x="32.6672" y="204" width="159" height="3.26668" transform="rotate(-90 32.6672 204)" fill="#B64025"/>
<rect x="39.2" y="204" width="159" height="3.26668" transform="rotate(-90 39.2 204)" fill="#B64025"/>
<rect x="45.7334" y="204" width="159" height="3.26668" transform="rotate(-90 45.7334 204)" fill="#B64025"/>
<rect width="149" height="159" fill="black" fill-opacity="0" transform="translate(0 45)"/>
<rect width="149" height="49" fill="black" fill-opacity="0" transform="translate(149 94) rotate(-180)"/>
<rect x="149" y="94" width="149" height="3.26667" transform="rotate(-180 149 94)" fill="#B64025"/>
<rect x="149" y="87.4667" width="149" height="3.26667" transform="rotate(-180 149 87.4667)" fill="#B64025"/>
<rect x="149" y="80.9333" width="149" height="3.26667" transform="rotate(-180 149 80.9333)" fill="#B64025"/>
<rect x="149" y="74.4" width="149" height="3.26667" transform="rotate(-180 149 74.4)" fill="#B64025"/>
<rect x="149" y="67.8666" width="149" height="3.26667" transform="rotate(-180 149 67.8666)" fill="#B64025"/>
<rect x="149" y="61.3334" width="149" height="3.26667" transform="rotate(-180 149 61.3334)" fill="#B64025"/>
<rect x="149" y="54.8" width="149" height="3.26667" transform="rotate(-180 149 54.8)" fill="#B64025"/>
<rect x="149" y="48.2667" width="149" height="3.26667" transform="rotate(-180 149 48.2667)" fill="#B64025"/>
<rect width="159" height="49" fill="black" fill-opacity="0" transform="translate(0 204) rotate(-90)"/>
<rect y="204" width="159" height="3.26668" transform="rotate(-90 0 204)" fill="#B64025"/>
<rect x="6.53345" y="204" width="159" height="3.26668" transform="rotate(-90 6.53345 204)" fill="#B64025"/>
<rect x="13.0669" y="204" width="159" height="3.26668" transform="rotate(-90 13.0669 204)" fill="#B64025"/>
<rect x="19.6003" y="204" width="159" height="3.26668" transform="rotate(-90 19.6003 204)" fill="#B64025"/>
<rect x="26.1331" y="204" width="159" height="3.26668" transform="rotate(-90 26.1331 204)" fill="#B64025"/>
<rect x="32.6672" y="204" width="159" height="3.26668" transform="rotate(-90 32.6672 204)" fill="#B64025"/>
<rect x="39.2" y="204" width="159" height="3.26668" transform="rotate(-90 39.2 204)" fill="#B64025"/>
<rect x="45.7334" y="204" width="159" height="3.26668" transform="rotate(-90 45.7334 204)" fill="#B64025"/>
<rect width="149" height="159" fill="black" fill-opacity="0" transform="translate(0 204)"/>
<rect width="149" height="49" fill="black" fill-opacity="0" transform="translate(149 253) rotate(-180)"/>
<rect x="149" y="253" width="149" height="3.26667" transform="rotate(-180 149 253)" fill="#B64025"/>
<rect x="149" y="246.467" width="149" height="3.26667" transform="rotate(-180 149 246.467)" fill="#B64025"/>
<rect x="149" y="239.933" width="149" height="3.26667" transform="rotate(-180 149 239.933)" fill="#B64025"/>
<rect x="149" y="233.4" width="149" height="3.26667" transform="rotate(-180 149 233.4)" fill="#B64025"/>
<rect x="149" y="226.867" width="149" height="3.26667" transform="rotate(-180 149 226.867)" fill="#B64025"/>
<rect x="149" y="220.333" width="149" height="3.26667" transform="rotate(-180 149 220.333)" fill="#B64025"/>
<rect x="149" y="213.8" width="149" height="3.26667" transform="rotate(-180 149 213.8)" fill="#B64025"/>
<rect x="149" y="207.267" width="149" height="3.26667" transform="rotate(-180 149 207.267)" fill="#B64025"/>
<rect width="159" height="49" fill="black" fill-opacity="0" transform="translate(0 363) rotate(-90)"/>
<rect y="363" width="159" height="3.26668" transform="rotate(-90 0 363)" fill="#B64025"/>
<rect x="6.53345" y="363" width="159" height="3.26668" transform="rotate(-90 6.53345 363)" fill="#B64025"/>
<rect x="13.0669" y="363" width="159" height="3.26668" transform="rotate(-90 13.0669 363)" fill="#B64025"/>
<rect x="19.6003" y="363" width="159" height="3.26668" transform="rotate(-90 19.6003 363)" fill="#B64025"/>
<rect x="26.1331" y="363" width="159" height="3.26668" transform="rotate(-90 26.1331 363)" fill="#B64025"/>
<rect x="32.6672" y="363" width="159" height="3.26668" transform="rotate(-90 32.6672 363)" fill="#B64025"/>
<rect x="39.2" y="363" width="159" height="3.26668" transform="rotate(-90 39.2 363)" fill="#B64025"/>
<rect x="45.7334" y="363" width="159" height="3.26668" transform="rotate(-90 45.7334 363)" fill="#B64025"/>
<rect width="149" height="159" fill="black" fill-opacity="0" transform="translate(0 363)"/>
<rect width="149" height="49" fill="black" fill-opacity="0" transform="translate(149 412) rotate(-180)"/>
<rect x="149" y="412" width="149" height="3.26667" transform="rotate(-180 149 412)" fill="#B64025"/>
<rect x="149" y="405.467" width="149" height="3.26667" transform="rotate(-180 149 405.467)" fill="#B64025"/>
<rect x="149" y="398.933" width="149" height="3.26667" transform="rotate(-180 149 398.933)" fill="#B64025"/>
<rect x="149" y="392.4" width="149" height="3.26667" transform="rotate(-180 149 392.4)" fill="#B64025"/>
<rect x="149" y="385.867" width="149" height="3.26667" transform="rotate(-180 149 385.867)" fill="#B64025"/>
<rect x="149" y="379.333" width="149" height="3.26667" transform="rotate(-180 149 379.333)" fill="#B64025"/>
<rect x="149" y="372.8" width="149" height="3.26667" transform="rotate(-180 149 372.8)" fill="#B64025"/>
<rect x="149" y="366.267" width="149" height="3.26667" transform="rotate(-180 149 366.267)" fill="#B64025"/>
<rect width="159" height="49" fill="black" fill-opacity="0" transform="translate(0 522) rotate(-90)"/>
<rect y="522" width="159" height="3.26668" transform="rotate(-90 0 522)" fill="#B64025"/>
<rect x="6.53345" y="522" width="159" height="3.26668" transform="rotate(-90 6.53345 522)" fill="#B64025"/>
<rect x="13.0669" y="522" width="159" height="3.26668" transform="rotate(-90 13.0669 522)" fill="#B64025"/>
<rect x="19.6003" y="522" width="159" height="3.26668" transform="rotate(-90 19.6003 522)" fill="#B64025"/>
<rect x="26.1331" y="522" width="159" height="3.26668" transform="rotate(-90 26.1331 522)" fill="#B64025"/>
<rect x="32.6672" y="522" width="159" height="3.26668" transform="rotate(-90 32.6672 522)" fill="#B64025"/>
<rect x="39.2" y="522" width="159" height="3.26668" transform="rotate(-90 39.2 522)" fill="#B64025"/>
<rect x="45.7334" y="522" width="159" height="3.26668" transform="rotate(-90 45.7334 522)" fill="#B64025"/>
<rect width="149" height="49" fill="black" fill-opacity="0" transform="translate(0 522)"/>
<rect width="149" height="49" fill="black" fill-opacity="0" transform="translate(149 571) rotate(-180)"/>
<rect x="149" y="571" width="149" height="3.26667" transform="rotate(-180 149 571)" fill="#B64025"/>
<rect x="149" y="564.467" width="149" height="3.26667" transform="rotate(-180 149 564.467)" fill="#B64025"/>
<rect x="149" y="557.933" width="149" height="3.26667" transform="rotate(-180 149 557.933)" fill="#B64025"/>
<rect x="149" y="551.4" width="149" height="3.26667" transform="rotate(-180 149 551.4)" fill="#B64025"/>
<rect x="149" y="544.867" width="149" height="3.26667" transform="rotate(-180 149 544.867)" fill="#B64025"/>
<rect x="149" y="538.333" width="149" height="3.26667" transform="rotate(-180 149 538.333)" fill="#B64025"/>
<rect x="149" y="531.8" width="149" height="3.26667" transform="rotate(-180 149 531.8)" fill="#B64025"/>
<rect x="149" y="525.267" width="149" height="3.26667" transform="rotate(-180 149 525.267)" fill="#B64025"/>
<rect width="49" height="49" fill="black" fill-opacity="0" transform="translate(0 571) rotate(-90)"/>
<rect y="571" width="49" height="3.26668" transform="rotate(-90 0 571)" fill="#B64025"/>
<rect x="6.53345" y="571" width="49" height="3.26668" transform="rotate(-90 6.53345 571)" fill="#B64025"/>
<rect x="13.0669" y="571" width="49" height="3.26668" transform="rotate(-90 13.0669 571)" fill="#B64025"/>
<rect x="19.6003" y="571" width="49" height="3.26668" transform="rotate(-90 19.6003 571)" fill="#B64025"/>
<rect x="26.1331" y="571" width="49" height="3.26668" transform="rotate(-90 26.1331 571)" fill="#B64025"/>
<rect x="32.6672" y="571" width="49" height="3.26668" transform="rotate(-90 32.6672 571)" fill="#B64025"/>
<rect x="39.2" y="571" width="49" height="3.26668" transform="rotate(-90 39.2 571)" fill="#B64025"/>
<rect x="45.7334" y="571" width="49" height="3.26668" transform="rotate(-90 45.7334 571)" fill="#B64025"/>
<rect width="149" height="45" fill="black" fill-opacity="0"/>
<rect width="149" height="45" fill="#B64025"/>
<rect width="62.3668" height="18" fill="black" fill-opacity="0" transform="translate(66 15)"/>
<rect width="62.3668" height="13.9091" fill="black" fill-opacity="0" transform="translate(66 15)"/>
<rect width="62.3668" height="13.9091" fill="black" fill-opacity="0" transform="translate(66 15)"/>
<rect width="62.3668" height="13.9091" fill="black" fill-opacity="0" transform="translate(66 15)"/>
<path d="M127.436 15C127.681 15.0059 127.914 15.0993 128.087 15.2611C128.26 15.4229 128.361 15.6406 128.367 15.8693C128.367 20.158 118.996 28.9091 114.404 28.9091H79.6524C75.0603 28.9091 66 20.4477 66 16.1591C66.0063 15.9304 66.1064 15.7127 66.2796 15.5509C66.4528 15.3891 66.686 15.2956 66.9308 15.2898" fill="white"/>
<rect x="79.4846" y="31.3636" width="36.2402" height="1.63636" rx="0.818182" fill="white"/>
</svg>
